G04 (created by PCBNEW (2013-03-31 BZR 4008)-stable) date 25-01-2015 17:47:35*
%MOIN*%
G04 Gerber Fmt 3.4, Leading zero omitted, Abs format*
%FSLAX34Y34*%
G01*
G70*
G90*
G04 APERTURE LIST*
%ADD10C,0*%
%ADD11C,0.00393701*%
%ADD12C,0.06*%
%ADD13C,0.085*%
%ADD14C,0.12*%
%ADD15C,0.15*%
%ADD16O,0.05X0.1*%
%ADD17R,0.065X0.015*%
%ADD18O,0.12X0.05*%
%ADD19C,0.2*%
G04 APERTURE END LIST*
G54D10*
G54D11*
X34000Y-34000D02*
X34000Y-55000D01*
X59400Y-34000D02*
X34000Y-34000D01*
X60000Y-34600D02*
X59400Y-34000D01*
X60000Y-39100D02*
X60000Y-34600D01*
X61000Y-40100D02*
X60000Y-39100D01*
X61000Y-53000D02*
X61000Y-40100D01*
X60000Y-54000D02*
X61000Y-53000D01*
X60000Y-55000D02*
X60000Y-54000D01*
X34000Y-55000D02*
X60000Y-55000D01*
G54D12*
X57500Y-42750D03*
X54500Y-42750D03*
X43500Y-41500D03*
X46500Y-41500D03*
X43500Y-40000D03*
X46500Y-40000D03*
X57500Y-41500D03*
X54500Y-41500D03*
X43500Y-45250D03*
X46500Y-45250D03*
X43500Y-44000D03*
X46500Y-44000D03*
X54500Y-44000D03*
X57500Y-44000D03*
G54D13*
X41000Y-54000D03*
X44000Y-54000D03*
G54D12*
X51500Y-43500D03*
X49500Y-43500D03*
X51000Y-45250D03*
X53000Y-45250D03*
X50000Y-45250D03*
X48000Y-45250D03*
X39500Y-43250D03*
X39500Y-45250D03*
X55000Y-45250D03*
X57000Y-45250D03*
X40000Y-37300D03*
X42000Y-37300D03*
X43750Y-49000D03*
X43750Y-47000D03*
G54D14*
X60000Y-52000D03*
X40000Y-35000D03*
X39500Y-54000D03*
X60000Y-41000D03*
G54D15*
X35250Y-42500D03*
X35250Y-37500D03*
G54D12*
X37250Y-40500D03*
X37250Y-39500D03*
X36250Y-39500D03*
X36250Y-40500D03*
G54D15*
X37500Y-53500D03*
X36250Y-51750D03*
X38750Y-51750D03*
G54D12*
X60050Y-45000D03*
X59050Y-45000D03*
X59050Y-44000D03*
X60050Y-44000D03*
X60050Y-43000D03*
X59050Y-43000D03*
G54D16*
X44400Y-35000D03*
X43400Y-35000D03*
X41400Y-35000D03*
X42400Y-35000D03*
X46400Y-35000D03*
X45400Y-35000D03*
X47400Y-35000D03*
X48400Y-35000D03*
X50400Y-35000D03*
X49400Y-35000D03*
G54D13*
X37250Y-43250D03*
X37250Y-45250D03*
X37250Y-44250D03*
G54D12*
X46500Y-38500D03*
X43500Y-38500D03*
G54D16*
X53000Y-35000D03*
X52000Y-35000D03*
X55000Y-35000D03*
X54000Y-35000D03*
X56000Y-35000D03*
X57000Y-35000D03*
X59000Y-35000D03*
X58000Y-35000D03*
X46000Y-54000D03*
X45000Y-54000D03*
X48000Y-54000D03*
X47000Y-54000D03*
X49000Y-54000D03*
X50000Y-54000D03*
X52000Y-54000D03*
X51000Y-54000D03*
X55000Y-54000D03*
X54000Y-54000D03*
X56000Y-54000D03*
X57000Y-54000D03*
X59000Y-54000D03*
X58000Y-54000D03*
G54D12*
X41500Y-45250D03*
X41500Y-43250D03*
G54D13*
X40250Y-51000D03*
X40250Y-52000D03*
G54D12*
X48250Y-38500D03*
X49250Y-38500D03*
X49250Y-40000D03*
X48250Y-40000D03*
X49250Y-41500D03*
X48250Y-41500D03*
X57500Y-40000D03*
X58500Y-40000D03*
G54D17*
X39153Y-40944D03*
X39153Y-41200D03*
X39153Y-41456D03*
X39153Y-41712D03*
X39153Y-40688D03*
X39153Y-40433D03*
X39153Y-40177D03*
X39153Y-39921D03*
X39153Y-39665D03*
X39153Y-39409D03*
X39153Y-38897D03*
X39153Y-39153D03*
X39153Y-38641D03*
X39153Y-38385D03*
X41968Y-39409D03*
X41968Y-39665D03*
X41968Y-39921D03*
X41968Y-40177D03*
X41968Y-40433D03*
X41968Y-40688D03*
X41968Y-41712D03*
X41968Y-41456D03*
X41968Y-41200D03*
X41968Y-40944D03*
X41968Y-39153D03*
X41968Y-38897D03*
X41968Y-38641D03*
X41968Y-38385D03*
G54D16*
X56000Y-50000D03*
X57000Y-50000D03*
X58000Y-50000D03*
X59000Y-50000D03*
X55000Y-50000D03*
X54000Y-50000D03*
X53000Y-50000D03*
X52000Y-50000D03*
X51000Y-50000D03*
X50000Y-50000D03*
X48000Y-50000D03*
X49000Y-50000D03*
X47000Y-50000D03*
X46000Y-50000D03*
X50000Y-47000D03*
X51000Y-47000D03*
X52000Y-47000D03*
X53000Y-47000D03*
X54000Y-47000D03*
X55000Y-47000D03*
X59000Y-47000D03*
X58000Y-47000D03*
X57000Y-47000D03*
X56000Y-47000D03*
X49000Y-47000D03*
X48000Y-47000D03*
X47000Y-47000D03*
X46000Y-47000D03*
G54D18*
X42500Y-47000D03*
X42500Y-48000D03*
X42500Y-49000D03*
G54D19*
X36000Y-48000D03*
G54D13*
X36300Y-34600D03*
X36300Y-36600D03*
X38800Y-36600D03*
X38800Y-34600D03*
M02*
