G04 (created by PCBNEW (2013-03-31 BZR 4008)-stable) date 04/02/2015 14:28:03*
%MOIN*%
G04 Gerber Fmt 3.4, Leading zero omitted, Abs format*
%FSLAX34Y34*%
G01*
G70*
G90*
G04 APERTURE LIST*
%ADD10C,0*%
%ADD11C,0.0045*%
%ADD12C,0.008*%
%ADD13C,0.006*%
%ADD14C,0.007*%
%ADD15C,0.00787402*%
%ADD16C,0.00393701*%
%ADD17C,0.00590551*%
%ADD18C,0.0001*%
G04 APERTURE END LIST*
G54D10*
G54D11*
X53922Y-45796D02*
X54057Y-45796D01*
X53989Y-46012D02*
X53989Y-45796D01*
X54136Y-46012D02*
X54136Y-45796D01*
X54214Y-45950D01*
X54293Y-45796D01*
X54293Y-46012D01*
G54D12*
X36352Y-45728D02*
X36352Y-45578D01*
X36561Y-45514D02*
X36561Y-45728D01*
X36161Y-45728D01*
X36161Y-45514D01*
X36161Y-45364D02*
X36561Y-45064D01*
X36161Y-45064D02*
X36561Y-45364D01*
X36161Y-44957D02*
X36161Y-44700D01*
X36561Y-44828D02*
X36161Y-44828D01*
X36523Y-44550D02*
X36542Y-44528D01*
X36561Y-44550D01*
X36542Y-44571D01*
X36523Y-44550D01*
X36561Y-44550D01*
X36695Y-44228D02*
X36123Y-44228D01*
X36161Y-43907D02*
X36485Y-43907D01*
X36523Y-43885D01*
X36542Y-43864D01*
X36561Y-43821D01*
X36561Y-43735D01*
X36542Y-43692D01*
X36523Y-43671D01*
X36485Y-43650D01*
X36161Y-43650D01*
X36542Y-43457D02*
X36561Y-43392D01*
X36561Y-43285D01*
X36542Y-43242D01*
X36523Y-43221D01*
X36485Y-43200D01*
X36447Y-43200D01*
X36409Y-43221D01*
X36390Y-43242D01*
X36371Y-43285D01*
X36352Y-43371D01*
X36333Y-43414D01*
X36314Y-43435D01*
X36276Y-43457D01*
X36238Y-43457D01*
X36200Y-43435D01*
X36180Y-43414D01*
X36161Y-43371D01*
X36161Y-43264D01*
X36180Y-43200D01*
X36352Y-42857D02*
X36371Y-42792D01*
X36390Y-42771D01*
X36428Y-42750D01*
X36485Y-42750D01*
X36523Y-42771D01*
X36542Y-42792D01*
X36561Y-42835D01*
X36561Y-43007D01*
X36161Y-43007D01*
X36161Y-42857D01*
X36180Y-42814D01*
X36200Y-42792D01*
X36238Y-42771D01*
X36276Y-42771D01*
X36314Y-42792D01*
X36333Y-42814D01*
X36352Y-42857D01*
X36352Y-43007D01*
X36896Y-37461D02*
X36746Y-37271D01*
X36639Y-37461D02*
X36639Y-37061D01*
X36810Y-37061D01*
X36853Y-37080D01*
X36875Y-37100D01*
X36896Y-37138D01*
X36896Y-37195D01*
X36875Y-37233D01*
X36853Y-37252D01*
X36810Y-37271D01*
X36639Y-37271D01*
X37089Y-37252D02*
X37239Y-37252D01*
X37303Y-37461D02*
X37089Y-37461D01*
X37089Y-37061D01*
X37303Y-37061D01*
X37475Y-37442D02*
X37539Y-37461D01*
X37646Y-37461D01*
X37689Y-37442D01*
X37710Y-37423D01*
X37732Y-37385D01*
X37732Y-37347D01*
X37710Y-37309D01*
X37689Y-37290D01*
X37646Y-37271D01*
X37560Y-37252D01*
X37517Y-37233D01*
X37496Y-37214D01*
X37475Y-37176D01*
X37475Y-37138D01*
X37496Y-37100D01*
X37517Y-37080D01*
X37560Y-37061D01*
X37667Y-37061D01*
X37732Y-37080D01*
X37925Y-37252D02*
X38075Y-37252D01*
X38139Y-37461D02*
X37925Y-37461D01*
X37925Y-37061D01*
X38139Y-37061D01*
X38267Y-37061D02*
X38525Y-37061D01*
X38396Y-37461D02*
X38396Y-37061D01*
X59142Y-39811D02*
X59228Y-39811D01*
X59271Y-39830D01*
X59314Y-39869D01*
X59335Y-39945D01*
X59335Y-40078D01*
X59314Y-40154D01*
X59271Y-40192D01*
X59228Y-40211D01*
X59142Y-40211D01*
X59100Y-40192D01*
X59057Y-40154D01*
X59035Y-40078D01*
X59035Y-39945D01*
X59057Y-39869D01*
X59100Y-39830D01*
X59142Y-39811D01*
X59528Y-40211D02*
X59528Y-39811D01*
X59785Y-40211D01*
X59785Y-39811D01*
X47285Y-41711D02*
X47135Y-41521D01*
X47028Y-41711D02*
X47028Y-41311D01*
X47200Y-41311D01*
X47242Y-41330D01*
X47264Y-41350D01*
X47285Y-41388D01*
X47285Y-41445D01*
X47264Y-41483D01*
X47242Y-41502D01*
X47200Y-41521D01*
X47028Y-41521D01*
X47435Y-41311D02*
X47735Y-41711D01*
X47735Y-41311D02*
X47435Y-41711D01*
X47071Y-39811D02*
X47328Y-39811D01*
X47200Y-40211D02*
X47200Y-39811D01*
X47435Y-39811D02*
X47735Y-40211D01*
X47735Y-39811D02*
X47435Y-40211D01*
X47757Y-38711D02*
X47542Y-38711D01*
X47542Y-38311D01*
G54D13*
X55000Y-37525D02*
X54983Y-37508D01*
X54950Y-37458D01*
X54933Y-37425D01*
X54916Y-37375D01*
X54900Y-37291D01*
X54900Y-37225D01*
X54916Y-37141D01*
X54933Y-37091D01*
X54950Y-37058D01*
X54983Y-37008D01*
X55000Y-36991D01*
X55183Y-37041D02*
X55183Y-37125D01*
X55100Y-37091D02*
X55183Y-37125D01*
X55266Y-37091D01*
X55133Y-37191D02*
X55183Y-37125D01*
X55233Y-37191D01*
X56966Y-37525D02*
X56983Y-37508D01*
X57016Y-37458D01*
X57033Y-37425D01*
X57050Y-37375D01*
X57066Y-37291D01*
X57066Y-37225D01*
X57050Y-37141D01*
X57033Y-37091D01*
X57016Y-37058D01*
X56983Y-37008D01*
X56966Y-36991D01*
G54D12*
X51764Y-37461D02*
X51764Y-37061D01*
X51878Y-37061D01*
X51947Y-37080D01*
X51992Y-37119D01*
X52015Y-37157D01*
X52038Y-37233D01*
X52038Y-37290D01*
X52015Y-37366D01*
X51992Y-37404D01*
X51947Y-37442D01*
X51878Y-37461D01*
X51764Y-37461D01*
X52244Y-37461D02*
X52244Y-37061D01*
X52724Y-37080D02*
X52678Y-37061D01*
X52610Y-37061D01*
X52541Y-37080D01*
X52495Y-37119D01*
X52472Y-37157D01*
X52450Y-37233D01*
X52450Y-37290D01*
X52472Y-37366D01*
X52495Y-37404D01*
X52541Y-37442D01*
X52610Y-37461D01*
X52655Y-37461D01*
X52724Y-37442D01*
X52747Y-37423D01*
X52747Y-37290D01*
X52655Y-37290D01*
X52952Y-37461D02*
X52952Y-37061D01*
X53112Y-37061D02*
X53387Y-37061D01*
X53249Y-37461D02*
X53249Y-37061D01*
X53524Y-37347D02*
X53752Y-37347D01*
X53478Y-37461D02*
X53638Y-37061D01*
X53798Y-37461D01*
X54187Y-37461D02*
X53958Y-37461D01*
X53958Y-37061D01*
X55444Y-37461D02*
X55444Y-37061D01*
X55627Y-37061D01*
X55672Y-37080D01*
X55695Y-37100D01*
X55718Y-37138D01*
X55718Y-37195D01*
X55695Y-37233D01*
X55672Y-37252D01*
X55627Y-37271D01*
X55444Y-37271D01*
X55878Y-37061D02*
X55992Y-37461D01*
X56084Y-37176D01*
X56175Y-37461D01*
X56289Y-37061D01*
X56472Y-37461D02*
X56472Y-37061D01*
X56632Y-37347D01*
X56792Y-37061D01*
X56792Y-37461D01*
G54D13*
X47111Y-36852D02*
X47207Y-36852D01*
X47169Y-36947D02*
X47207Y-36852D01*
X47169Y-36757D01*
X47283Y-36909D02*
X47207Y-36852D01*
X47283Y-36795D01*
X48111Y-36852D02*
X48207Y-36852D01*
X48169Y-36947D02*
X48207Y-36852D01*
X48169Y-36757D01*
X48283Y-36909D02*
X48207Y-36852D01*
X48283Y-36795D01*
X49111Y-36352D02*
X49207Y-36352D01*
X49169Y-36447D02*
X49207Y-36352D01*
X49169Y-36257D01*
X49283Y-36409D02*
X49207Y-36352D01*
X49283Y-36295D01*
X52711Y-36352D02*
X52807Y-36352D01*
X52769Y-36447D02*
X52807Y-36352D01*
X52769Y-36257D01*
X52883Y-36409D02*
X52807Y-36352D01*
X52883Y-36295D01*
X53711Y-36352D02*
X53807Y-36352D01*
X53769Y-36447D02*
X53807Y-36352D01*
X53769Y-36257D01*
X53883Y-36409D02*
X53807Y-36352D01*
X53883Y-36295D01*
X55711Y-36352D02*
X55807Y-36352D01*
X55769Y-36447D02*
X55807Y-36352D01*
X55769Y-36257D01*
X55883Y-36409D02*
X55807Y-36352D01*
X55883Y-36295D01*
G54D14*
X59000Y-36300D02*
X59000Y-36700D01*
X59200Y-36500D02*
X59000Y-36700D01*
X58800Y-36500D02*
X59000Y-36700D01*
X58000Y-36300D02*
X58200Y-36500D01*
X58000Y-36300D02*
X57800Y-36500D01*
X58000Y-36300D02*
X58000Y-36700D01*
X45191Y-53216D02*
X44841Y-53216D01*
X45191Y-53016D01*
X44841Y-53016D01*
X45158Y-52650D02*
X45175Y-52666D01*
X45191Y-52716D01*
X45191Y-52750D01*
X45175Y-52800D01*
X45141Y-52833D01*
X45108Y-52850D01*
X45041Y-52866D01*
X44991Y-52866D01*
X44925Y-52850D01*
X44891Y-52833D01*
X44858Y-52800D01*
X44841Y-52750D01*
X44841Y-52716D01*
X44858Y-52666D01*
X44875Y-52650D01*
G54D12*
X49968Y-52061D02*
X49968Y-51661D01*
X50151Y-51661D01*
X50197Y-51680D01*
X50220Y-51700D01*
X50242Y-51738D01*
X50242Y-51795D01*
X50220Y-51833D01*
X50197Y-51852D01*
X50151Y-51871D01*
X49968Y-51871D01*
X50540Y-51661D02*
X50631Y-51661D01*
X50677Y-51680D01*
X50722Y-51719D01*
X50745Y-51795D01*
X50745Y-51928D01*
X50722Y-52004D01*
X50677Y-52042D01*
X50631Y-52061D01*
X50540Y-52061D01*
X50494Y-52042D01*
X50448Y-52004D01*
X50425Y-51928D01*
X50425Y-51795D01*
X50448Y-51719D01*
X50494Y-51680D01*
X50540Y-51661D01*
X50905Y-51661D02*
X51020Y-52061D01*
X51111Y-51776D01*
X51202Y-52061D01*
X51317Y-51661D01*
X51500Y-51852D02*
X51660Y-51852D01*
X51728Y-52061D02*
X51500Y-52061D01*
X51500Y-51661D01*
X51728Y-51661D01*
X52208Y-52061D02*
X52048Y-51871D01*
X51934Y-52061D02*
X51934Y-51661D01*
X52117Y-51661D01*
X52162Y-51680D01*
X52185Y-51700D01*
X52208Y-51738D01*
X52208Y-51795D01*
X52185Y-51833D01*
X52162Y-51852D01*
X52117Y-51871D01*
X51934Y-51871D01*
X55597Y-51947D02*
X55825Y-51947D01*
X55551Y-52061D02*
X55711Y-51661D01*
X55871Y-52061D01*
X56031Y-52061D02*
X56031Y-51661D01*
X56305Y-52061D01*
X56305Y-51661D01*
X56511Y-51947D02*
X56740Y-51947D01*
X56465Y-52061D02*
X56625Y-51661D01*
X56785Y-52061D01*
X57174Y-52061D02*
X56945Y-52061D01*
X56945Y-51661D01*
X57425Y-51661D02*
X57517Y-51661D01*
X57562Y-51680D01*
X57608Y-51719D01*
X57631Y-51795D01*
X57631Y-51928D01*
X57608Y-52004D01*
X57562Y-52042D01*
X57517Y-52061D01*
X57425Y-52061D01*
X57380Y-52042D01*
X57334Y-52004D01*
X57311Y-51928D01*
X57311Y-51795D01*
X57334Y-51719D01*
X57380Y-51680D01*
X57425Y-51661D01*
X58088Y-51680D02*
X58042Y-51661D01*
X57974Y-51661D01*
X57905Y-51680D01*
X57860Y-51719D01*
X57837Y-51757D01*
X57814Y-51833D01*
X57814Y-51890D01*
X57837Y-51966D01*
X57860Y-52004D01*
X57905Y-52042D01*
X57974Y-52061D01*
X58020Y-52061D01*
X58088Y-52042D01*
X58111Y-52023D01*
X58111Y-51890D01*
X58020Y-51890D01*
X58682Y-52061D02*
X58682Y-51661D01*
X58911Y-52061D02*
X58911Y-51661D01*
X59185Y-52061D01*
X59185Y-51661D01*
G54D14*
X46191Y-53216D02*
X45841Y-53216D01*
X45841Y-52983D02*
X45841Y-52916D01*
X45858Y-52883D01*
X45891Y-52850D01*
X45958Y-52833D01*
X46075Y-52833D01*
X46141Y-52850D01*
X46175Y-52883D01*
X46191Y-52916D01*
X46191Y-52983D01*
X46175Y-53016D01*
X46141Y-53050D01*
X46075Y-53066D01*
X45958Y-53066D01*
X45891Y-53050D01*
X45858Y-53016D01*
X45841Y-52983D01*
X46191Y-52483D02*
X46025Y-52600D01*
X46191Y-52683D02*
X45841Y-52683D01*
X45841Y-52550D01*
X45858Y-52516D01*
X45875Y-52500D01*
X45908Y-52483D01*
X45958Y-52483D01*
X45991Y-52500D01*
X46008Y-52516D01*
X46025Y-52550D01*
X46025Y-52683D01*
X46008Y-52333D02*
X46008Y-52216D01*
X46191Y-52166D02*
X46191Y-52333D01*
X45841Y-52333D01*
X45841Y-52166D01*
X46008Y-51900D02*
X46008Y-52016D01*
X46191Y-52016D02*
X45841Y-52016D01*
X45841Y-51850D01*
X47191Y-53016D02*
X47025Y-53133D01*
X47191Y-53216D02*
X46841Y-53216D01*
X46841Y-53083D01*
X46858Y-53050D01*
X46875Y-53033D01*
X46908Y-53016D01*
X46958Y-53016D01*
X46991Y-53033D01*
X47008Y-53050D01*
X47025Y-53083D01*
X47025Y-53216D01*
X47008Y-52866D02*
X47008Y-52750D01*
X47191Y-52700D02*
X47191Y-52866D01*
X46841Y-52866D01*
X46841Y-52700D01*
X47175Y-52566D02*
X47191Y-52516D01*
X47191Y-52433D01*
X47175Y-52400D01*
X47158Y-52383D01*
X47125Y-52366D01*
X47091Y-52366D01*
X47058Y-52383D01*
X47041Y-52400D01*
X47025Y-52433D01*
X47008Y-52500D01*
X46991Y-52533D01*
X46975Y-52550D01*
X46941Y-52566D01*
X46908Y-52566D01*
X46875Y-52550D01*
X46858Y-52533D01*
X46841Y-52500D01*
X46841Y-52416D01*
X46858Y-52366D01*
X47008Y-52216D02*
X47008Y-52100D01*
X47191Y-52050D02*
X47191Y-52216D01*
X46841Y-52216D01*
X46841Y-52050D01*
X46841Y-51950D02*
X46841Y-51750D01*
X47191Y-51850D02*
X46841Y-51850D01*
X47841Y-53250D02*
X47841Y-53033D01*
X47975Y-53150D01*
X47975Y-53100D01*
X47991Y-53066D01*
X48008Y-53050D01*
X48041Y-53033D01*
X48125Y-53033D01*
X48158Y-53050D01*
X48175Y-53066D01*
X48191Y-53100D01*
X48191Y-53200D01*
X48175Y-53233D01*
X48158Y-53250D01*
X48158Y-52883D02*
X48175Y-52866D01*
X48191Y-52883D01*
X48175Y-52900D01*
X48158Y-52883D01*
X48191Y-52883D01*
X47841Y-52750D02*
X47841Y-52533D01*
X47975Y-52650D01*
X47975Y-52600D01*
X47991Y-52566D01*
X48008Y-52550D01*
X48041Y-52533D01*
X48125Y-52533D01*
X48158Y-52550D01*
X48175Y-52566D01*
X48191Y-52600D01*
X48191Y-52700D01*
X48175Y-52733D01*
X48158Y-52750D01*
X47841Y-52433D02*
X48191Y-52316D01*
X47841Y-52200D01*
X48841Y-53050D02*
X48841Y-53216D01*
X49008Y-53233D01*
X48991Y-53216D01*
X48975Y-53183D01*
X48975Y-53100D01*
X48991Y-53066D01*
X49008Y-53050D01*
X49041Y-53033D01*
X49125Y-53033D01*
X49158Y-53050D01*
X49175Y-53066D01*
X49191Y-53100D01*
X49191Y-53183D01*
X49175Y-53216D01*
X49158Y-53233D01*
X48841Y-52933D02*
X49191Y-52816D01*
X48841Y-52700D01*
X49858Y-53033D02*
X49841Y-53066D01*
X49841Y-53116D01*
X49858Y-53166D01*
X49891Y-53200D01*
X49925Y-53216D01*
X49991Y-53233D01*
X50041Y-53233D01*
X50108Y-53216D01*
X50141Y-53200D01*
X50175Y-53166D01*
X50191Y-53116D01*
X50191Y-53083D01*
X50175Y-53033D01*
X50158Y-53016D01*
X50041Y-53016D01*
X50041Y-53083D01*
X50191Y-52866D02*
X49841Y-52866D01*
X50191Y-52666D01*
X49841Y-52666D01*
X50191Y-52500D02*
X49841Y-52500D01*
X49841Y-52416D01*
X49858Y-52366D01*
X49891Y-52333D01*
X49925Y-52316D01*
X49991Y-52300D01*
X50041Y-52300D01*
X50108Y-52316D01*
X50141Y-52333D01*
X50175Y-52366D01*
X50191Y-52416D01*
X50191Y-52500D01*
X50858Y-53033D02*
X50841Y-53066D01*
X50841Y-53116D01*
X50858Y-53166D01*
X50891Y-53200D01*
X50925Y-53216D01*
X50991Y-53233D01*
X51041Y-53233D01*
X51108Y-53216D01*
X51141Y-53200D01*
X51175Y-53166D01*
X51191Y-53116D01*
X51191Y-53083D01*
X51175Y-53033D01*
X51158Y-53016D01*
X51041Y-53016D01*
X51041Y-53083D01*
X51191Y-52866D02*
X50841Y-52866D01*
X51191Y-52666D01*
X50841Y-52666D01*
X51191Y-52500D02*
X50841Y-52500D01*
X50841Y-52416D01*
X50858Y-52366D01*
X50891Y-52333D01*
X50925Y-52316D01*
X50991Y-52300D01*
X51041Y-52300D01*
X51108Y-52316D01*
X51141Y-52333D01*
X51175Y-52366D01*
X51191Y-52416D01*
X51191Y-52500D01*
X51841Y-53266D02*
X52191Y-53150D01*
X51841Y-53033D01*
X52191Y-52916D02*
X51958Y-52916D01*
X51841Y-52916D02*
X51858Y-52933D01*
X51875Y-52916D01*
X51858Y-52900D01*
X51841Y-52916D01*
X51875Y-52916D01*
X51958Y-52750D02*
X52191Y-52750D01*
X51991Y-52750D02*
X51975Y-52733D01*
X51958Y-52700D01*
X51958Y-52650D01*
X51975Y-52616D01*
X52008Y-52600D01*
X52191Y-52600D01*
G54D12*
X54109Y-53204D02*
X54109Y-52966D01*
X54252Y-53252D02*
X53752Y-53085D01*
X54252Y-52919D01*
X53752Y-52657D02*
X53752Y-52609D01*
X53776Y-52561D01*
X53800Y-52538D01*
X53847Y-52514D01*
X53942Y-52490D01*
X54061Y-52490D01*
X54157Y-52514D01*
X54204Y-52538D01*
X54228Y-52561D01*
X54252Y-52609D01*
X54252Y-52657D01*
X54228Y-52704D01*
X54204Y-52728D01*
X54157Y-52752D01*
X54061Y-52776D01*
X53942Y-52776D01*
X53847Y-52752D01*
X53800Y-52728D01*
X53776Y-52704D01*
X53752Y-52657D01*
X55109Y-53204D02*
X55109Y-52966D01*
X55252Y-53252D02*
X54752Y-53085D01*
X55252Y-52919D01*
X55252Y-52490D02*
X55252Y-52776D01*
X55252Y-52633D02*
X54752Y-52633D01*
X54823Y-52680D01*
X54871Y-52728D01*
X54895Y-52776D01*
X56109Y-53204D02*
X56109Y-52966D01*
X56252Y-53252D02*
X55752Y-53085D01*
X56252Y-52919D01*
X55800Y-52776D02*
X55776Y-52752D01*
X55752Y-52704D01*
X55752Y-52585D01*
X55776Y-52538D01*
X55800Y-52514D01*
X55847Y-52490D01*
X55895Y-52490D01*
X55966Y-52514D01*
X56252Y-52800D01*
X56252Y-52490D01*
X57109Y-53204D02*
X57109Y-52966D01*
X57252Y-53252D02*
X56752Y-53085D01*
X57252Y-52919D01*
X56752Y-52800D02*
X56752Y-52490D01*
X56942Y-52657D01*
X56942Y-52585D01*
X56966Y-52538D01*
X56990Y-52514D01*
X57038Y-52490D01*
X57157Y-52490D01*
X57204Y-52514D01*
X57228Y-52538D01*
X57252Y-52585D01*
X57252Y-52728D01*
X57228Y-52776D01*
X57204Y-52800D01*
X58109Y-53204D02*
X58109Y-52966D01*
X58252Y-53252D02*
X57752Y-53085D01*
X58252Y-52919D01*
X57919Y-52538D02*
X58252Y-52538D01*
X57728Y-52657D02*
X58085Y-52776D01*
X58085Y-52466D01*
X59109Y-53204D02*
X59109Y-52966D01*
X59252Y-53252D02*
X58752Y-53085D01*
X59252Y-52919D01*
X58752Y-52514D02*
X58752Y-52752D01*
X58990Y-52776D01*
X58966Y-52752D01*
X58942Y-52704D01*
X58942Y-52585D01*
X58966Y-52538D01*
X58990Y-52514D01*
X59038Y-52490D01*
X59157Y-52490D01*
X59204Y-52514D01*
X59228Y-52538D01*
X59252Y-52585D01*
X59252Y-52704D01*
X59228Y-52752D01*
X59204Y-52776D01*
G54D14*
X51459Y-46216D02*
X51645Y-46216D01*
X51422Y-46316D02*
X51552Y-45966D01*
X51682Y-46316D01*
X52035Y-46316D02*
X51905Y-46150D01*
X51812Y-46316D02*
X51812Y-45966D01*
X51960Y-45966D01*
X51997Y-45983D01*
X52016Y-46000D01*
X52035Y-46033D01*
X52035Y-46083D01*
X52016Y-46116D01*
X51997Y-46133D01*
X51960Y-46150D01*
X51812Y-46150D01*
X52202Y-46316D02*
X52202Y-45966D01*
X52295Y-45966D01*
X52350Y-45983D01*
X52387Y-46016D01*
X52406Y-46050D01*
X52425Y-46116D01*
X52425Y-46166D01*
X52406Y-46233D01*
X52387Y-46266D01*
X52350Y-46300D01*
X52295Y-46316D01*
X52202Y-46316D01*
X52592Y-45966D02*
X52592Y-46250D01*
X52610Y-46283D01*
X52629Y-46300D01*
X52666Y-46316D01*
X52740Y-46316D01*
X52777Y-46300D01*
X52796Y-46283D01*
X52815Y-46250D01*
X52815Y-45966D01*
X53000Y-46316D02*
X53000Y-45966D01*
X53186Y-46316D02*
X53186Y-45966D01*
X53409Y-46316D01*
X53409Y-45966D01*
X53669Y-45966D02*
X53743Y-45966D01*
X53780Y-45983D01*
X53817Y-46016D01*
X53836Y-46083D01*
X53836Y-46200D01*
X53817Y-46266D01*
X53780Y-46300D01*
X53743Y-46316D01*
X53669Y-46316D01*
X53632Y-46300D01*
X53595Y-46266D01*
X53576Y-46200D01*
X53576Y-46083D01*
X53595Y-46016D01*
X53632Y-45983D01*
X53669Y-45966D01*
X54895Y-45966D02*
X54895Y-46250D01*
X54913Y-46283D01*
X54932Y-46300D01*
X54969Y-46316D01*
X55043Y-46316D01*
X55080Y-46300D01*
X55099Y-46283D01*
X55117Y-46250D01*
X55117Y-45966D01*
X55303Y-46316D02*
X55303Y-45966D01*
X55526Y-46316D01*
X55526Y-45966D01*
X55786Y-45966D02*
X55860Y-45966D01*
X55897Y-45983D01*
X55935Y-46016D01*
X55953Y-46083D01*
X55953Y-46200D01*
X55935Y-46266D01*
X55897Y-46300D01*
X55860Y-46316D01*
X55786Y-46316D01*
X55749Y-46300D01*
X55712Y-46266D01*
X55693Y-46200D01*
X55693Y-46083D01*
X55712Y-46016D01*
X55749Y-45983D01*
X55786Y-45966D01*
X56417Y-46183D02*
X56715Y-46183D01*
X57420Y-46283D02*
X57402Y-46300D01*
X57346Y-46316D01*
X57309Y-46316D01*
X57253Y-46300D01*
X57216Y-46266D01*
X57197Y-46233D01*
X57179Y-46166D01*
X57179Y-46116D01*
X57197Y-46050D01*
X57216Y-46016D01*
X57253Y-45983D01*
X57309Y-45966D01*
X57346Y-45966D01*
X57402Y-45983D01*
X57420Y-46000D01*
X57662Y-45966D02*
X57736Y-45966D01*
X57773Y-45983D01*
X57810Y-46016D01*
X57829Y-46083D01*
X57829Y-46200D01*
X57810Y-46266D01*
X57773Y-46300D01*
X57736Y-46316D01*
X57662Y-46316D01*
X57625Y-46300D01*
X57587Y-46266D01*
X57569Y-46200D01*
X57569Y-46083D01*
X57587Y-46016D01*
X57625Y-45983D01*
X57662Y-45966D01*
X57996Y-46316D02*
X57996Y-45966D01*
X58126Y-46216D01*
X58256Y-45966D01*
X58256Y-46316D01*
X58442Y-46316D02*
X58442Y-45966D01*
X58590Y-45966D01*
X58627Y-45983D01*
X58646Y-46000D01*
X58664Y-46033D01*
X58664Y-46083D01*
X58646Y-46116D01*
X58627Y-46133D01*
X58590Y-46150D01*
X58442Y-46150D01*
X58813Y-46216D02*
X58999Y-46216D01*
X58776Y-46316D02*
X58906Y-45966D01*
X59036Y-46316D01*
X59110Y-45966D02*
X59333Y-45966D01*
X59222Y-46316D02*
X59222Y-45966D01*
X59463Y-46316D02*
X59463Y-45966D01*
X59779Y-46133D02*
X59834Y-46150D01*
X59853Y-46166D01*
X59872Y-46200D01*
X59872Y-46250D01*
X59853Y-46283D01*
X59834Y-46300D01*
X59797Y-46316D01*
X59649Y-46316D01*
X59649Y-45966D01*
X59779Y-45966D01*
X59816Y-45983D01*
X59834Y-46000D01*
X59853Y-46033D01*
X59853Y-46066D01*
X59834Y-46100D01*
X59816Y-46116D01*
X59779Y-46133D01*
X59649Y-46133D01*
X60224Y-46316D02*
X60039Y-46316D01*
X60039Y-45966D01*
X60354Y-46133D02*
X60484Y-46133D01*
X60540Y-46316D02*
X60354Y-46316D01*
X60354Y-45966D01*
X60540Y-45966D01*
X41575Y-36600D02*
X41591Y-36550D01*
X41591Y-36466D01*
X41575Y-36433D01*
X41558Y-36416D01*
X41525Y-36400D01*
X41491Y-36400D01*
X41458Y-36416D01*
X41441Y-36433D01*
X41425Y-36466D01*
X41408Y-36533D01*
X41391Y-36566D01*
X41375Y-36583D01*
X41341Y-36600D01*
X41308Y-36600D01*
X41275Y-36583D01*
X41258Y-36566D01*
X41241Y-36533D01*
X41241Y-36450D01*
X41258Y-36400D01*
X41558Y-36050D02*
X41575Y-36066D01*
X41591Y-36116D01*
X41591Y-36150D01*
X41575Y-36200D01*
X41541Y-36233D01*
X41508Y-36250D01*
X41441Y-36266D01*
X41391Y-36266D01*
X41325Y-36250D01*
X41291Y-36233D01*
X41258Y-36200D01*
X41241Y-36150D01*
X41241Y-36116D01*
X41258Y-36066D01*
X41275Y-36050D01*
X41591Y-35733D02*
X41591Y-35900D01*
X41241Y-35900D01*
X42575Y-36616D02*
X42591Y-36566D01*
X42591Y-36483D01*
X42575Y-36450D01*
X42558Y-36433D01*
X42525Y-36416D01*
X42491Y-36416D01*
X42458Y-36433D01*
X42441Y-36450D01*
X42425Y-36483D01*
X42408Y-36550D01*
X42391Y-36583D01*
X42375Y-36600D01*
X42341Y-36616D01*
X42308Y-36616D01*
X42275Y-36600D01*
X42258Y-36583D01*
X42241Y-36550D01*
X42241Y-36466D01*
X42258Y-36416D01*
X42591Y-36266D02*
X42241Y-36266D01*
X42241Y-36183D01*
X42258Y-36133D01*
X42291Y-36100D01*
X42325Y-36083D01*
X42391Y-36066D01*
X42441Y-36066D01*
X42508Y-36083D01*
X42541Y-36100D01*
X42575Y-36133D01*
X42591Y-36183D01*
X42591Y-36266D01*
X42491Y-35933D02*
X42491Y-35766D01*
X42591Y-35966D02*
X42241Y-35850D01*
X42591Y-35733D01*
X59191Y-37216D02*
X59025Y-37333D01*
X59191Y-37416D02*
X58841Y-37416D01*
X58841Y-37283D01*
X58858Y-37250D01*
X58875Y-37233D01*
X58908Y-37216D01*
X58958Y-37216D01*
X58991Y-37233D01*
X59008Y-37250D01*
X59025Y-37283D01*
X59025Y-37416D01*
X58841Y-37100D02*
X59191Y-36866D01*
X58841Y-36866D02*
X59191Y-37100D01*
X57841Y-37416D02*
X57841Y-37216D01*
X58191Y-37316D02*
X57841Y-37316D01*
X57841Y-37133D02*
X58191Y-36900D01*
X57841Y-36900D02*
X58191Y-37133D01*
G54D12*
X58752Y-35961D02*
X58752Y-35914D01*
X58776Y-35866D01*
X58800Y-35842D01*
X58847Y-35819D01*
X58942Y-35795D01*
X59061Y-35795D01*
X59157Y-35819D01*
X59204Y-35842D01*
X59228Y-35866D01*
X59252Y-35914D01*
X59252Y-35961D01*
X59228Y-36009D01*
X59204Y-36033D01*
X59157Y-36057D01*
X59061Y-36080D01*
X58942Y-36080D01*
X58847Y-36057D01*
X58800Y-36033D01*
X58776Y-36009D01*
X58752Y-35961D01*
X58252Y-35795D02*
X58252Y-36080D01*
X58252Y-35938D02*
X57752Y-35938D01*
X57823Y-35985D01*
X57871Y-36033D01*
X57895Y-36080D01*
X56800Y-36080D02*
X56776Y-36057D01*
X56752Y-36009D01*
X56752Y-35890D01*
X56776Y-35842D01*
X56800Y-35819D01*
X56847Y-35795D01*
X56895Y-35795D01*
X56966Y-35819D01*
X57252Y-36104D01*
X57252Y-35795D01*
X55752Y-36104D02*
X55752Y-35795D01*
X55942Y-35961D01*
X55942Y-35890D01*
X55966Y-35842D01*
X55990Y-35819D01*
X56038Y-35795D01*
X56157Y-35795D01*
X56204Y-35819D01*
X56228Y-35842D01*
X56252Y-35890D01*
X56252Y-36033D01*
X56228Y-36080D01*
X56204Y-36104D01*
X54919Y-35842D02*
X55252Y-35842D01*
X54728Y-35961D02*
X55085Y-36080D01*
X55085Y-35771D01*
X53752Y-35819D02*
X53752Y-36057D01*
X53990Y-36080D01*
X53966Y-36057D01*
X53942Y-36009D01*
X53942Y-35890D01*
X53966Y-35842D01*
X53990Y-35819D01*
X54038Y-35795D01*
X54157Y-35795D01*
X54204Y-35819D01*
X54228Y-35842D01*
X54252Y-35890D01*
X54252Y-36009D01*
X54228Y-36057D01*
X54204Y-36080D01*
X52752Y-35842D02*
X52752Y-35938D01*
X52776Y-35985D01*
X52800Y-36009D01*
X52871Y-36057D01*
X52966Y-36080D01*
X53157Y-36080D01*
X53204Y-36057D01*
X53228Y-36033D01*
X53252Y-35985D01*
X53252Y-35890D01*
X53228Y-35842D01*
X53204Y-35819D01*
X53157Y-35795D01*
X53038Y-35795D01*
X52990Y-35819D01*
X52966Y-35842D01*
X52942Y-35890D01*
X52942Y-35985D01*
X52966Y-36033D01*
X52990Y-36057D01*
X53038Y-36080D01*
X51752Y-36104D02*
X51752Y-35771D01*
X52252Y-35985D01*
X50366Y-35985D02*
X50342Y-36033D01*
X50319Y-36057D01*
X50271Y-36080D01*
X50247Y-36080D01*
X50200Y-36057D01*
X50176Y-36033D01*
X50152Y-35985D01*
X50152Y-35890D01*
X50176Y-35842D01*
X50200Y-35819D01*
X50247Y-35795D01*
X50271Y-35795D01*
X50319Y-35819D01*
X50342Y-35842D01*
X50366Y-35890D01*
X50366Y-35985D01*
X50390Y-36033D01*
X50414Y-36057D01*
X50461Y-36080D01*
X50557Y-36080D01*
X50604Y-36057D01*
X50628Y-36033D01*
X50652Y-35985D01*
X50652Y-35890D01*
X50628Y-35842D01*
X50604Y-35819D01*
X50557Y-35795D01*
X50461Y-35795D01*
X50414Y-35819D01*
X50390Y-35842D01*
X50366Y-35890D01*
X49652Y-36033D02*
X49652Y-35938D01*
X49628Y-35890D01*
X49604Y-35866D01*
X49533Y-35819D01*
X49438Y-35795D01*
X49247Y-35795D01*
X49200Y-35819D01*
X49176Y-35842D01*
X49152Y-35890D01*
X49152Y-35985D01*
X49176Y-36033D01*
X49200Y-36057D01*
X49247Y-36080D01*
X49366Y-36080D01*
X49414Y-36057D01*
X49438Y-36033D01*
X49461Y-35985D01*
X49461Y-35890D01*
X49438Y-35842D01*
X49414Y-35819D01*
X49366Y-35795D01*
X48652Y-36271D02*
X48652Y-36557D01*
X48652Y-36414D02*
X48152Y-36414D01*
X48223Y-36461D01*
X48271Y-36509D01*
X48295Y-36557D01*
X48152Y-35961D02*
X48152Y-35914D01*
X48176Y-35866D01*
X48200Y-35842D01*
X48247Y-35819D01*
X48342Y-35795D01*
X48461Y-35795D01*
X48557Y-35819D01*
X48604Y-35842D01*
X48628Y-35866D01*
X48652Y-35914D01*
X48652Y-35961D01*
X48628Y-36009D01*
X48604Y-36033D01*
X48557Y-36057D01*
X48461Y-36080D01*
X48342Y-36080D01*
X48247Y-36057D01*
X48200Y-36033D01*
X48176Y-36009D01*
X48152Y-35961D01*
X47652Y-36271D02*
X47652Y-36557D01*
X47652Y-36414D02*
X47152Y-36414D01*
X47223Y-36461D01*
X47271Y-36509D01*
X47295Y-36557D01*
X47652Y-35795D02*
X47652Y-36080D01*
X47652Y-35938D02*
X47152Y-35938D01*
X47223Y-35985D01*
X47271Y-36033D01*
X47295Y-36080D01*
X46652Y-36271D02*
X46652Y-36557D01*
X46652Y-36414D02*
X46152Y-36414D01*
X46223Y-36461D01*
X46271Y-36509D01*
X46295Y-36557D01*
X46200Y-36080D02*
X46176Y-36057D01*
X46152Y-36009D01*
X46152Y-35890D01*
X46176Y-35842D01*
X46200Y-35819D01*
X46247Y-35795D01*
X46295Y-35795D01*
X46366Y-35819D01*
X46652Y-36104D01*
X46652Y-35795D01*
X45652Y-36271D02*
X45652Y-36557D01*
X45652Y-36414D02*
X45152Y-36414D01*
X45223Y-36461D01*
X45271Y-36509D01*
X45295Y-36557D01*
X45152Y-36104D02*
X45152Y-35795D01*
X45342Y-35961D01*
X45342Y-35890D01*
X45366Y-35842D01*
X45390Y-35819D01*
X45438Y-35795D01*
X45557Y-35795D01*
X45604Y-35819D01*
X45628Y-35842D01*
X45652Y-35890D01*
X45652Y-36033D01*
X45628Y-36080D01*
X45604Y-36104D01*
X44230Y-36614D02*
X44211Y-36652D01*
X44211Y-36709D01*
X44230Y-36766D01*
X44269Y-36804D01*
X44307Y-36823D01*
X44383Y-36842D01*
X44440Y-36842D01*
X44516Y-36823D01*
X44554Y-36804D01*
X44592Y-36766D01*
X44611Y-36709D01*
X44611Y-36671D01*
X44592Y-36614D01*
X44573Y-36595D01*
X44440Y-36595D01*
X44440Y-36671D01*
X44611Y-36423D02*
X44211Y-36423D01*
X44611Y-36195D01*
X44211Y-36195D01*
X44611Y-36004D02*
X44211Y-36004D01*
X44211Y-35909D01*
X44230Y-35852D01*
X44269Y-35814D01*
X44307Y-35795D01*
X44383Y-35776D01*
X44440Y-35776D01*
X44516Y-35795D01*
X44554Y-35814D01*
X44592Y-35852D01*
X44611Y-35909D01*
X44611Y-36004D01*
X43497Y-37071D02*
X43497Y-36880D01*
X43611Y-37109D02*
X43211Y-36976D01*
X43611Y-36842D01*
X43611Y-36480D02*
X43421Y-36614D01*
X43611Y-36709D02*
X43211Y-36709D01*
X43211Y-36557D01*
X43230Y-36519D01*
X43250Y-36500D01*
X43288Y-36480D01*
X43345Y-36480D01*
X43383Y-36500D01*
X43402Y-36519D01*
X43421Y-36557D01*
X43421Y-36709D01*
X43402Y-36309D02*
X43402Y-36176D01*
X43611Y-36119D02*
X43611Y-36309D01*
X43211Y-36309D01*
X43211Y-36119D01*
X43402Y-35814D02*
X43402Y-35947D01*
X43611Y-35947D02*
X43211Y-35947D01*
X43211Y-35757D01*
G54D15*
X59250Y-37650D02*
X45150Y-37650D01*
X52250Y-51450D02*
X47750Y-51450D01*
X59250Y-51450D02*
X53750Y-51450D01*
G54D16*
X34000Y-34000D02*
X34000Y-55000D01*
X59400Y-34000D02*
X34000Y-34000D01*
X60000Y-34600D02*
X59400Y-34000D01*
X60000Y-39100D02*
X60000Y-34600D01*
X61000Y-40100D02*
X60000Y-39100D01*
X61000Y-53000D02*
X61000Y-40100D01*
X60000Y-54000D02*
X61000Y-53000D01*
X60000Y-55000D02*
X60000Y-54000D01*
X34000Y-55000D02*
X60000Y-55000D01*
G54D13*
X41584Y-42096D02*
X41584Y-38001D01*
X39537Y-38001D02*
X39537Y-42096D01*
X39537Y-38001D02*
X41584Y-38001D01*
X41584Y-42096D02*
X39537Y-42096D01*
X41377Y-41631D02*
G75*
G03X41377Y-41631I-196J0D01*
G74*
G01*
X57150Y-42250D02*
X54850Y-42250D01*
X57150Y-43250D02*
X54850Y-43250D01*
X54850Y-43250D02*
X54850Y-42250D01*
X57150Y-43250D02*
X57150Y-42250D01*
X43850Y-42000D02*
X46150Y-42000D01*
X43850Y-41000D02*
X46150Y-41000D01*
X46150Y-41000D02*
X46150Y-42000D01*
X43850Y-41000D02*
X43850Y-42000D01*
X43850Y-40500D02*
X46150Y-40500D01*
X43850Y-39500D02*
X46150Y-39500D01*
X46150Y-39500D02*
X46150Y-40500D01*
X43850Y-39500D02*
X43850Y-40500D01*
X57150Y-41000D02*
X54850Y-41000D01*
X57150Y-42000D02*
X54850Y-42000D01*
X54850Y-42000D02*
X54850Y-41000D01*
X57150Y-42000D02*
X57150Y-41000D01*
X43850Y-45750D02*
X46150Y-45750D01*
X43850Y-44750D02*
X46150Y-44750D01*
X46150Y-44750D02*
X46150Y-45750D01*
X43850Y-44750D02*
X43850Y-45750D01*
X43850Y-44500D02*
X46150Y-44500D01*
X43850Y-43500D02*
X46150Y-43500D01*
X46150Y-43500D02*
X46150Y-44500D01*
X43850Y-43500D02*
X43850Y-44500D01*
X54850Y-44500D02*
X57150Y-44500D01*
X54850Y-43500D02*
X57150Y-43500D01*
X57150Y-43500D02*
X57150Y-44500D01*
X54850Y-43500D02*
X54850Y-44500D01*
X41000Y-54000D02*
X41500Y-54000D01*
X44000Y-54000D02*
X43500Y-54000D01*
X43450Y-53500D02*
X43450Y-54500D01*
X43400Y-53500D02*
X43400Y-54500D01*
X43350Y-53500D02*
X43350Y-54500D01*
X43300Y-53500D02*
X43300Y-54500D01*
X43250Y-53500D02*
X43250Y-54500D01*
X43200Y-53500D02*
X43200Y-54500D01*
X43150Y-53500D02*
X43150Y-54500D01*
X43100Y-53500D02*
X43100Y-54500D01*
X43500Y-53500D02*
X43500Y-54500D01*
X41500Y-54500D02*
X43500Y-54500D01*
X41500Y-53500D02*
X43500Y-53500D01*
X41500Y-53500D02*
X41500Y-54500D01*
X48450Y-43750D02*
X48450Y-43250D01*
X48600Y-42850D02*
X48450Y-43250D01*
X49000Y-42600D02*
X48600Y-42850D01*
X48600Y-44150D02*
X48450Y-43750D01*
X49000Y-44400D02*
X48600Y-44150D01*
X52000Y-44400D02*
X52400Y-44150D01*
X52400Y-44150D02*
X52550Y-43750D01*
X52000Y-42600D02*
X52400Y-42850D01*
X52400Y-42850D02*
X52550Y-43250D01*
X49000Y-42600D02*
X52000Y-42600D01*
X52000Y-44400D02*
X49000Y-44400D01*
X52550Y-43750D02*
X52550Y-43250D01*
X51650Y-45750D02*
X52350Y-45750D01*
X51650Y-44750D02*
X52350Y-44750D01*
X52750Y-45450D02*
X52350Y-45750D01*
X51250Y-45450D02*
X51650Y-45750D01*
X52750Y-45050D02*
X52350Y-44750D01*
X51250Y-45050D02*
X51650Y-44750D01*
X51250Y-45050D02*
X51250Y-45425D01*
X51250Y-45075D02*
X51250Y-45425D01*
X52750Y-45075D02*
X52750Y-45425D01*
X49350Y-44750D02*
X48650Y-44750D01*
X49350Y-45750D02*
X48650Y-45750D01*
X48250Y-45050D02*
X48650Y-44750D01*
X49750Y-45050D02*
X49350Y-44750D01*
X48250Y-45450D02*
X48650Y-45750D01*
X49750Y-45450D02*
X49350Y-45750D01*
X49750Y-45450D02*
X49750Y-45075D01*
X49750Y-45425D02*
X49750Y-45075D01*
X48250Y-45425D02*
X48250Y-45075D01*
G54D17*
X39000Y-42750D02*
X40000Y-42750D01*
X40000Y-42750D02*
X40000Y-45750D01*
X40000Y-45750D02*
X39000Y-45750D01*
X39000Y-45750D02*
X39000Y-42750D01*
X54500Y-45750D02*
X54500Y-44750D01*
X54500Y-44750D02*
X57500Y-44750D01*
X57500Y-44750D02*
X57500Y-45750D01*
X57500Y-45750D02*
X54500Y-45750D01*
X39500Y-37800D02*
X39500Y-36800D01*
X39500Y-36800D02*
X42500Y-36800D01*
X42500Y-36800D02*
X42500Y-37800D01*
X42500Y-37800D02*
X39500Y-37800D01*
X44250Y-49500D02*
X43250Y-49500D01*
X43250Y-49500D02*
X43250Y-46500D01*
X43250Y-46500D02*
X44250Y-46500D01*
X44250Y-46500D02*
X44250Y-49500D01*
G54D13*
X37750Y-37750D02*
X37750Y-42250D01*
X31500Y-37750D02*
X31500Y-42250D01*
X37750Y-42250D02*
X31500Y-42250D01*
X37750Y-37750D02*
X31500Y-37750D01*
X33250Y-50000D02*
X38750Y-50000D01*
X38750Y-50000D02*
X38750Y-53500D01*
X38750Y-53500D02*
X33250Y-53500D01*
X33250Y-53500D02*
X33250Y-50000D01*
X60300Y-42500D02*
X60550Y-42750D01*
X60550Y-42750D02*
X60550Y-43250D01*
X60550Y-43250D02*
X60300Y-43500D01*
X60300Y-43500D02*
X60550Y-43750D01*
X60550Y-43750D02*
X60550Y-44250D01*
X60550Y-44250D02*
X60300Y-44500D01*
X60300Y-44500D02*
X60550Y-44750D01*
X60550Y-44750D02*
X60550Y-45250D01*
X60550Y-45250D02*
X60300Y-45500D01*
X60300Y-45500D02*
X58800Y-45500D01*
X58800Y-45500D02*
X58550Y-45250D01*
X58550Y-45250D02*
X58550Y-44750D01*
X58550Y-44750D02*
X58800Y-44500D01*
X58800Y-44500D02*
X58550Y-44250D01*
X58550Y-44250D02*
X58550Y-43750D01*
X58550Y-43750D02*
X58800Y-43500D01*
X58800Y-43500D02*
X58550Y-43250D01*
X58550Y-43250D02*
X58550Y-42750D01*
X58550Y-42750D02*
X58800Y-42500D01*
X58800Y-42500D02*
X60300Y-42500D01*
X50900Y-35500D02*
X40900Y-35500D01*
X40900Y-35500D02*
X40900Y-34500D01*
X40900Y-34500D02*
X50900Y-34500D01*
X50900Y-34500D02*
X50900Y-35500D01*
X37000Y-45750D02*
X37500Y-45750D01*
X37000Y-42750D02*
X37500Y-42750D01*
X37000Y-45750D02*
X36750Y-45500D01*
X36750Y-45500D02*
X36750Y-45000D01*
X36750Y-45000D02*
X37000Y-44750D01*
X37000Y-44750D02*
X36750Y-44500D01*
X36750Y-44500D02*
X36750Y-44000D01*
X36750Y-44000D02*
X37000Y-43750D01*
X37000Y-43750D02*
X36750Y-43500D01*
X36750Y-43500D02*
X36750Y-43000D01*
X36750Y-43000D02*
X37000Y-42750D01*
X37500Y-42750D02*
X37750Y-43000D01*
X37750Y-43000D02*
X37750Y-43500D01*
X37750Y-43500D02*
X37500Y-43750D01*
X37500Y-43750D02*
X37750Y-44000D01*
X37750Y-44000D02*
X37750Y-44500D01*
X37750Y-44500D02*
X37500Y-44750D01*
X37500Y-44750D02*
X37750Y-45000D01*
X37750Y-45000D02*
X37750Y-45500D01*
X37750Y-45500D02*
X37500Y-45750D01*
X46150Y-38000D02*
X43850Y-38000D01*
X46150Y-39000D02*
X43850Y-39000D01*
X43850Y-39000D02*
X43850Y-38000D01*
X46150Y-39000D02*
X46150Y-38000D01*
X59500Y-35500D02*
X51500Y-35500D01*
X51500Y-35500D02*
X51500Y-34500D01*
X51500Y-34500D02*
X59500Y-34500D01*
X59500Y-34500D02*
X59500Y-35500D01*
X52500Y-54500D02*
X44500Y-54500D01*
X44500Y-54500D02*
X44500Y-53500D01*
X44500Y-53500D02*
X52500Y-53500D01*
X52500Y-53500D02*
X52500Y-54500D01*
X59500Y-54500D02*
X53500Y-54500D01*
X53500Y-54500D02*
X53500Y-53500D01*
X53500Y-53500D02*
X59500Y-53500D01*
X59500Y-53500D02*
X59500Y-54500D01*
G54D17*
X42000Y-45750D02*
X41000Y-45750D01*
X41000Y-45750D02*
X41000Y-42750D01*
X41000Y-42750D02*
X42000Y-42750D01*
X42000Y-42750D02*
X42000Y-45750D01*
G54D13*
X40250Y-52300D02*
X44750Y-52300D01*
X44750Y-52250D02*
X40250Y-52250D01*
X40250Y-52450D02*
X44750Y-52450D01*
X44750Y-52400D02*
X40250Y-52400D01*
X40250Y-52350D02*
X44750Y-52350D01*
X40250Y-50500D02*
X40250Y-52500D01*
X40250Y-52500D02*
X44750Y-52500D01*
X44750Y-52500D02*
X44750Y-50500D01*
X44750Y-50500D02*
X40250Y-50500D01*
X49250Y-37950D02*
X49250Y-39050D01*
X49300Y-38000D02*
X49300Y-39000D01*
X49350Y-38050D02*
X49350Y-38950D01*
X49400Y-38150D02*
X49400Y-38850D01*
X49450Y-38300D02*
X49450Y-38700D01*
X49500Y-38500D02*
G75*
G03X49500Y-38500I-750J0D01*
G74*
G01*
X48250Y-40550D02*
X48250Y-39450D01*
X48200Y-40500D02*
X48200Y-39500D01*
X48150Y-40450D02*
X48150Y-39550D01*
X48100Y-40350D02*
X48100Y-39650D01*
X48050Y-40200D02*
X48050Y-39800D01*
X49500Y-40000D02*
G75*
G03X49500Y-40000I-750J0D01*
G74*
G01*
X48250Y-42050D02*
X48250Y-40950D01*
X48200Y-42000D02*
X48200Y-41000D01*
X48150Y-41950D02*
X48150Y-41050D01*
X48100Y-41850D02*
X48100Y-41150D01*
X48050Y-41700D02*
X48050Y-41300D01*
X49500Y-41500D02*
G75*
G03X49500Y-41500I-750J0D01*
G74*
G01*
X58500Y-39450D02*
X58500Y-40550D01*
X58550Y-39500D02*
X58550Y-40500D01*
X58600Y-39550D02*
X58600Y-40450D01*
X58650Y-39650D02*
X58650Y-40350D01*
X58700Y-39800D02*
X58700Y-40200D01*
X58750Y-40000D02*
G75*
G03X58750Y-40000I-750J0D01*
G74*
G01*
X59750Y-48250D02*
X59750Y-47250D01*
X59750Y-49750D02*
X59750Y-48750D01*
X45250Y-47250D02*
X59750Y-47250D01*
X59750Y-49750D02*
X45250Y-49750D01*
X59750Y-48750D02*
X59500Y-48750D01*
X59500Y-48750D02*
X59500Y-48250D01*
X59500Y-48250D02*
X59750Y-48250D01*
X45250Y-49750D02*
X45250Y-47250D01*
G54D17*
X37450Y-50000D02*
X37450Y-46000D01*
X37400Y-46000D02*
X37400Y-50000D01*
X37350Y-50000D02*
X37350Y-46000D01*
X37300Y-46000D02*
X37300Y-50000D01*
X37250Y-50000D02*
X37250Y-46000D01*
X37200Y-46000D02*
X37200Y-50000D01*
X37150Y-50000D02*
X37150Y-46000D01*
X37100Y-46000D02*
X37100Y-50000D01*
X37050Y-50000D02*
X37050Y-46000D01*
X36000Y-50000D02*
X36000Y-46000D01*
X35950Y-46000D02*
X35950Y-50000D01*
X35900Y-50000D02*
X35900Y-46000D01*
X35850Y-46000D02*
X35850Y-50000D01*
X35800Y-50000D02*
X35800Y-46000D01*
X35550Y-50000D02*
X35550Y-46000D01*
X35600Y-46000D02*
X35600Y-50000D01*
X35650Y-50000D02*
X35650Y-46000D01*
X35700Y-46000D02*
X35700Y-50000D01*
X35750Y-50000D02*
X35750Y-46000D01*
X35250Y-50000D02*
X35250Y-46000D01*
X35200Y-46000D02*
X35200Y-50000D01*
X35150Y-50000D02*
X35150Y-46000D01*
X35100Y-46000D02*
X35100Y-50000D01*
X35050Y-50000D02*
X35050Y-46000D01*
X35300Y-50000D02*
X35300Y-46000D01*
X35350Y-46000D02*
X35350Y-50000D01*
X35400Y-50000D02*
X35400Y-46000D01*
X35450Y-46000D02*
X35450Y-50000D01*
X35500Y-50000D02*
X35500Y-46000D01*
X36500Y-50000D02*
X36500Y-46000D01*
X36450Y-46000D02*
X36450Y-50000D01*
X36400Y-50000D02*
X36400Y-46000D01*
X36350Y-46000D02*
X36350Y-50000D01*
X36300Y-50000D02*
X36300Y-46000D01*
X36050Y-50000D02*
X36050Y-46000D01*
X36100Y-46000D02*
X36100Y-50000D01*
X36150Y-50000D02*
X36150Y-46000D01*
X36200Y-46000D02*
X36200Y-50000D01*
X36250Y-50000D02*
X36250Y-46000D01*
X36750Y-50000D02*
X36750Y-46000D01*
X36700Y-46000D02*
X36700Y-50000D01*
X36650Y-50000D02*
X36650Y-46000D01*
X36600Y-46000D02*
X36600Y-50000D01*
X36550Y-50000D02*
X36550Y-46000D01*
X36800Y-50000D02*
X36800Y-46000D01*
X36850Y-46000D02*
X36850Y-50000D01*
X36900Y-50000D02*
X36900Y-46000D01*
X36950Y-46000D02*
X36950Y-50000D01*
X37000Y-50000D02*
X37000Y-46000D01*
X37500Y-50000D02*
X37500Y-46000D01*
X35000Y-50000D02*
X41000Y-50000D01*
X41000Y-50000D02*
X41000Y-46000D01*
X41000Y-46000D02*
X35000Y-46000D01*
X35000Y-46000D02*
X35000Y-50000D01*
G54D18*
G36*
X50996Y-41642D02*
X50995Y-41657D01*
X50991Y-41667D01*
X50984Y-41677D01*
X50976Y-41685D01*
X50971Y-41690D01*
X50970Y-41691D01*
X50966Y-41692D01*
X50957Y-41694D01*
X50957Y-41694D01*
X50944Y-41696D01*
X50933Y-41695D01*
X50913Y-41686D01*
X50899Y-41671D01*
X50892Y-41654D01*
X50891Y-41634D01*
X50898Y-41616D01*
X50908Y-41602D01*
X50921Y-41594D01*
X50939Y-41590D01*
X50945Y-41590D01*
X50959Y-41591D01*
X50969Y-41593D01*
X50977Y-41600D01*
X50982Y-41606D01*
X50991Y-41617D01*
X50995Y-41627D01*
X50996Y-41641D01*
X50996Y-41642D01*
X50996Y-41642D01*
X50996Y-41642D01*
G37*
G36*
X51169Y-41647D02*
X51164Y-41665D01*
X51153Y-41680D01*
X51139Y-41691D01*
X51122Y-41696D01*
X51105Y-41695D01*
X51084Y-41686D01*
X51071Y-41672D01*
X51064Y-41654D01*
X51063Y-41643D01*
X51066Y-41621D01*
X51076Y-41605D01*
X51092Y-41594D01*
X51113Y-41590D01*
X51116Y-41590D01*
X51137Y-41594D01*
X51154Y-41604D01*
X51165Y-41620D01*
X51168Y-41628D01*
X51169Y-41647D01*
X51169Y-41647D01*
X51169Y-41647D01*
G37*
G36*
X51343Y-41638D02*
X51341Y-41656D01*
X51337Y-41665D01*
X51324Y-41682D01*
X51307Y-41693D01*
X51288Y-41696D01*
X51271Y-41693D01*
X51253Y-41683D01*
X51242Y-41668D01*
X51236Y-41651D01*
X51237Y-41631D01*
X51244Y-41613D01*
X51251Y-41603D01*
X51259Y-41596D01*
X51267Y-41592D01*
X51278Y-41590D01*
X51288Y-41590D01*
X51303Y-41591D01*
X51312Y-41593D01*
X51319Y-41598D01*
X51323Y-41602D01*
X51337Y-41620D01*
X51343Y-41638D01*
X51343Y-41638D01*
X51343Y-41638D01*
G37*
G36*
X51515Y-41643D02*
X51511Y-41662D01*
X51501Y-41678D01*
X51486Y-41690D01*
X51468Y-41695D01*
X51448Y-41695D01*
X51442Y-41693D01*
X51432Y-41689D01*
X51426Y-41686D01*
X51425Y-41686D01*
X51421Y-41679D01*
X51416Y-41668D01*
X51410Y-41656D01*
X51407Y-41647D01*
X51406Y-41643D01*
X51408Y-41634D01*
X51413Y-41622D01*
X51420Y-41609D01*
X51427Y-41599D01*
X51433Y-41593D01*
X51433Y-41593D01*
X51444Y-41591D01*
X51458Y-41590D01*
X51474Y-41591D01*
X51486Y-41593D01*
X51490Y-41595D01*
X51498Y-41602D01*
X51506Y-41615D01*
X51512Y-41629D01*
X51515Y-41642D01*
X51515Y-41643D01*
X51515Y-41643D01*
X51515Y-41643D01*
G37*
G36*
X51686Y-41642D02*
X51685Y-41657D01*
X51681Y-41667D01*
X51674Y-41677D01*
X51666Y-41685D01*
X51661Y-41690D01*
X51660Y-41691D01*
X51656Y-41692D01*
X51646Y-41694D01*
X51646Y-41694D01*
X51634Y-41696D01*
X51624Y-41696D01*
X51606Y-41689D01*
X51591Y-41674D01*
X51585Y-41665D01*
X51579Y-41651D01*
X51578Y-41640D01*
X51581Y-41629D01*
X51586Y-41620D01*
X51596Y-41604D01*
X51608Y-41595D01*
X51625Y-41591D01*
X51635Y-41590D01*
X51649Y-41591D01*
X51658Y-41593D01*
X51666Y-41600D01*
X51672Y-41606D01*
X51681Y-41617D01*
X51685Y-41627D01*
X51686Y-41641D01*
X51686Y-41642D01*
X51686Y-41642D01*
X51686Y-41642D01*
G37*
G36*
X51859Y-41647D02*
X51854Y-41665D01*
X51843Y-41680D01*
X51829Y-41691D01*
X51811Y-41696D01*
X51794Y-41695D01*
X51774Y-41686D01*
X51760Y-41671D01*
X51753Y-41654D01*
X51753Y-41634D01*
X51759Y-41616D01*
X51769Y-41602D01*
X51783Y-41593D01*
X51802Y-41590D01*
X51806Y-41590D01*
X51827Y-41594D01*
X51844Y-41604D01*
X51855Y-41620D01*
X51857Y-41628D01*
X51859Y-41647D01*
X51859Y-41647D01*
X51859Y-41647D01*
G37*
G36*
X52032Y-41650D02*
X52026Y-41667D01*
X52014Y-41682D01*
X52009Y-41685D01*
X51990Y-41694D01*
X51971Y-41695D01*
X51960Y-41692D01*
X51950Y-41689D01*
X51944Y-41686D01*
X51944Y-41686D01*
X51941Y-41682D01*
X51935Y-41674D01*
X51933Y-41672D01*
X51926Y-41655D01*
X51925Y-41636D01*
X51931Y-41618D01*
X51935Y-41611D01*
X51944Y-41600D01*
X51952Y-41593D01*
X51963Y-41591D01*
X51977Y-41590D01*
X51998Y-41594D01*
X52014Y-41603D01*
X52025Y-41616D01*
X52032Y-41632D01*
X52032Y-41650D01*
X52032Y-41650D01*
X52032Y-41650D01*
G37*
G36*
X52204Y-41643D02*
X52201Y-41662D01*
X52190Y-41678D01*
X52175Y-41690D01*
X52157Y-41695D01*
X52138Y-41695D01*
X52132Y-41693D01*
X52122Y-41689D01*
X52115Y-41686D01*
X52115Y-41686D01*
X52111Y-41679D01*
X52105Y-41668D01*
X52100Y-41656D01*
X52097Y-41647D01*
X52096Y-41643D01*
X52098Y-41634D01*
X52103Y-41622D01*
X52110Y-41609D01*
X52117Y-41599D01*
X52123Y-41593D01*
X52123Y-41593D01*
X52133Y-41591D01*
X52148Y-41590D01*
X52163Y-41591D01*
X52176Y-41593D01*
X52180Y-41595D01*
X52187Y-41602D01*
X52196Y-41615D01*
X52202Y-41629D01*
X52204Y-41642D01*
X52204Y-41643D01*
X52204Y-41643D01*
X52204Y-41643D01*
G37*
G36*
X52375Y-41637D02*
X52374Y-41657D01*
X52366Y-41673D01*
X52354Y-41686D01*
X52337Y-41694D01*
X52317Y-41696D01*
X52310Y-41695D01*
X52296Y-41690D01*
X52285Y-41681D01*
X52276Y-41667D01*
X52275Y-41665D01*
X52269Y-41651D01*
X52268Y-41640D01*
X52271Y-41628D01*
X52274Y-41622D01*
X52283Y-41606D01*
X52293Y-41596D01*
X52306Y-41591D01*
X52321Y-41590D01*
X52341Y-41592D01*
X52354Y-41598D01*
X52364Y-41609D01*
X52369Y-41617D01*
X52375Y-41637D01*
X52375Y-41637D01*
X52375Y-41637D01*
G37*
G36*
X52547Y-41641D02*
X52546Y-41658D01*
X52542Y-41671D01*
X52541Y-41673D01*
X52528Y-41685D01*
X52511Y-41693D01*
X52494Y-41696D01*
X52484Y-41695D01*
X52464Y-41686D01*
X52450Y-41671D01*
X52443Y-41654D01*
X52442Y-41634D01*
X52448Y-41616D01*
X52459Y-41602D01*
X52472Y-41594D01*
X52490Y-41590D01*
X52496Y-41590D01*
X52510Y-41591D01*
X52520Y-41594D01*
X52529Y-41601D01*
X52533Y-41605D01*
X52542Y-41614D01*
X52546Y-41623D01*
X52547Y-41635D01*
X52547Y-41641D01*
X52547Y-41641D01*
X52547Y-41641D01*
G37*
G36*
X52720Y-41633D02*
X52720Y-41650D01*
X52714Y-41667D01*
X52704Y-41681D01*
X52690Y-41691D01*
X52673Y-41695D01*
X52653Y-41694D01*
X52650Y-41693D01*
X52640Y-41689D01*
X52634Y-41686D01*
X52633Y-41686D01*
X52630Y-41682D01*
X52624Y-41674D01*
X52623Y-41672D01*
X52615Y-41655D01*
X52614Y-41636D01*
X52620Y-41618D01*
X52624Y-41611D01*
X52634Y-41600D01*
X52642Y-41593D01*
X52652Y-41591D01*
X52667Y-41590D01*
X52682Y-41591D01*
X52694Y-41595D01*
X52701Y-41601D01*
X52714Y-41616D01*
X52720Y-41633D01*
X52720Y-41633D01*
X52720Y-41633D01*
G37*
G36*
X52894Y-41638D02*
X52892Y-41656D01*
X52886Y-41668D01*
X52872Y-41685D01*
X52854Y-41694D01*
X52834Y-41696D01*
X52822Y-41693D01*
X52812Y-41689D01*
X52806Y-41686D01*
X52802Y-41682D01*
X52797Y-41673D01*
X52794Y-41667D01*
X52788Y-41653D01*
X52786Y-41643D01*
X52788Y-41632D01*
X52794Y-41618D01*
X52796Y-41616D01*
X52803Y-41603D01*
X52810Y-41595D01*
X52820Y-41591D01*
X52835Y-41590D01*
X52841Y-41590D01*
X52856Y-41591D01*
X52865Y-41594D01*
X52873Y-41601D01*
X52874Y-41602D01*
X52888Y-41620D01*
X52894Y-41638D01*
X52894Y-41638D01*
X52894Y-41638D01*
G37*
G36*
X53065Y-41643D02*
X53062Y-41662D01*
X53052Y-41678D01*
X53037Y-41690D01*
X53019Y-41696D01*
X52999Y-41695D01*
X52995Y-41693D01*
X52981Y-41685D01*
X52969Y-41672D01*
X52960Y-41655D01*
X52958Y-41650D01*
X52959Y-41636D01*
X52965Y-41620D01*
X52976Y-41604D01*
X52977Y-41602D01*
X52984Y-41595D01*
X52992Y-41591D01*
X53003Y-41590D01*
X53010Y-41590D01*
X53024Y-41591D01*
X53036Y-41593D01*
X53041Y-41595D01*
X53049Y-41602D01*
X53057Y-41615D01*
X53063Y-41629D01*
X53065Y-41642D01*
X53065Y-41643D01*
X53065Y-41643D01*
X53065Y-41643D01*
G37*
G36*
X53237Y-41642D02*
X53236Y-41657D01*
X53232Y-41667D01*
X53225Y-41677D01*
X53217Y-41685D01*
X53212Y-41690D01*
X53211Y-41691D01*
X53206Y-41692D01*
X53197Y-41694D01*
X53197Y-41694D01*
X53184Y-41696D01*
X53174Y-41695D01*
X53154Y-41686D01*
X53140Y-41671D01*
X53132Y-41654D01*
X53132Y-41634D01*
X53138Y-41616D01*
X53148Y-41602D01*
X53162Y-41594D01*
X53180Y-41590D01*
X53186Y-41590D01*
X53200Y-41591D01*
X53209Y-41593D01*
X53217Y-41600D01*
X53223Y-41606D01*
X53232Y-41617D01*
X53236Y-41627D01*
X53237Y-41641D01*
X53237Y-41642D01*
X53237Y-41642D01*
X53237Y-41642D01*
G37*
G36*
X53410Y-41633D02*
X53409Y-41650D01*
X53404Y-41667D01*
X53393Y-41681D01*
X53379Y-41691D01*
X53362Y-41695D01*
X53343Y-41694D01*
X53340Y-41693D01*
X53330Y-41689D01*
X53324Y-41686D01*
X53323Y-41686D01*
X53320Y-41682D01*
X53314Y-41674D01*
X53313Y-41672D01*
X53305Y-41655D01*
X53304Y-41636D01*
X53310Y-41618D01*
X53314Y-41611D01*
X53323Y-41600D01*
X53332Y-41593D01*
X53342Y-41591D01*
X53357Y-41590D01*
X53372Y-41591D01*
X53383Y-41595D01*
X53391Y-41601D01*
X53404Y-41616D01*
X53410Y-41633D01*
X53410Y-41633D01*
X53410Y-41633D01*
G37*
G36*
X50812Y-41622D02*
X50809Y-41640D01*
X50805Y-41650D01*
X50795Y-41661D01*
X50781Y-41671D01*
X50766Y-41677D01*
X50757Y-41678D01*
X50747Y-41676D01*
X50735Y-41671D01*
X50734Y-41671D01*
X50723Y-41662D01*
X50713Y-41649D01*
X50706Y-41634D01*
X50704Y-41624D01*
X50707Y-41610D01*
X50714Y-41595D01*
X50724Y-41582D01*
X50733Y-41576D01*
X50752Y-41570D01*
X50770Y-41571D01*
X50786Y-41578D01*
X50799Y-41590D01*
X50809Y-41605D01*
X50812Y-41622D01*
X50812Y-41622D01*
X50812Y-41622D01*
G37*
G36*
X53596Y-41622D02*
X53593Y-41640D01*
X53589Y-41650D01*
X53579Y-41661D01*
X53565Y-41671D01*
X53550Y-41677D01*
X53541Y-41678D01*
X53531Y-41676D01*
X53519Y-41671D01*
X53518Y-41671D01*
X53507Y-41662D01*
X53497Y-41649D01*
X53490Y-41634D01*
X53488Y-41624D01*
X53491Y-41610D01*
X53498Y-41595D01*
X53508Y-41582D01*
X53517Y-41576D01*
X53536Y-41570D01*
X53554Y-41571D01*
X53570Y-41578D01*
X53584Y-41590D01*
X53593Y-41605D01*
X53596Y-41622D01*
X53596Y-41622D01*
X53596Y-41622D01*
G37*
G36*
X50635Y-41568D02*
X50632Y-41584D01*
X50628Y-41594D01*
X50620Y-41602D01*
X50607Y-41609D01*
X50592Y-41616D01*
X50581Y-41619D01*
X50569Y-41617D01*
X50555Y-41610D01*
X50554Y-41610D01*
X50538Y-41598D01*
X50529Y-41582D01*
X50527Y-41562D01*
X50531Y-41544D01*
X50542Y-41529D01*
X50556Y-41518D01*
X50574Y-41512D01*
X50592Y-41513D01*
X50602Y-41517D01*
X50621Y-41530D01*
X50631Y-41547D01*
X50635Y-41568D01*
X50635Y-41568D01*
X50635Y-41568D01*
G37*
G36*
X53774Y-41568D02*
X53772Y-41584D01*
X53767Y-41594D01*
X53760Y-41602D01*
X53747Y-41609D01*
X53732Y-41616D01*
X53720Y-41619D01*
X53709Y-41617D01*
X53694Y-41610D01*
X53694Y-41610D01*
X53678Y-41598D01*
X53669Y-41582D01*
X53666Y-41562D01*
X53670Y-41544D01*
X53681Y-41529D01*
X53696Y-41518D01*
X53713Y-41512D01*
X53731Y-41513D01*
X53742Y-41517D01*
X53760Y-41530D01*
X53771Y-41547D01*
X53774Y-41568D01*
X53774Y-41568D01*
X53774Y-41568D01*
G37*
G36*
X50473Y-41471D02*
X50470Y-41490D01*
X50460Y-41506D01*
X50458Y-41507D01*
X50440Y-41521D01*
X50424Y-41527D01*
X50408Y-41525D01*
X50397Y-41521D01*
X50381Y-41510D01*
X50372Y-41499D01*
X50368Y-41484D01*
X50367Y-41472D01*
X50368Y-41458D01*
X50370Y-41448D01*
X50376Y-41439D01*
X50382Y-41434D01*
X50391Y-41425D01*
X50399Y-41421D01*
X50410Y-41419D01*
X50420Y-41419D01*
X50434Y-41419D01*
X50443Y-41422D01*
X50450Y-41427D01*
X50457Y-41434D01*
X50469Y-41452D01*
X50473Y-41471D01*
X50473Y-41471D01*
X50473Y-41471D01*
G37*
G36*
X53933Y-41473D02*
X53931Y-41491D01*
X53925Y-41504D01*
X53914Y-41515D01*
X53903Y-41521D01*
X53886Y-41527D01*
X53870Y-41526D01*
X53857Y-41519D01*
X53843Y-41508D01*
X53833Y-41494D01*
X53827Y-41480D01*
X53826Y-41474D01*
X53829Y-41461D01*
X53836Y-41446D01*
X53847Y-41431D01*
X53849Y-41428D01*
X53856Y-41423D01*
X53866Y-41420D01*
X53881Y-41419D01*
X53895Y-41419D01*
X53904Y-41422D01*
X53913Y-41428D01*
X53918Y-41434D01*
X53927Y-41443D01*
X53931Y-41452D01*
X53933Y-41463D01*
X53933Y-41473D01*
X53933Y-41473D01*
X53933Y-41473D01*
G37*
G36*
X50333Y-41349D02*
X50331Y-41366D01*
X50324Y-41378D01*
X50311Y-41389D01*
X50302Y-41394D01*
X50286Y-41400D01*
X50274Y-41401D01*
X50262Y-41397D01*
X50259Y-41395D01*
X50241Y-41383D01*
X50231Y-41368D01*
X50227Y-41350D01*
X50227Y-41348D01*
X50231Y-41327D01*
X50241Y-41311D01*
X50256Y-41300D01*
X50274Y-41294D01*
X50291Y-41296D01*
X50307Y-41302D01*
X50321Y-41312D01*
X50329Y-41324D01*
X50333Y-41341D01*
X50333Y-41349D01*
X50333Y-41349D01*
X50333Y-41349D01*
G37*
G36*
X54073Y-41348D02*
X54071Y-41364D01*
X54066Y-41377D01*
X54055Y-41387D01*
X54041Y-41395D01*
X54027Y-41401D01*
X54015Y-41401D01*
X54002Y-41396D01*
X53997Y-41393D01*
X53979Y-41381D01*
X53970Y-41364D01*
X53967Y-41351D01*
X53970Y-41330D01*
X53980Y-41313D01*
X53994Y-41302D01*
X54013Y-41295D01*
X54030Y-41295D01*
X54047Y-41302D01*
X54061Y-41314D01*
X54068Y-41321D01*
X54072Y-41330D01*
X54073Y-41342D01*
X54073Y-41348D01*
X54073Y-41348D01*
X54073Y-41348D01*
G37*
G36*
X51490Y-40215D02*
X51488Y-40601D01*
X51487Y-40986D01*
X51474Y-41030D01*
X51454Y-41086D01*
X51429Y-41135D01*
X51398Y-41178D01*
X51362Y-41214D01*
X51321Y-41245D01*
X51273Y-41269D01*
X51221Y-41287D01*
X51217Y-41287D01*
X51198Y-41292D01*
X51179Y-41295D01*
X51160Y-41298D01*
X51138Y-41299D01*
X51110Y-41300D01*
X51109Y-41300D01*
X51085Y-41300D01*
X51064Y-41300D01*
X51046Y-41300D01*
X51033Y-41300D01*
X51030Y-41299D01*
X50990Y-41292D01*
X50949Y-41278D01*
X50908Y-41261D01*
X50872Y-41241D01*
X50848Y-41224D01*
X50814Y-41193D01*
X50785Y-41155D01*
X50760Y-41112D01*
X50740Y-41066D01*
X50731Y-41036D01*
X50728Y-41021D01*
X50725Y-41006D01*
X50722Y-40989D01*
X50720Y-40971D01*
X50718Y-40951D01*
X50716Y-40927D01*
X50715Y-40900D01*
X50714Y-40869D01*
X50713Y-40833D01*
X50713Y-40791D01*
X50713Y-40744D01*
X50712Y-40690D01*
X50712Y-40630D01*
X50713Y-40562D01*
X50713Y-40542D01*
X50713Y-40480D01*
X50713Y-40426D01*
X50714Y-40380D01*
X50714Y-40340D01*
X50714Y-40307D01*
X50715Y-40280D01*
X50716Y-40258D01*
X50716Y-40241D01*
X50717Y-40229D01*
X50718Y-40220D01*
X50719Y-40216D01*
X50719Y-40214D01*
X50727Y-40211D01*
X50740Y-40209D01*
X50756Y-40207D01*
X50773Y-40207D01*
X50789Y-40208D01*
X50800Y-40210D01*
X50801Y-40210D01*
X50812Y-40215D01*
X50812Y-40542D01*
X50813Y-40611D01*
X50813Y-40672D01*
X50813Y-40726D01*
X50813Y-40773D01*
X50814Y-40814D01*
X50815Y-40850D01*
X50815Y-40880D01*
X50817Y-40906D01*
X50818Y-40929D01*
X50819Y-40948D01*
X50821Y-40964D01*
X50823Y-40979D01*
X50825Y-40991D01*
X50827Y-40999D01*
X50842Y-41047D01*
X50862Y-41089D01*
X50889Y-41125D01*
X50921Y-41156D01*
X50958Y-41180D01*
X51000Y-41197D01*
X51003Y-41198D01*
X51030Y-41204D01*
X51062Y-41208D01*
X51097Y-41209D01*
X51132Y-41209D01*
X51164Y-41206D01*
X51185Y-41202D01*
X51230Y-41188D01*
X51269Y-41168D01*
X51302Y-41143D01*
X51330Y-41112D01*
X51353Y-41074D01*
X51371Y-41029D01*
X51378Y-41010D01*
X51379Y-41004D01*
X51381Y-40998D01*
X51382Y-40992D01*
X51383Y-40985D01*
X51384Y-40976D01*
X51384Y-40965D01*
X51385Y-40952D01*
X51386Y-40935D01*
X51386Y-40914D01*
X51387Y-40889D01*
X51387Y-40858D01*
X51387Y-40823D01*
X51388Y-40781D01*
X51388Y-40733D01*
X51389Y-40678D01*
X51389Y-40615D01*
X51389Y-40599D01*
X51389Y-40531D01*
X51390Y-40472D01*
X51390Y-40420D01*
X51391Y-40375D01*
X51391Y-40337D01*
X51392Y-40304D01*
X51392Y-40278D01*
X51393Y-40257D01*
X51394Y-40240D01*
X51394Y-40228D01*
X51395Y-40220D01*
X51396Y-40216D01*
X51397Y-40214D01*
X51404Y-40211D01*
X51417Y-40209D01*
X51433Y-40207D01*
X51450Y-40207D01*
X51466Y-40208D01*
X51477Y-40210D01*
X51478Y-40210D01*
X51490Y-40215D01*
X51490Y-40215D01*
X51490Y-40215D01*
G37*
G36*
X53769Y-40772D02*
X53769Y-40800D01*
X53769Y-40822D01*
X53768Y-40840D01*
X53767Y-40855D01*
X53765Y-40869D01*
X53763Y-40883D01*
X53760Y-40899D01*
X53758Y-40909D01*
X53740Y-40977D01*
X53718Y-41040D01*
X53690Y-41095D01*
X53663Y-41135D01*
X53663Y-40748D01*
X53661Y-40675D01*
X53653Y-40609D01*
X53641Y-40549D01*
X53624Y-40496D01*
X53602Y-40449D01*
X53575Y-40408D01*
X53542Y-40372D01*
X53507Y-40344D01*
X53473Y-40324D01*
X53440Y-40309D01*
X53404Y-40299D01*
X53364Y-40293D01*
X53319Y-40290D01*
X53310Y-40290D01*
X53260Y-40292D01*
X53216Y-40299D01*
X53177Y-40310D01*
X53140Y-40327D01*
X53108Y-40347D01*
X53069Y-40379D01*
X53035Y-40417D01*
X53008Y-40461D01*
X52985Y-40511D01*
X52968Y-40566D01*
X52956Y-40628D01*
X52950Y-40697D01*
X52948Y-40752D01*
X52951Y-40825D01*
X52958Y-40891D01*
X52970Y-40951D01*
X52986Y-41004D01*
X53008Y-41051D01*
X53034Y-41092D01*
X53066Y-41128D01*
X53103Y-41157D01*
X53105Y-41159D01*
X53132Y-41175D01*
X53158Y-41188D01*
X53185Y-41198D01*
X53215Y-41204D01*
X53249Y-41207D01*
X53288Y-41208D01*
X53312Y-41208D01*
X53342Y-41207D01*
X53365Y-41206D01*
X53382Y-41205D01*
X53397Y-41202D01*
X53410Y-41199D01*
X53412Y-41198D01*
X53436Y-41191D01*
X53455Y-41182D01*
X53475Y-41172D01*
X53496Y-41158D01*
X53507Y-41151D01*
X53545Y-41118D01*
X53578Y-41080D01*
X53606Y-41035D01*
X53628Y-40984D01*
X53645Y-40926D01*
X53656Y-40862D01*
X53662Y-40792D01*
X53663Y-40748D01*
X53663Y-41135D01*
X53657Y-41145D01*
X53619Y-41187D01*
X53575Y-41223D01*
X53528Y-41253D01*
X53475Y-41276D01*
X53417Y-41291D01*
X53395Y-41295D01*
X53373Y-41298D01*
X53345Y-41300D01*
X53313Y-41301D01*
X53280Y-41301D01*
X53249Y-41301D01*
X53221Y-41299D01*
X53201Y-41297D01*
X53160Y-41289D01*
X53118Y-41277D01*
X53079Y-41261D01*
X53045Y-41243D01*
X53026Y-41231D01*
X52985Y-41197D01*
X52950Y-41159D01*
X52920Y-41116D01*
X52895Y-41069D01*
X52875Y-41015D01*
X52858Y-40954D01*
X52853Y-40930D01*
X52850Y-40912D01*
X52847Y-40897D01*
X52846Y-40882D01*
X52844Y-40867D01*
X52843Y-40849D01*
X52843Y-40828D01*
X52842Y-40801D01*
X52842Y-40768D01*
X52842Y-40758D01*
X52842Y-40724D01*
X52842Y-40696D01*
X52843Y-40674D01*
X52844Y-40656D01*
X52845Y-40641D01*
X52847Y-40626D01*
X52849Y-40612D01*
X52852Y-40596D01*
X52854Y-40587D01*
X52871Y-40521D01*
X52893Y-40460D01*
X52921Y-40405D01*
X52955Y-40356D01*
X52993Y-40314D01*
X53037Y-40278D01*
X53066Y-40260D01*
X53093Y-40244D01*
X53117Y-40233D01*
X53142Y-40223D01*
X53170Y-40215D01*
X53189Y-40210D01*
X53203Y-40207D01*
X53216Y-40204D01*
X53230Y-40202D01*
X53246Y-40201D01*
X53267Y-40201D01*
X53293Y-40200D01*
X53314Y-40200D01*
X53359Y-40201D01*
X53398Y-40203D01*
X53432Y-40207D01*
X53462Y-40214D01*
X53490Y-40223D01*
X53519Y-40235D01*
X53549Y-40251D01*
X53559Y-40256D01*
X53604Y-40286D01*
X53643Y-40323D01*
X53678Y-40366D01*
X53707Y-40415D01*
X53731Y-40471D01*
X53750Y-40534D01*
X53758Y-40567D01*
X53761Y-40584D01*
X53764Y-40599D01*
X53766Y-40613D01*
X53767Y-40627D01*
X53768Y-40644D01*
X53769Y-40664D01*
X53769Y-40689D01*
X53769Y-40720D01*
X53769Y-40737D01*
X53769Y-40772D01*
X53769Y-40772D01*
X53769Y-40772D01*
G37*
G36*
X52585Y-41268D02*
X52572Y-41281D01*
X52565Y-41287D01*
X52559Y-41291D01*
X52550Y-41293D01*
X52537Y-41293D01*
X52525Y-41293D01*
X52500Y-41292D01*
X52480Y-41287D01*
X52464Y-41277D01*
X52447Y-41261D01*
X52440Y-41252D01*
X52436Y-41246D01*
X52428Y-41233D01*
X52417Y-41214D01*
X52403Y-41189D01*
X52385Y-41160D01*
X52365Y-41126D01*
X52344Y-41088D01*
X52320Y-41046D01*
X52294Y-41002D01*
X52267Y-40955D01*
X52239Y-40907D01*
X52211Y-40858D01*
X52182Y-40808D01*
X52154Y-40758D01*
X52126Y-40708D01*
X52098Y-40659D01*
X52071Y-40612D01*
X52046Y-40568D01*
X52022Y-40526D01*
X52000Y-40487D01*
X51980Y-40452D01*
X51963Y-40421D01*
X51949Y-40396D01*
X51938Y-40376D01*
X51938Y-40375D01*
X51910Y-40323D01*
X51909Y-40803D01*
X51908Y-40877D01*
X51908Y-40943D01*
X51908Y-41001D01*
X51908Y-41052D01*
X51908Y-41097D01*
X51907Y-41136D01*
X51907Y-41169D01*
X51907Y-41197D01*
X51906Y-41220D01*
X51906Y-41239D01*
X51906Y-41254D01*
X51905Y-41265D01*
X51904Y-41274D01*
X51904Y-41280D01*
X51903Y-41284D01*
X51902Y-41287D01*
X51901Y-41288D01*
X51901Y-41288D01*
X51892Y-41291D01*
X51878Y-41293D01*
X51861Y-41294D01*
X51843Y-41293D01*
X51828Y-41291D01*
X51818Y-41288D01*
X51817Y-41287D01*
X51816Y-41286D01*
X51815Y-41285D01*
X51814Y-41282D01*
X51813Y-41279D01*
X51813Y-41273D01*
X51812Y-41265D01*
X51811Y-41254D01*
X51811Y-41240D01*
X51811Y-41223D01*
X51810Y-41202D01*
X51810Y-41176D01*
X51810Y-41145D01*
X51810Y-41109D01*
X51810Y-41067D01*
X51809Y-41019D01*
X51809Y-40964D01*
X51809Y-40902D01*
X51809Y-40833D01*
X51809Y-40764D01*
X51809Y-40686D01*
X51809Y-40616D01*
X51809Y-40554D01*
X51809Y-40499D01*
X51810Y-40450D01*
X51810Y-40408D01*
X51810Y-40371D01*
X51810Y-40340D01*
X51811Y-40313D01*
X51811Y-40291D01*
X51812Y-40273D01*
X51813Y-40259D01*
X51814Y-40247D01*
X51816Y-40238D01*
X51818Y-40232D01*
X51819Y-40227D01*
X51822Y-40224D01*
X51824Y-40221D01*
X51827Y-40219D01*
X51830Y-40217D01*
X51832Y-40216D01*
X51839Y-40213D01*
X51848Y-40210D01*
X51862Y-40209D01*
X51882Y-40209D01*
X51885Y-40209D01*
X51911Y-40211D01*
X51932Y-40214D01*
X51948Y-40221D01*
X51961Y-40231D01*
X51974Y-40247D01*
X51976Y-40250D01*
X51981Y-40258D01*
X51990Y-40272D01*
X52002Y-40293D01*
X52017Y-40319D01*
X52035Y-40350D01*
X52056Y-40385D01*
X52078Y-40424D01*
X52102Y-40466D01*
X52128Y-40511D01*
X52154Y-40557D01*
X52182Y-40606D01*
X52209Y-40654D01*
X52237Y-40703D01*
X52265Y-40752D01*
X52292Y-40800D01*
X52318Y-40846D01*
X52342Y-40890D01*
X52365Y-40931D01*
X52387Y-40969D01*
X52404Y-41001D01*
X52422Y-41033D01*
X52438Y-41063D01*
X52453Y-41090D01*
X52465Y-41112D01*
X52475Y-41130D01*
X52482Y-41143D01*
X52486Y-41149D01*
X52486Y-41150D01*
X52486Y-41146D01*
X52486Y-41134D01*
X52486Y-41115D01*
X52486Y-41089D01*
X52486Y-41057D01*
X52486Y-41019D01*
X52486Y-40976D01*
X52487Y-40928D01*
X52487Y-40877D01*
X52487Y-40821D01*
X52487Y-40763D01*
X52487Y-40702D01*
X52487Y-40687D01*
X52487Y-40614D01*
X52487Y-40550D01*
X52487Y-40493D01*
X52487Y-40443D01*
X52487Y-40400D01*
X52487Y-40363D01*
X52487Y-40331D01*
X52487Y-40304D01*
X52488Y-40282D01*
X52488Y-40264D01*
X52488Y-40250D01*
X52489Y-40239D01*
X52490Y-40231D01*
X52490Y-40226D01*
X52491Y-40222D01*
X52492Y-40219D01*
X52493Y-40218D01*
X52495Y-40217D01*
X52503Y-40214D01*
X52518Y-40212D01*
X52535Y-40211D01*
X52552Y-40211D01*
X52567Y-40213D01*
X52574Y-40215D01*
X52585Y-40219D01*
X52585Y-40743D01*
X52585Y-41268D01*
X52585Y-41268D01*
X52585Y-41268D01*
G37*
G36*
X50223Y-41197D02*
X50221Y-41214D01*
X50216Y-41226D01*
X50205Y-41237D01*
X50191Y-41245D01*
X50177Y-41250D01*
X50165Y-41250D01*
X50152Y-41246D01*
X50147Y-41243D01*
X50130Y-41231D01*
X50120Y-41215D01*
X50118Y-41198D01*
X50121Y-41177D01*
X50131Y-41160D01*
X50146Y-41148D01*
X50166Y-41143D01*
X50171Y-41143D01*
X50184Y-41144D01*
X50194Y-41147D01*
X50203Y-41154D01*
X50207Y-41159D01*
X50217Y-41169D01*
X50221Y-41178D01*
X50223Y-41189D01*
X50223Y-41197D01*
X50223Y-41197D01*
X50223Y-41197D01*
G37*
G36*
X54184Y-41190D02*
X54183Y-41207D01*
X54177Y-41223D01*
X54166Y-41235D01*
X54151Y-41244D01*
X54136Y-41250D01*
X54124Y-41251D01*
X54112Y-41246D01*
X54109Y-41245D01*
X54091Y-41232D01*
X54081Y-41218D01*
X54077Y-41200D01*
X54077Y-41197D01*
X54078Y-41183D01*
X54082Y-41173D01*
X54090Y-41162D01*
X54092Y-41160D01*
X54102Y-41150D01*
X54110Y-41145D01*
X54121Y-41143D01*
X54128Y-41143D01*
X54149Y-41147D01*
X54166Y-41156D01*
X54178Y-41171D01*
X54184Y-41190D01*
X54184Y-41190D01*
X54184Y-41190D01*
G37*
G36*
X50148Y-41026D02*
X50146Y-41043D01*
X50141Y-41055D01*
X50131Y-41065D01*
X50116Y-41074D01*
X50099Y-41079D01*
X50084Y-41078D01*
X50068Y-41071D01*
X50054Y-41060D01*
X50044Y-41045D01*
X50039Y-41029D01*
X50039Y-41026D01*
X50042Y-41011D01*
X50051Y-40996D01*
X50062Y-40983D01*
X50070Y-40978D01*
X50089Y-40972D01*
X50107Y-40973D01*
X50124Y-40982D01*
X50136Y-40992D01*
X50143Y-40999D01*
X50147Y-41008D01*
X50148Y-41020D01*
X50148Y-41026D01*
X50148Y-41026D01*
X50148Y-41026D01*
G37*
G36*
X54261Y-41026D02*
X54258Y-41044D01*
X54255Y-41050D01*
X54247Y-41061D01*
X54233Y-41070D01*
X54219Y-41077D01*
X54206Y-41080D01*
X54196Y-41078D01*
X54184Y-41073D01*
X54181Y-41072D01*
X54165Y-41061D01*
X54156Y-41047D01*
X54152Y-41028D01*
X54152Y-41026D01*
X54156Y-41005D01*
X54167Y-40989D01*
X54182Y-40978D01*
X54200Y-40972D01*
X54219Y-40974D01*
X54235Y-40981D01*
X54248Y-40993D01*
X54257Y-41008D01*
X54261Y-41026D01*
X54261Y-41026D01*
X54261Y-41026D01*
G37*
G36*
X50109Y-40838D02*
X50108Y-40858D01*
X50098Y-40876D01*
X50087Y-40888D01*
X50073Y-40894D01*
X50056Y-40896D01*
X50039Y-40895D01*
X50027Y-40890D01*
X50019Y-40881D01*
X50011Y-40869D01*
X50004Y-40856D01*
X50001Y-40845D01*
X50001Y-40844D01*
X50004Y-40833D01*
X50010Y-40820D01*
X50019Y-40806D01*
X50028Y-40796D01*
X50033Y-40793D01*
X50053Y-40788D01*
X50072Y-40790D01*
X50089Y-40800D01*
X50101Y-40816D01*
X50102Y-40817D01*
X50109Y-40838D01*
X50109Y-40838D01*
X50109Y-40838D01*
G37*
G36*
X54297Y-40838D02*
X54296Y-40858D01*
X54287Y-40876D01*
X54275Y-40888D01*
X54262Y-40894D01*
X54245Y-40896D01*
X54228Y-40895D01*
X54216Y-40890D01*
X54208Y-40881D01*
X54200Y-40869D01*
X54193Y-40856D01*
X54190Y-40845D01*
X54190Y-40844D01*
X54192Y-40833D01*
X54199Y-40820D01*
X54207Y-40806D01*
X54216Y-40796D01*
X54221Y-40793D01*
X54241Y-40788D01*
X54260Y-40790D01*
X54277Y-40800D01*
X54290Y-40816D01*
X54290Y-40817D01*
X54297Y-40838D01*
X54297Y-40838D01*
X54297Y-40838D01*
G37*
G36*
X50110Y-40650D02*
X50108Y-40667D01*
X50102Y-40683D01*
X50090Y-40698D01*
X50073Y-40707D01*
X50054Y-40710D01*
X50038Y-40706D01*
X50028Y-40703D01*
X50022Y-40700D01*
X50018Y-40695D01*
X50013Y-40686D01*
X50010Y-40680D01*
X50004Y-40666D01*
X50002Y-40655D01*
X50004Y-40644D01*
X50008Y-40636D01*
X50018Y-40619D01*
X50028Y-40610D01*
X50040Y-40605D01*
X50056Y-40604D01*
X50070Y-40604D01*
X50080Y-40607D01*
X50087Y-40612D01*
X50090Y-40615D01*
X50104Y-40633D01*
X50110Y-40650D01*
X50110Y-40650D01*
X50110Y-40650D01*
G37*
G36*
X54298Y-40650D02*
X54297Y-40667D01*
X54291Y-40683D01*
X54278Y-40698D01*
X54262Y-40707D01*
X54242Y-40710D01*
X54226Y-40706D01*
X54216Y-40703D01*
X54211Y-40700D01*
X54207Y-40695D01*
X54202Y-40686D01*
X54199Y-40680D01*
X54192Y-40666D01*
X54190Y-40655D01*
X54193Y-40644D01*
X54197Y-40636D01*
X54206Y-40619D01*
X54216Y-40610D01*
X54229Y-40605D01*
X54244Y-40604D01*
X54259Y-40604D01*
X54268Y-40607D01*
X54276Y-40612D01*
X54279Y-40615D01*
X54292Y-40633D01*
X54298Y-40650D01*
X54298Y-40650D01*
X54298Y-40650D01*
G37*
G36*
X50148Y-40474D02*
X50146Y-40491D01*
X50141Y-40503D01*
X50131Y-40513D01*
X50116Y-40522D01*
X50099Y-40528D01*
X50084Y-40527D01*
X50068Y-40520D01*
X50054Y-40508D01*
X50044Y-40493D01*
X50039Y-40477D01*
X50039Y-40474D01*
X50042Y-40459D01*
X50051Y-40444D01*
X50062Y-40431D01*
X50070Y-40427D01*
X50089Y-40420D01*
X50107Y-40421D01*
X50124Y-40430D01*
X50136Y-40440D01*
X50143Y-40448D01*
X50147Y-40456D01*
X50148Y-40468D01*
X50148Y-40474D01*
X50148Y-40474D01*
X50148Y-40474D01*
G37*
G36*
X54261Y-40474D02*
X54258Y-40492D01*
X54255Y-40498D01*
X54247Y-40509D01*
X54233Y-40518D01*
X54219Y-40526D01*
X54206Y-40528D01*
X54196Y-40526D01*
X54184Y-40521D01*
X54181Y-40520D01*
X54165Y-40509D01*
X54156Y-40495D01*
X54152Y-40476D01*
X54152Y-40474D01*
X54156Y-40453D01*
X54167Y-40437D01*
X54182Y-40426D01*
X54200Y-40420D01*
X54219Y-40422D01*
X54235Y-40429D01*
X54248Y-40441D01*
X54257Y-40456D01*
X54261Y-40474D01*
X54261Y-40474D01*
X54261Y-40474D01*
G37*
G36*
X50223Y-40303D02*
X50222Y-40317D01*
X50220Y-40327D01*
X50214Y-40335D01*
X50209Y-40339D01*
X50194Y-40350D01*
X50175Y-40355D01*
X50158Y-40355D01*
X50154Y-40354D01*
X50135Y-40343D01*
X50123Y-40328D01*
X50118Y-40308D01*
X50118Y-40302D01*
X50122Y-40282D01*
X50133Y-40266D01*
X50145Y-40257D01*
X50163Y-40249D01*
X50181Y-40250D01*
X50199Y-40258D01*
X50211Y-40268D01*
X50218Y-40276D01*
X50222Y-40284D01*
X50223Y-40297D01*
X50223Y-40303D01*
X50223Y-40303D01*
X50223Y-40303D01*
G37*
G36*
X54184Y-40300D02*
X54182Y-40317D01*
X54175Y-40333D01*
X54163Y-40345D01*
X54145Y-40353D01*
X54137Y-40354D01*
X54124Y-40355D01*
X54113Y-40354D01*
X54112Y-40354D01*
X54103Y-40350D01*
X54093Y-40342D01*
X54090Y-40338D01*
X54082Y-40327D01*
X54078Y-40315D01*
X54077Y-40303D01*
X54078Y-40288D01*
X54082Y-40278D01*
X54089Y-40270D01*
X54106Y-40255D01*
X54124Y-40249D01*
X54142Y-40250D01*
X54151Y-40254D01*
X54168Y-40267D01*
X54179Y-40282D01*
X54184Y-40300D01*
X54184Y-40300D01*
X54184Y-40300D01*
G37*
G36*
X50334Y-40155D02*
X50331Y-40171D01*
X50327Y-40181D01*
X50319Y-40189D01*
X50307Y-40196D01*
X50291Y-40203D01*
X50279Y-40206D01*
X50268Y-40204D01*
X50256Y-40198D01*
X50239Y-40187D01*
X50230Y-40173D01*
X50227Y-40155D01*
X50227Y-40152D01*
X50228Y-40137D01*
X50233Y-40126D01*
X50239Y-40120D01*
X50256Y-40105D01*
X50274Y-40098D01*
X50292Y-40100D01*
X50302Y-40104D01*
X50320Y-40117D01*
X50330Y-40135D01*
X50334Y-40155D01*
X50334Y-40155D01*
X50334Y-40155D01*
G37*
G36*
X54073Y-40152D02*
X54072Y-40169D01*
X54066Y-40181D01*
X54056Y-40191D01*
X54041Y-40200D01*
X54028Y-40205D01*
X54017Y-40206D01*
X54004Y-40202D01*
X53995Y-40197D01*
X53979Y-40185D01*
X53970Y-40170D01*
X53967Y-40152D01*
X53970Y-40135D01*
X53980Y-40118D01*
X53995Y-40106D01*
X54013Y-40099D01*
X54031Y-40099D01*
X54049Y-40108D01*
X54061Y-40118D01*
X54068Y-40126D01*
X54072Y-40134D01*
X54073Y-40146D01*
X54073Y-40152D01*
X54073Y-40152D01*
X54073Y-40152D01*
G37*
G36*
X50473Y-40023D02*
X50471Y-40042D01*
X50461Y-40060D01*
X50458Y-40064D01*
X50444Y-40074D01*
X50425Y-40079D01*
X50405Y-40079D01*
X50400Y-40079D01*
X50392Y-40074D01*
X50382Y-40066D01*
X50379Y-40064D01*
X50372Y-40055D01*
X50369Y-40047D01*
X50367Y-40034D01*
X50367Y-40027D01*
X50368Y-40012D01*
X50370Y-40002D01*
X50376Y-39995D01*
X50378Y-39992D01*
X50396Y-39978D01*
X50414Y-39972D01*
X50433Y-39975D01*
X50450Y-39986D01*
X50453Y-39988D01*
X50467Y-40005D01*
X50473Y-40023D01*
X50473Y-40023D01*
X50473Y-40023D01*
G37*
G36*
X53933Y-40027D02*
X53932Y-40042D01*
X53930Y-40051D01*
X53925Y-40059D01*
X53920Y-40064D01*
X53906Y-40074D01*
X53887Y-40079D01*
X53868Y-40080D01*
X53862Y-40078D01*
X53851Y-40072D01*
X53840Y-40060D01*
X53831Y-40045D01*
X53827Y-40030D01*
X53826Y-40027D01*
X53830Y-40012D01*
X53839Y-39996D01*
X53852Y-39983D01*
X53868Y-39974D01*
X53887Y-39973D01*
X53905Y-39978D01*
X53922Y-39991D01*
X53924Y-39993D01*
X53930Y-40002D01*
X53932Y-40014D01*
X53933Y-40027D01*
X53933Y-40027D01*
X53933Y-40027D01*
G37*
G36*
X50634Y-39936D02*
X50632Y-39951D01*
X50627Y-39963D01*
X50626Y-39965D01*
X50616Y-39973D01*
X50602Y-39981D01*
X50589Y-39987D01*
X50579Y-39989D01*
X50571Y-39987D01*
X50560Y-39982D01*
X50556Y-39981D01*
X50539Y-39967D01*
X50529Y-39951D01*
X50527Y-39931D01*
X50532Y-39910D01*
X50541Y-39898D01*
X50555Y-39888D01*
X50571Y-39882D01*
X50580Y-39881D01*
X50594Y-39883D01*
X50608Y-39890D01*
X50621Y-39898D01*
X50629Y-39907D01*
X50633Y-39920D01*
X50634Y-39936D01*
X50634Y-39936D01*
X50634Y-39936D01*
G37*
G36*
X53773Y-39936D02*
X53771Y-39951D01*
X53766Y-39963D01*
X53765Y-39965D01*
X53755Y-39973D01*
X53742Y-39981D01*
X53728Y-39987D01*
X53719Y-39989D01*
X53710Y-39987D01*
X53699Y-39982D01*
X53696Y-39981D01*
X53678Y-39967D01*
X53668Y-39951D01*
X53666Y-39931D01*
X53671Y-39910D01*
X53680Y-39898D01*
X53694Y-39888D01*
X53710Y-39882D01*
X53720Y-39881D01*
X53733Y-39883D01*
X53748Y-39890D01*
X53761Y-39898D01*
X53768Y-39907D01*
X53772Y-39920D01*
X53773Y-39936D01*
X53773Y-39936D01*
X53773Y-39936D01*
G37*
G36*
X50812Y-39876D02*
X50809Y-39895D01*
X50806Y-39902D01*
X50797Y-39912D01*
X50783Y-39922D01*
X50768Y-39929D01*
X50757Y-39930D01*
X50747Y-39928D01*
X50735Y-39924D01*
X50733Y-39923D01*
X50720Y-39912D01*
X50710Y-39897D01*
X50704Y-39881D01*
X50704Y-39877D01*
X50707Y-39864D01*
X50714Y-39849D01*
X50724Y-39836D01*
X50734Y-39828D01*
X50752Y-39822D01*
X50770Y-39824D01*
X50787Y-39831D01*
X50800Y-39843D01*
X50809Y-39859D01*
X50812Y-39876D01*
X50812Y-39876D01*
X50812Y-39876D01*
G37*
G36*
X53596Y-39876D02*
X53593Y-39895D01*
X53590Y-39902D01*
X53581Y-39912D01*
X53567Y-39922D01*
X53552Y-39929D01*
X53541Y-39930D01*
X53531Y-39928D01*
X53519Y-39924D01*
X53517Y-39923D01*
X53504Y-39912D01*
X53494Y-39897D01*
X53488Y-39881D01*
X53488Y-39877D01*
X53491Y-39864D01*
X53498Y-39849D01*
X53508Y-39836D01*
X53518Y-39828D01*
X53536Y-39822D01*
X53554Y-39824D01*
X53571Y-39831D01*
X53584Y-39843D01*
X53593Y-39859D01*
X53596Y-39876D01*
X53596Y-39876D01*
X53596Y-39876D01*
G37*
G36*
X50996Y-39859D02*
X50996Y-39872D01*
X50993Y-39881D01*
X50985Y-39889D01*
X50980Y-39895D01*
X50961Y-39907D01*
X50942Y-39910D01*
X50923Y-39906D01*
X50914Y-39900D01*
X50899Y-39886D01*
X50892Y-39867D01*
X50892Y-39847D01*
X50897Y-39832D01*
X50907Y-39818D01*
X50919Y-39809D01*
X50930Y-39805D01*
X50950Y-39803D01*
X50968Y-39809D01*
X50982Y-39820D01*
X50992Y-39837D01*
X50996Y-39857D01*
X50996Y-39859D01*
X50996Y-39859D01*
X50996Y-39859D01*
G37*
G36*
X51170Y-39861D02*
X51165Y-39879D01*
X51154Y-39894D01*
X51148Y-39899D01*
X51128Y-39908D01*
X51108Y-39909D01*
X51089Y-39903D01*
X51085Y-39900D01*
X51071Y-39886D01*
X51064Y-39870D01*
X51063Y-39853D01*
X51067Y-39836D01*
X51076Y-39821D01*
X51089Y-39810D01*
X51106Y-39804D01*
X51125Y-39804D01*
X51130Y-39805D01*
X51148Y-39814D01*
X51161Y-39827D01*
X51168Y-39844D01*
X51170Y-39861D01*
X51170Y-39861D01*
X51170Y-39861D01*
G37*
G36*
X51343Y-39854D02*
X51341Y-39872D01*
X51330Y-39889D01*
X51322Y-39898D01*
X51312Y-39906D01*
X51301Y-39909D01*
X51289Y-39910D01*
X51274Y-39909D01*
X51264Y-39905D01*
X51253Y-39896D01*
X51252Y-39896D01*
X51243Y-39886D01*
X51239Y-39878D01*
X51237Y-39867D01*
X51237Y-39859D01*
X51240Y-39838D01*
X51249Y-39821D01*
X51262Y-39809D01*
X51278Y-39803D01*
X51295Y-39803D01*
X51312Y-39809D01*
X51327Y-39821D01*
X51337Y-39835D01*
X51343Y-39854D01*
X51343Y-39854D01*
X51343Y-39854D01*
G37*
G36*
X51513Y-39852D02*
X51512Y-39872D01*
X51503Y-39889D01*
X51491Y-39901D01*
X51478Y-39907D01*
X51461Y-39910D01*
X51444Y-39908D01*
X51432Y-39903D01*
X51424Y-39895D01*
X51415Y-39882D01*
X51409Y-39869D01*
X51406Y-39858D01*
X51406Y-39858D01*
X51408Y-39850D01*
X51412Y-39839D01*
X51416Y-39830D01*
X51425Y-39816D01*
X51435Y-39808D01*
X51449Y-39804D01*
X51465Y-39804D01*
X51483Y-39807D01*
X51496Y-39815D01*
X51506Y-39830D01*
X51513Y-39852D01*
X51513Y-39852D01*
X51513Y-39852D01*
G37*
G36*
X51686Y-39859D02*
X51685Y-39872D01*
X51682Y-39881D01*
X51675Y-39889D01*
X51669Y-39895D01*
X51658Y-39904D01*
X51648Y-39909D01*
X51635Y-39910D01*
X51633Y-39910D01*
X51618Y-39909D01*
X51607Y-39904D01*
X51600Y-39898D01*
X51587Y-39882D01*
X51580Y-39867D01*
X51578Y-39852D01*
X51579Y-39850D01*
X51587Y-39830D01*
X51600Y-39816D01*
X51615Y-39807D01*
X51632Y-39804D01*
X51648Y-39806D01*
X51663Y-39812D01*
X51676Y-39824D01*
X51684Y-39841D01*
X51686Y-39859D01*
X51686Y-39859D01*
X51686Y-39859D01*
G37*
G36*
X51859Y-39862D02*
X51854Y-39879D01*
X51844Y-39894D01*
X51829Y-39904D01*
X51812Y-39909D01*
X51794Y-39909D01*
X51776Y-39901D01*
X51775Y-39900D01*
X51760Y-39886D01*
X51753Y-39867D01*
X51753Y-39847D01*
X51759Y-39832D01*
X51768Y-39818D01*
X51780Y-39809D01*
X51791Y-39805D01*
X51811Y-39803D01*
X51830Y-39809D01*
X51845Y-39821D01*
X51856Y-39838D01*
X51857Y-39843D01*
X51859Y-39862D01*
X51859Y-39862D01*
X51859Y-39862D01*
G37*
G36*
X52032Y-39853D02*
X52030Y-39871D01*
X52022Y-39887D01*
X52009Y-39900D01*
X51991Y-39908D01*
X51976Y-39910D01*
X51964Y-39909D01*
X51954Y-39906D01*
X51945Y-39898D01*
X51941Y-39894D01*
X51931Y-39883D01*
X51926Y-39873D01*
X51924Y-39862D01*
X51924Y-39859D01*
X51928Y-39839D01*
X51937Y-39822D01*
X51950Y-39811D01*
X51966Y-39805D01*
X51984Y-39804D01*
X52001Y-39809D01*
X52016Y-39820D01*
X52027Y-39835D01*
X52032Y-39853D01*
X52032Y-39853D01*
X52032Y-39853D01*
G37*
G36*
X52204Y-39858D02*
X52201Y-39874D01*
X52191Y-39891D01*
X52181Y-39901D01*
X52167Y-39907D01*
X52150Y-39910D01*
X52134Y-39908D01*
X52122Y-39903D01*
X52114Y-39895D01*
X52105Y-39882D01*
X52099Y-39869D01*
X52096Y-39858D01*
X52096Y-39858D01*
X52097Y-39850D01*
X52102Y-39839D01*
X52106Y-39830D01*
X52114Y-39817D01*
X52121Y-39810D01*
X52131Y-39806D01*
X52132Y-39806D01*
X52148Y-39804D01*
X52166Y-39805D01*
X52181Y-39810D01*
X52183Y-39811D01*
X52189Y-39818D01*
X52196Y-39830D01*
X52201Y-39843D01*
X52204Y-39855D01*
X52204Y-39858D01*
X52204Y-39858D01*
X52204Y-39858D01*
G37*
G36*
X52375Y-39853D02*
X52373Y-39872D01*
X52365Y-39889D01*
X52352Y-39901D01*
X52334Y-39909D01*
X52322Y-39910D01*
X52307Y-39909D01*
X52296Y-39904D01*
X52291Y-39900D01*
X52281Y-39888D01*
X52273Y-39874D01*
X52268Y-39862D01*
X52267Y-39858D01*
X52270Y-39848D01*
X52276Y-39835D01*
X52283Y-39822D01*
X52291Y-39812D01*
X52291Y-39812D01*
X52303Y-39807D01*
X52318Y-39804D01*
X52335Y-39805D01*
X52349Y-39809D01*
X52352Y-39810D01*
X52360Y-39819D01*
X52368Y-39830D01*
X52369Y-39833D01*
X52375Y-39853D01*
X52375Y-39853D01*
X52375Y-39853D01*
G37*
G36*
X52547Y-39857D02*
X52546Y-39872D01*
X52544Y-39882D01*
X52537Y-39891D01*
X52526Y-39899D01*
X52508Y-39908D01*
X52488Y-39909D01*
X52469Y-39903D01*
X52465Y-39900D01*
X52450Y-39886D01*
X52443Y-39867D01*
X52443Y-39847D01*
X52448Y-39832D01*
X52461Y-39815D01*
X52478Y-39806D01*
X52498Y-39803D01*
X52510Y-39805D01*
X52528Y-39814D01*
X52541Y-39829D01*
X52547Y-39848D01*
X52547Y-39857D01*
X52547Y-39857D01*
X52547Y-39857D01*
G37*
G36*
X52720Y-39859D02*
X52716Y-39876D01*
X52708Y-39891D01*
X52694Y-39902D01*
X52676Y-39909D01*
X52665Y-39910D01*
X52653Y-39909D01*
X52643Y-39905D01*
X52633Y-39896D01*
X52630Y-39894D01*
X52620Y-39883D01*
X52616Y-39873D01*
X52614Y-39862D01*
X52614Y-39859D01*
X52618Y-39839D01*
X52627Y-39822D01*
X52642Y-39810D01*
X52659Y-39804D01*
X52679Y-39805D01*
X52681Y-39805D01*
X52699Y-39814D01*
X52712Y-39827D01*
X52719Y-39843D01*
X52720Y-39859D01*
X52720Y-39859D01*
X52720Y-39859D01*
G37*
G36*
X52894Y-39854D02*
X52892Y-39872D01*
X52881Y-39889D01*
X52872Y-39898D01*
X52862Y-39906D01*
X52850Y-39909D01*
X52840Y-39910D01*
X52826Y-39908D01*
X52814Y-39905D01*
X52811Y-39903D01*
X52803Y-39895D01*
X52795Y-39882D01*
X52788Y-39869D01*
X52785Y-39858D01*
X52785Y-39858D01*
X52787Y-39850D01*
X52792Y-39839D01*
X52796Y-39830D01*
X52803Y-39817D01*
X52811Y-39810D01*
X52821Y-39806D01*
X52843Y-39803D01*
X52863Y-39809D01*
X52879Y-39822D01*
X52888Y-39835D01*
X52894Y-39854D01*
X52894Y-39854D01*
X52894Y-39854D01*
G37*
G36*
X53065Y-39858D02*
X53062Y-39874D01*
X53052Y-39891D01*
X53042Y-39901D01*
X53027Y-39908D01*
X53010Y-39910D01*
X52993Y-39907D01*
X52981Y-39900D01*
X52971Y-39888D01*
X52962Y-39874D01*
X52957Y-39862D01*
X52957Y-39858D01*
X52959Y-39848D01*
X52965Y-39835D01*
X52973Y-39822D01*
X52981Y-39812D01*
X52981Y-39812D01*
X52992Y-39807D01*
X53007Y-39804D01*
X53023Y-39805D01*
X53037Y-39808D01*
X53039Y-39809D01*
X53048Y-39817D01*
X53057Y-39830D01*
X53063Y-39845D01*
X53065Y-39858D01*
X53065Y-39858D01*
X53065Y-39858D01*
G37*
G36*
X53237Y-39859D02*
X53236Y-39872D01*
X53233Y-39881D01*
X53226Y-39889D01*
X53220Y-39895D01*
X53202Y-39907D01*
X53183Y-39910D01*
X53164Y-39906D01*
X53154Y-39900D01*
X53140Y-39886D01*
X53133Y-39867D01*
X53133Y-39847D01*
X53138Y-39832D01*
X53147Y-39818D01*
X53159Y-39809D01*
X53170Y-39805D01*
X53190Y-39803D01*
X53208Y-39809D01*
X53223Y-39820D01*
X53233Y-39837D01*
X53237Y-39857D01*
X53237Y-39859D01*
X53237Y-39859D01*
X53237Y-39859D01*
G37*
G36*
X53410Y-39859D02*
X53406Y-39876D01*
X53397Y-39891D01*
X53384Y-39902D01*
X53366Y-39909D01*
X53354Y-39910D01*
X53342Y-39909D01*
X53333Y-39905D01*
X53323Y-39896D01*
X53320Y-39894D01*
X53310Y-39883D01*
X53305Y-39873D01*
X53304Y-39862D01*
X53304Y-39859D01*
X53307Y-39839D01*
X53317Y-39822D01*
X53331Y-39810D01*
X53349Y-39804D01*
X53368Y-39805D01*
X53370Y-39805D01*
X53389Y-39814D01*
X53401Y-39827D01*
X53408Y-39843D01*
X53410Y-39859D01*
X53410Y-39859D01*
X53410Y-39859D01*
G37*
G36*
X53476Y-38493D02*
X53395Y-38532D01*
X53325Y-38567D01*
X53265Y-38603D01*
X53214Y-38641D01*
X53168Y-38682D01*
X53127Y-38729D01*
X53089Y-38782D01*
X53063Y-38824D01*
X53037Y-38872D01*
X53012Y-38923D01*
X52990Y-38975D01*
X52974Y-39017D01*
X52974Y-38726D01*
X52971Y-38724D01*
X52968Y-38726D01*
X52971Y-38729D01*
X52974Y-38726D01*
X52974Y-39017D01*
X52970Y-39027D01*
X52953Y-39078D01*
X52939Y-39128D01*
X52929Y-39173D01*
X52923Y-39215D01*
X52920Y-39251D01*
X52922Y-39280D01*
X52928Y-39302D01*
X52939Y-39314D01*
X52944Y-39316D01*
X52951Y-39319D01*
X52952Y-39325D01*
X52947Y-39336D01*
X52931Y-39356D01*
X52910Y-39368D01*
X52886Y-39371D01*
X52863Y-39364D01*
X52850Y-39354D01*
X52840Y-39341D01*
X52832Y-39323D01*
X52826Y-39300D01*
X52821Y-39270D01*
X52819Y-39232D01*
X52818Y-39184D01*
X52818Y-39162D01*
X52819Y-39107D01*
X52822Y-39052D01*
X52828Y-38996D01*
X52836Y-38937D01*
X52847Y-38873D01*
X52861Y-38803D01*
X52878Y-38724D01*
X52889Y-38675D01*
X52895Y-38649D01*
X52899Y-38628D01*
X52901Y-38613D01*
X52901Y-38608D01*
X52894Y-38608D01*
X52877Y-38609D01*
X52852Y-38611D01*
X52819Y-38615D01*
X52782Y-38620D01*
X52741Y-38625D01*
X52698Y-38631D01*
X52654Y-38637D01*
X52612Y-38644D01*
X52572Y-38650D01*
X52538Y-38656D01*
X52508Y-38661D01*
X52487Y-38665D01*
X52475Y-38668D01*
X52473Y-38669D01*
X52470Y-38677D01*
X52465Y-38692D01*
X52459Y-38712D01*
X52452Y-38738D01*
X52442Y-38769D01*
X52435Y-38791D01*
X52416Y-38848D01*
X52401Y-38905D01*
X52390Y-38959D01*
X52383Y-39010D01*
X52380Y-39055D01*
X52381Y-39093D01*
X52385Y-39114D01*
X52397Y-39141D01*
X52414Y-39159D01*
X52434Y-39166D01*
X52457Y-39162D01*
X52476Y-39151D01*
X52497Y-39130D01*
X52521Y-39100D01*
X52544Y-39063D01*
X52566Y-39021D01*
X52586Y-38978D01*
X52595Y-38953D01*
X52602Y-38921D01*
X52605Y-38882D01*
X52605Y-38840D01*
X52600Y-38801D01*
X52592Y-38768D01*
X52580Y-38734D01*
X52593Y-38743D01*
X52610Y-38758D01*
X52629Y-38782D01*
X52645Y-38809D01*
X52657Y-38837D01*
X52659Y-38842D01*
X52665Y-38871D01*
X52667Y-38908D01*
X52666Y-38949D01*
X52662Y-38991D01*
X52656Y-39030D01*
X52650Y-39050D01*
X52629Y-39112D01*
X52602Y-39169D01*
X52570Y-39220D01*
X52536Y-39263D01*
X52499Y-39297D01*
X52467Y-39317D01*
X52429Y-39331D01*
X52391Y-39336D01*
X52353Y-39332D01*
X52320Y-39320D01*
X52292Y-39300D01*
X52291Y-39299D01*
X52280Y-39283D01*
X52267Y-39260D01*
X52255Y-39234D01*
X52246Y-39208D01*
X52242Y-39192D01*
X52239Y-39168D01*
X52238Y-39135D01*
X52238Y-39096D01*
X52240Y-39053D01*
X52242Y-39010D01*
X52246Y-38969D01*
X52250Y-38941D01*
X52261Y-38879D01*
X52274Y-38819D01*
X52288Y-38763D01*
X52303Y-38716D01*
X52306Y-38708D01*
X52313Y-38687D01*
X52319Y-38671D01*
X52321Y-38662D01*
X52316Y-38657D01*
X52302Y-38650D01*
X52287Y-38645D01*
X52265Y-38637D01*
X52244Y-38628D01*
X52234Y-38623D01*
X52215Y-38611D01*
X52215Y-38631D01*
X52215Y-38651D01*
X52171Y-38652D01*
X52120Y-38657D01*
X52067Y-38670D01*
X52014Y-38690D01*
X51964Y-38716D01*
X51917Y-38746D01*
X51876Y-38780D01*
X51843Y-38817D01*
X51820Y-38855D01*
X51820Y-38855D01*
X51813Y-38872D01*
X51810Y-38887D01*
X51809Y-38903D01*
X51813Y-38918D01*
X51821Y-38936D01*
X51834Y-38955D01*
X51853Y-38978D01*
X51879Y-39005D01*
X51911Y-39038D01*
X51951Y-39075D01*
X51999Y-39120D01*
X52007Y-39127D01*
X52040Y-39157D01*
X52070Y-39185D01*
X52095Y-39209D01*
X52116Y-39228D01*
X52130Y-39242D01*
X52138Y-39249D01*
X52138Y-39250D01*
X52134Y-39254D01*
X52122Y-39263D01*
X52105Y-39276D01*
X52096Y-39283D01*
X52055Y-39310D01*
X52006Y-39337D01*
X51952Y-39364D01*
X51895Y-39389D01*
X51838Y-39410D01*
X51785Y-39427D01*
X51738Y-39439D01*
X51730Y-39441D01*
X51705Y-39444D01*
X51678Y-39446D01*
X51651Y-39446D01*
X51629Y-39445D01*
X51615Y-39443D01*
X51600Y-39433D01*
X51582Y-39417D01*
X51567Y-39396D01*
X51561Y-39385D01*
X51553Y-39361D01*
X51549Y-39331D01*
X51550Y-39299D01*
X51554Y-39270D01*
X51558Y-39258D01*
X51567Y-39243D01*
X51580Y-39228D01*
X51594Y-39217D01*
X51605Y-39212D01*
X51606Y-39212D01*
X51608Y-39217D01*
X51609Y-39230D01*
X51609Y-39232D01*
X51610Y-39246D01*
X51615Y-39256D01*
X51626Y-39262D01*
X51645Y-39264D01*
X51672Y-39264D01*
X51684Y-39263D01*
X51757Y-39254D01*
X51826Y-39236D01*
X51876Y-39216D01*
X51917Y-39197D01*
X51878Y-39171D01*
X51827Y-39132D01*
X51784Y-39083D01*
X51770Y-39065D01*
X51743Y-39014D01*
X51725Y-38959D01*
X51716Y-38900D01*
X51717Y-38842D01*
X51728Y-38785D01*
X51739Y-38753D01*
X51769Y-38695D01*
X51806Y-38640D01*
X51850Y-38591D01*
X51898Y-38549D01*
X51950Y-38515D01*
X51993Y-38495D01*
X52030Y-38486D01*
X52069Y-38483D01*
X52106Y-38486D01*
X52126Y-38491D01*
X52150Y-38500D01*
X52147Y-38471D01*
X52143Y-38442D01*
X52163Y-38448D01*
X52185Y-38453D01*
X52214Y-38459D01*
X52248Y-38465D01*
X52282Y-38470D01*
X52314Y-38474D01*
X52340Y-38476D01*
X52350Y-38477D01*
X52384Y-38476D01*
X52423Y-38393D01*
X52457Y-38317D01*
X52486Y-38251D01*
X52511Y-38192D01*
X52531Y-38138D01*
X52548Y-38090D01*
X52563Y-38044D01*
X52571Y-38015D01*
X52578Y-37990D01*
X52584Y-37969D01*
X52589Y-37955D01*
X52591Y-37951D01*
X52595Y-37953D01*
X52601Y-37964D01*
X52608Y-37982D01*
X52616Y-38004D01*
X52622Y-38027D01*
X52627Y-38050D01*
X52631Y-38100D01*
X52627Y-38157D01*
X52617Y-38221D01*
X52600Y-38290D01*
X52577Y-38363D01*
X52548Y-38439D01*
X52542Y-38455D01*
X52532Y-38477D01*
X52616Y-38473D01*
X52652Y-38472D01*
X52678Y-38471D01*
X52697Y-38472D01*
X52713Y-38474D01*
X52728Y-38478D01*
X52733Y-38479D01*
X52767Y-38492D01*
X52799Y-38508D01*
X52833Y-38528D01*
X52864Y-38550D01*
X52884Y-38564D01*
X52900Y-38575D01*
X52909Y-38581D01*
X52911Y-38581D01*
X52913Y-38575D01*
X52917Y-38560D01*
X52920Y-38543D01*
X52925Y-38523D01*
X52929Y-38513D01*
X52933Y-38511D01*
X52937Y-38513D01*
X52950Y-38529D01*
X52960Y-38554D01*
X52967Y-38587D01*
X52972Y-38631D01*
X52973Y-38646D01*
X52977Y-38721D01*
X52994Y-38688D01*
X53016Y-38651D01*
X53045Y-38611D01*
X53077Y-38573D01*
X53110Y-38540D01*
X53118Y-38533D01*
X53161Y-38501D01*
X53208Y-38475D01*
X53256Y-38456D01*
X53303Y-38445D01*
X53348Y-38441D01*
X53389Y-38446D01*
X53418Y-38456D01*
X53437Y-38466D01*
X53455Y-38476D01*
X53461Y-38481D01*
X53476Y-38493D01*
X53476Y-38493D01*
X53476Y-38493D01*
G37*
G36*
X51083Y-37955D02*
X51080Y-37960D01*
X51072Y-37973D01*
X51059Y-37992D01*
X51042Y-38016D01*
X51029Y-38035D01*
X50967Y-38129D01*
X50910Y-38226D01*
X50858Y-38328D01*
X50810Y-38434D01*
X50766Y-38547D01*
X50725Y-38668D01*
X50687Y-38798D01*
X50652Y-38937D01*
X50630Y-39035D01*
X50617Y-39092D01*
X50607Y-39138D01*
X50597Y-39176D01*
X50589Y-39206D01*
X50581Y-39230D01*
X50572Y-39249D01*
X50563Y-39266D01*
X50553Y-39280D01*
X50541Y-39295D01*
X50536Y-39299D01*
X50520Y-39313D01*
X50499Y-39327D01*
X50477Y-39337D01*
X50460Y-39341D01*
X50458Y-39341D01*
X50447Y-39337D01*
X50430Y-39327D01*
X50408Y-39312D01*
X50384Y-39294D01*
X50360Y-39275D01*
X50339Y-39255D01*
X50327Y-39242D01*
X50288Y-39193D01*
X50257Y-39138D01*
X50233Y-39075D01*
X50221Y-39026D01*
X50215Y-38995D01*
X50209Y-38956D01*
X50204Y-38912D01*
X50200Y-38868D01*
X50198Y-38827D01*
X50197Y-38803D01*
X50197Y-38784D01*
X50196Y-38770D01*
X50195Y-38762D01*
X50194Y-38762D01*
X50191Y-38768D01*
X50188Y-38784D01*
X50185Y-38808D01*
X50179Y-38842D01*
X50173Y-38886D01*
X50165Y-38941D01*
X50165Y-38941D01*
X50159Y-38986D01*
X50152Y-39030D01*
X50145Y-39072D01*
X50138Y-39108D01*
X50133Y-39137D01*
X50130Y-39150D01*
X50117Y-39195D01*
X50101Y-39237D01*
X50083Y-39274D01*
X50064Y-39303D01*
X50045Y-39323D01*
X50022Y-39341D01*
X50025Y-39319D01*
X50026Y-39309D01*
X50028Y-39288D01*
X50030Y-39258D01*
X50033Y-39220D01*
X50037Y-39177D01*
X50041Y-39128D01*
X50046Y-39076D01*
X50048Y-39053D01*
X50056Y-38958D01*
X50064Y-38874D01*
X50071Y-38799D01*
X50079Y-38732D01*
X50087Y-38670D01*
X50095Y-38614D01*
X50103Y-38561D01*
X50113Y-38510D01*
X50124Y-38459D01*
X50135Y-38408D01*
X50147Y-38360D01*
X50155Y-38331D01*
X50164Y-38297D01*
X50176Y-38259D01*
X50188Y-38220D01*
X50200Y-38181D01*
X50212Y-38145D01*
X50222Y-38114D01*
X50231Y-38089D01*
X50238Y-38073D01*
X50239Y-38069D01*
X50251Y-38057D01*
X50272Y-38046D01*
X50296Y-38039D01*
X50321Y-38040D01*
X50348Y-38051D01*
X50376Y-38072D01*
X50399Y-38092D01*
X50375Y-38161D01*
X50348Y-38242D01*
X50328Y-38318D01*
X50313Y-38393D01*
X50304Y-38470D01*
X50299Y-38552D01*
X50297Y-38623D01*
X50300Y-38731D01*
X50307Y-38829D01*
X50319Y-38917D01*
X50337Y-38994D01*
X50359Y-39062D01*
X50384Y-39115D01*
X50396Y-39135D01*
X50410Y-39154D01*
X50424Y-39171D01*
X50437Y-39182D01*
X50445Y-39188D01*
X50448Y-39187D01*
X50450Y-39180D01*
X50454Y-39164D01*
X50459Y-39139D01*
X50466Y-39107D01*
X50474Y-39069D01*
X50482Y-39028D01*
X50483Y-39025D01*
X50499Y-38945D01*
X50514Y-38875D01*
X50529Y-38812D01*
X50543Y-38754D01*
X50558Y-38700D01*
X50574Y-38647D01*
X50585Y-38611D01*
X50626Y-38495D01*
X50672Y-38389D01*
X50721Y-38294D01*
X50773Y-38210D01*
X50830Y-38136D01*
X50890Y-38074D01*
X50953Y-38022D01*
X51020Y-37981D01*
X51041Y-37971D01*
X51061Y-37963D01*
X51075Y-37957D01*
X51083Y-37955D01*
X51083Y-37955D01*
X51083Y-37955D01*
X51083Y-37955D01*
G37*
G36*
X56282Y-38912D02*
X56281Y-38947D01*
X56280Y-38979D01*
X56279Y-39005D01*
X56277Y-39023D01*
X56275Y-39030D01*
X56270Y-39044D01*
X56264Y-39064D01*
X56262Y-39076D01*
X56252Y-39108D01*
X56236Y-39144D01*
X56215Y-39181D01*
X56190Y-39216D01*
X56165Y-39247D01*
X56140Y-39271D01*
X56117Y-39286D01*
X56098Y-39295D01*
X56094Y-39298D01*
X56094Y-38939D01*
X56094Y-38909D01*
X56094Y-38863D01*
X56092Y-38826D01*
X56090Y-38796D01*
X56087Y-38771D01*
X56081Y-38748D01*
X56074Y-38725D01*
X56064Y-38700D01*
X56063Y-38699D01*
X56045Y-38671D01*
X56019Y-38647D01*
X55986Y-38629D01*
X55950Y-38619D01*
X55932Y-38618D01*
X55903Y-38621D01*
X55873Y-38631D01*
X55845Y-38645D01*
X55824Y-38662D01*
X55823Y-38663D01*
X55804Y-38690D01*
X55788Y-38725D01*
X55776Y-38764D01*
X55773Y-38780D01*
X55770Y-38804D01*
X55768Y-38838D01*
X55768Y-38880D01*
X55768Y-38926D01*
X55770Y-38964D01*
X55771Y-38992D01*
X55772Y-39014D01*
X55774Y-39031D01*
X55778Y-39045D01*
X55782Y-39059D01*
X55789Y-39075D01*
X55791Y-39079D01*
X55806Y-39113D01*
X55822Y-39137D01*
X55840Y-39155D01*
X55863Y-39168D01*
X55891Y-39177D01*
X55909Y-39180D01*
X55933Y-39180D01*
X55958Y-39178D01*
X55979Y-39174D01*
X55991Y-39169D01*
X56017Y-39154D01*
X56034Y-39144D01*
X56042Y-39137D01*
X56044Y-39134D01*
X56047Y-39127D01*
X56054Y-39114D01*
X56058Y-39109D01*
X56068Y-39090D01*
X56075Y-39069D01*
X56076Y-39066D01*
X56080Y-39050D01*
X56086Y-39037D01*
X56087Y-39036D01*
X56090Y-39027D01*
X56092Y-39008D01*
X56093Y-38979D01*
X56094Y-38939D01*
X56094Y-39298D01*
X56082Y-39304D01*
X56046Y-39320D01*
X56001Y-39331D01*
X55951Y-39338D01*
X55901Y-39339D01*
X55867Y-39337D01*
X55849Y-39334D01*
X55835Y-39330D01*
X55835Y-39330D01*
X55823Y-39326D01*
X55804Y-39320D01*
X55791Y-39315D01*
X55768Y-39306D01*
X55743Y-39293D01*
X55727Y-39282D01*
X55711Y-39270D01*
X55698Y-39262D01*
X55691Y-39259D01*
X55685Y-39255D01*
X55685Y-39254D01*
X55682Y-39246D01*
X55672Y-39234D01*
X55664Y-39223D01*
X55646Y-39198D01*
X55628Y-39166D01*
X55613Y-39133D01*
X55603Y-39102D01*
X55600Y-39088D01*
X55596Y-39070D01*
X55591Y-39056D01*
X55589Y-39053D01*
X55587Y-39045D01*
X55585Y-39027D01*
X55584Y-39002D01*
X55583Y-38970D01*
X55582Y-38935D01*
X55582Y-38898D01*
X55582Y-38862D01*
X55583Y-38828D01*
X55583Y-38798D01*
X55585Y-38775D01*
X55586Y-38760D01*
X55587Y-38756D01*
X55593Y-38742D01*
X55594Y-38735D01*
X55600Y-38715D01*
X55610Y-38688D01*
X55624Y-38658D01*
X55640Y-38628D01*
X55647Y-38615D01*
X55682Y-38568D01*
X55723Y-38529D01*
X55770Y-38499D01*
X55821Y-38480D01*
X55835Y-38477D01*
X55856Y-38472D01*
X55873Y-38467D01*
X55880Y-38464D01*
X55891Y-38462D01*
X55909Y-38460D01*
X55930Y-38459D01*
X55953Y-38459D01*
X55973Y-38460D01*
X55988Y-38462D01*
X55993Y-38464D01*
X56000Y-38467D01*
X56015Y-38471D01*
X56027Y-38473D01*
X56057Y-38479D01*
X56091Y-38492D01*
X56125Y-38509D01*
X56154Y-38529D01*
X56155Y-38530D01*
X56188Y-38563D01*
X56218Y-38603D01*
X56242Y-38649D01*
X56259Y-38697D01*
X56261Y-38703D01*
X56267Y-38723D01*
X56273Y-38741D01*
X56275Y-38747D01*
X56278Y-38758D01*
X56279Y-38778D01*
X56281Y-38806D01*
X56282Y-38839D01*
X56282Y-38875D01*
X56282Y-38912D01*
X56282Y-38912D01*
X56282Y-38912D01*
G37*
G36*
X51529Y-38818D02*
X51528Y-38852D01*
X51527Y-38878D01*
X51524Y-38900D01*
X51519Y-38923D01*
X51512Y-38944D01*
X51486Y-39014D01*
X51454Y-39077D01*
X51412Y-39136D01*
X51408Y-39140D01*
X51408Y-38788D01*
X51407Y-38774D01*
X51403Y-38738D01*
X51394Y-38711D01*
X51379Y-38691D01*
X51356Y-38674D01*
X51337Y-38665D01*
X51298Y-38654D01*
X51256Y-38653D01*
X51214Y-38662D01*
X51188Y-38672D01*
X51149Y-38697D01*
X51108Y-38732D01*
X51067Y-38775D01*
X51028Y-38824D01*
X50992Y-38877D01*
X50961Y-38934D01*
X50939Y-38981D01*
X50923Y-39024D01*
X50914Y-39060D01*
X50913Y-39088D01*
X50920Y-39111D01*
X50933Y-39128D01*
X50947Y-39138D01*
X50964Y-39143D01*
X50990Y-39146D01*
X51021Y-39146D01*
X51055Y-39144D01*
X51088Y-39141D01*
X51117Y-39135D01*
X51135Y-39129D01*
X51192Y-39103D01*
X51243Y-39070D01*
X51290Y-39031D01*
X51330Y-38987D01*
X51363Y-38939D01*
X51387Y-38889D01*
X51403Y-38838D01*
X51408Y-38788D01*
X51408Y-39140D01*
X51374Y-39178D01*
X51344Y-39207D01*
X51310Y-39236D01*
X51273Y-39262D01*
X51239Y-39284D01*
X51224Y-39293D01*
X51175Y-39312D01*
X51122Y-39325D01*
X51068Y-39329D01*
X51016Y-39326D01*
X50978Y-39318D01*
X50932Y-39297D01*
X50893Y-39268D01*
X50860Y-39230D01*
X50835Y-39185D01*
X50817Y-39134D01*
X50807Y-39078D01*
X50807Y-39019D01*
X50809Y-38997D01*
X50821Y-38933D01*
X50841Y-38867D01*
X50868Y-38801D01*
X50900Y-38736D01*
X50937Y-38675D01*
X50978Y-38618D01*
X51022Y-38568D01*
X51067Y-38525D01*
X51113Y-38493D01*
X51129Y-38484D01*
X51161Y-38473D01*
X51200Y-38466D01*
X51241Y-38465D01*
X51281Y-38470D01*
X51295Y-38473D01*
X51349Y-38495D01*
X51398Y-38527D01*
X51441Y-38567D01*
X51477Y-38616D01*
X51505Y-38673D01*
X51518Y-38709D01*
X51523Y-38731D01*
X51527Y-38757D01*
X51528Y-38790D01*
X51529Y-38818D01*
X51529Y-38818D01*
X51529Y-38818D01*
G37*
G36*
X54087Y-38818D02*
X54087Y-38852D01*
X54085Y-38878D01*
X54082Y-38900D01*
X54077Y-38923D01*
X54071Y-38944D01*
X54045Y-39014D01*
X54012Y-39077D01*
X53971Y-39136D01*
X53966Y-39140D01*
X53966Y-38788D01*
X53966Y-38774D01*
X53961Y-38738D01*
X53952Y-38711D01*
X53937Y-38691D01*
X53915Y-38674D01*
X53896Y-38665D01*
X53857Y-38654D01*
X53815Y-38653D01*
X53772Y-38662D01*
X53747Y-38672D01*
X53707Y-38697D01*
X53666Y-38732D01*
X53626Y-38775D01*
X53587Y-38824D01*
X53551Y-38877D01*
X53519Y-38934D01*
X53498Y-38981D01*
X53482Y-39024D01*
X53473Y-39060D01*
X53472Y-39088D01*
X53478Y-39111D01*
X53492Y-39128D01*
X53506Y-39138D01*
X53523Y-39143D01*
X53548Y-39146D01*
X53579Y-39146D01*
X53613Y-39144D01*
X53646Y-39141D01*
X53676Y-39135D01*
X53694Y-39129D01*
X53750Y-39103D01*
X53802Y-39070D01*
X53848Y-39031D01*
X53888Y-38987D01*
X53921Y-38939D01*
X53946Y-38889D01*
X53961Y-38838D01*
X53966Y-38788D01*
X53966Y-39140D01*
X53933Y-39178D01*
X53903Y-39207D01*
X53868Y-39236D01*
X53832Y-39262D01*
X53798Y-39284D01*
X53782Y-39293D01*
X53733Y-39312D01*
X53680Y-39325D01*
X53626Y-39329D01*
X53575Y-39326D01*
X53536Y-39318D01*
X53491Y-39297D01*
X53452Y-39268D01*
X53419Y-39230D01*
X53393Y-39185D01*
X53375Y-39134D01*
X53366Y-39078D01*
X53365Y-39019D01*
X53368Y-38997D01*
X53380Y-38933D01*
X53399Y-38867D01*
X53426Y-38801D01*
X53458Y-38736D01*
X53496Y-38675D01*
X53537Y-38618D01*
X53580Y-38568D01*
X53626Y-38525D01*
X53672Y-38493D01*
X53687Y-38484D01*
X53719Y-38473D01*
X53758Y-38466D01*
X53800Y-38465D01*
X53839Y-38470D01*
X53853Y-38473D01*
X53907Y-38495D01*
X53956Y-38527D01*
X53999Y-38567D01*
X54035Y-38616D01*
X54064Y-38673D01*
X54077Y-38709D01*
X54082Y-38731D01*
X54085Y-38757D01*
X54087Y-38790D01*
X54087Y-38818D01*
X54087Y-38818D01*
X54087Y-38818D01*
G37*
G36*
X54732Y-38623D02*
X54637Y-38625D01*
X54541Y-38627D01*
X54541Y-38903D01*
X54541Y-39179D01*
X54634Y-39181D01*
X54726Y-39183D01*
X54726Y-39256D01*
X54726Y-39329D01*
X54441Y-39329D01*
X54156Y-39329D01*
X54156Y-39256D01*
X54156Y-39183D01*
X54248Y-39181D01*
X54341Y-39179D01*
X54341Y-38903D01*
X54341Y-38627D01*
X54248Y-38625D01*
X54156Y-38623D01*
X54156Y-38547D01*
X54156Y-38471D01*
X54444Y-38471D01*
X54732Y-38471D01*
X54732Y-38547D01*
X54732Y-38623D01*
X54732Y-38623D01*
X54732Y-38623D01*
G37*
G36*
X55514Y-39329D02*
X55409Y-39329D01*
X55373Y-39329D01*
X55343Y-39328D01*
X55321Y-39327D01*
X55307Y-39326D01*
X55303Y-39324D01*
X55300Y-39317D01*
X55293Y-39302D01*
X55283Y-39279D01*
X55269Y-39250D01*
X55253Y-39217D01*
X55245Y-39199D01*
X55225Y-39158D01*
X55203Y-39113D01*
X55182Y-39069D01*
X55163Y-39029D01*
X55148Y-38996D01*
X55147Y-38994D01*
X55130Y-38958D01*
X55111Y-38919D01*
X55093Y-38881D01*
X55077Y-38849D01*
X55074Y-38843D01*
X55041Y-38777D01*
X55039Y-39053D01*
X55038Y-39329D01*
X54952Y-39329D01*
X54916Y-39329D01*
X54890Y-39328D01*
X54874Y-39326D01*
X54866Y-39324D01*
X54864Y-39322D01*
X54864Y-39315D01*
X54863Y-39297D01*
X54863Y-39270D01*
X54863Y-39233D01*
X54863Y-39189D01*
X54863Y-39137D01*
X54863Y-39080D01*
X54863Y-39017D01*
X54863Y-38950D01*
X54863Y-38894D01*
X54865Y-38474D01*
X54973Y-38472D01*
X55082Y-38470D01*
X55107Y-38519D01*
X55118Y-38542D01*
X55128Y-38563D01*
X55135Y-38578D01*
X55137Y-38582D01*
X55142Y-38596D01*
X55152Y-38618D01*
X55165Y-38646D01*
X55179Y-38678D01*
X55194Y-38711D01*
X55209Y-38744D01*
X55223Y-38774D01*
X55234Y-38799D01*
X55243Y-38816D01*
X55244Y-38818D01*
X55254Y-38839D01*
X55267Y-38866D01*
X55279Y-38893D01*
X55281Y-38897D01*
X55293Y-38925D01*
X55305Y-38954D01*
X55316Y-38978D01*
X55317Y-38981D01*
X55326Y-38999D01*
X55334Y-39012D01*
X55339Y-39018D01*
X55340Y-39012D01*
X55341Y-38996D01*
X55342Y-38970D01*
X55342Y-38936D01*
X55343Y-38895D01*
X55343Y-38848D01*
X55344Y-38795D01*
X55344Y-38744D01*
X55344Y-38471D01*
X55429Y-38471D01*
X55514Y-38471D01*
X55514Y-38900D01*
X55514Y-39329D01*
X55514Y-39329D01*
X55514Y-39329D01*
G37*
G54D13*
X38700Y-34600D02*
X36400Y-34600D01*
X38700Y-36850D02*
X36400Y-36850D01*
X37850Y-35850D02*
X37850Y-35600D01*
X37550Y-35250D02*
X37550Y-34850D01*
X37550Y-36600D02*
X37550Y-36200D01*
X37750Y-35250D02*
X37750Y-36200D01*
X38700Y-36850D02*
X38700Y-34600D01*
X36400Y-36850D02*
X36400Y-34600D01*
X38650Y-34850D02*
X36450Y-34850D01*
X38650Y-36600D02*
X36450Y-36600D01*
X37750Y-35850D02*
X37850Y-35850D01*
X37850Y-35600D02*
X37750Y-35600D01*
X40552Y-40171D02*
X40552Y-40271D01*
X40761Y-40271D02*
X40361Y-40271D01*
X40361Y-40128D01*
X40361Y-40057D02*
X40361Y-39885D01*
X40761Y-39971D02*
X40361Y-39971D01*
X40400Y-39799D02*
X40380Y-39785D01*
X40361Y-39757D01*
X40361Y-39685D01*
X40380Y-39657D01*
X40400Y-39642D01*
X40438Y-39628D01*
X40476Y-39628D01*
X40533Y-39642D01*
X40761Y-39814D01*
X40761Y-39628D01*
X40361Y-39528D02*
X40361Y-39342D01*
X40514Y-39442D01*
X40514Y-39399D01*
X40533Y-39371D01*
X40552Y-39357D01*
X40590Y-39342D01*
X40685Y-39342D01*
X40723Y-39357D01*
X40742Y-39371D01*
X40761Y-39399D01*
X40761Y-39485D01*
X40742Y-39514D01*
X40723Y-39528D01*
X40400Y-39228D02*
X40380Y-39214D01*
X40361Y-39185D01*
X40361Y-39114D01*
X40380Y-39085D01*
X40400Y-39071D01*
X40438Y-39057D01*
X40476Y-39057D01*
X40533Y-39071D01*
X40761Y-39242D01*
X40761Y-39057D01*
X40761Y-38757D02*
X40571Y-38857D01*
X40761Y-38928D02*
X40361Y-38928D01*
X40361Y-38814D01*
X40380Y-38785D01*
X40400Y-38771D01*
X40438Y-38757D01*
X40495Y-38757D01*
X40533Y-38771D01*
X40552Y-38785D01*
X40571Y-38814D01*
X40571Y-38928D01*
X40761Y-38485D02*
X40761Y-38628D01*
X40361Y-38628D01*
X55792Y-42911D02*
X55621Y-42911D01*
X55707Y-42911D02*
X55707Y-42511D01*
X55678Y-42569D01*
X55650Y-42607D01*
X55621Y-42626D01*
X55978Y-42511D02*
X56007Y-42511D01*
X56035Y-42530D01*
X56050Y-42550D01*
X56064Y-42588D01*
X56078Y-42664D01*
X56078Y-42759D01*
X56064Y-42835D01*
X56050Y-42873D01*
X56035Y-42892D01*
X56007Y-42911D01*
X55978Y-42911D01*
X55950Y-42892D01*
X55935Y-42873D01*
X55921Y-42835D01*
X55907Y-42759D01*
X55907Y-42664D01*
X55921Y-42588D01*
X55935Y-42550D01*
X55950Y-42530D01*
X55978Y-42511D01*
X56207Y-42911D02*
X56207Y-42511D01*
X56378Y-42911D02*
X56250Y-42683D01*
X56378Y-42511D02*
X56207Y-42740D01*
X44935Y-41661D02*
X44764Y-41661D01*
X44850Y-41661D02*
X44850Y-41261D01*
X44821Y-41319D01*
X44792Y-41357D01*
X44764Y-41376D01*
X45064Y-41661D02*
X45064Y-41261D01*
X45235Y-41661D02*
X45107Y-41433D01*
X45235Y-41261D02*
X45064Y-41490D01*
X44935Y-40161D02*
X44764Y-40161D01*
X44850Y-40161D02*
X44850Y-39761D01*
X44821Y-39819D01*
X44792Y-39857D01*
X44764Y-39876D01*
X45064Y-40161D02*
X45064Y-39761D01*
X45235Y-40161D02*
X45107Y-39933D01*
X45235Y-39761D02*
X45064Y-39990D01*
X55935Y-41661D02*
X55764Y-41661D01*
X55850Y-41661D02*
X55850Y-41261D01*
X55821Y-41319D01*
X55792Y-41357D01*
X55764Y-41376D01*
X56064Y-41661D02*
X56064Y-41261D01*
X56235Y-41661D02*
X56107Y-41433D01*
X56235Y-41261D02*
X56064Y-41490D01*
X44935Y-45411D02*
X44764Y-45411D01*
X44850Y-45411D02*
X44850Y-45011D01*
X44821Y-45069D01*
X44792Y-45107D01*
X44764Y-45126D01*
X45064Y-45411D02*
X45064Y-45011D01*
X45235Y-45411D02*
X45107Y-45183D01*
X45235Y-45011D02*
X45064Y-45240D01*
X44935Y-44161D02*
X44764Y-44161D01*
X44850Y-44161D02*
X44850Y-43761D01*
X44821Y-43819D01*
X44792Y-43857D01*
X44764Y-43876D01*
X45064Y-44161D02*
X45064Y-43761D01*
X45235Y-44161D02*
X45107Y-43933D01*
X45235Y-43761D02*
X45064Y-43990D01*
X55935Y-44161D02*
X55764Y-44161D01*
X55850Y-44161D02*
X55850Y-43761D01*
X55821Y-43819D01*
X55792Y-43857D01*
X55764Y-43876D01*
X56064Y-44161D02*
X56064Y-43761D01*
X56235Y-44161D02*
X56107Y-43933D01*
X56235Y-43761D02*
X56064Y-43990D01*
X41721Y-54161D02*
X41567Y-54161D01*
X41644Y-54161D02*
X41644Y-53761D01*
X41618Y-53819D01*
X41592Y-53857D01*
X41567Y-53876D01*
X41837Y-54161D02*
X41837Y-53761D01*
X41991Y-54161D01*
X41991Y-53761D01*
X42235Y-53895D02*
X42235Y-54161D01*
X42171Y-53742D02*
X42107Y-54028D01*
X42274Y-54028D01*
X42428Y-53761D02*
X42454Y-53761D01*
X42480Y-53780D01*
X42492Y-53800D01*
X42505Y-53838D01*
X42518Y-53914D01*
X42518Y-54009D01*
X42505Y-54085D01*
X42492Y-54123D01*
X42480Y-54142D01*
X42454Y-54161D01*
X42428Y-54161D01*
X42402Y-54142D01*
X42390Y-54123D01*
X42377Y-54085D01*
X42364Y-54009D01*
X42364Y-53914D01*
X42377Y-53838D01*
X42390Y-53800D01*
X42402Y-53780D01*
X42428Y-53761D01*
X42685Y-53761D02*
X42711Y-53761D01*
X42737Y-53780D01*
X42750Y-53800D01*
X42762Y-53838D01*
X42775Y-53914D01*
X42775Y-54009D01*
X42762Y-54085D01*
X42750Y-54123D01*
X42737Y-54142D01*
X42711Y-54161D01*
X42685Y-54161D01*
X42660Y-54142D01*
X42647Y-54123D01*
X42634Y-54085D01*
X42621Y-54009D01*
X42621Y-53914D01*
X42634Y-53838D01*
X42647Y-53800D01*
X42660Y-53780D01*
X42685Y-53761D01*
X42865Y-53761D02*
X43045Y-53761D01*
X42930Y-54161D01*
X49992Y-43661D02*
X49821Y-43661D01*
X49907Y-43661D02*
X49907Y-43261D01*
X49878Y-43319D01*
X49850Y-43357D01*
X49821Y-43376D01*
X50250Y-43261D02*
X50192Y-43261D01*
X50164Y-43280D01*
X50150Y-43300D01*
X50121Y-43357D01*
X50107Y-43433D01*
X50107Y-43585D01*
X50121Y-43623D01*
X50135Y-43642D01*
X50164Y-43661D01*
X50221Y-43661D01*
X50250Y-43642D01*
X50264Y-43623D01*
X50278Y-43585D01*
X50278Y-43490D01*
X50264Y-43452D01*
X50250Y-43433D01*
X50221Y-43414D01*
X50164Y-43414D01*
X50135Y-43433D01*
X50121Y-43452D01*
X50107Y-43490D01*
X50407Y-43661D02*
X50407Y-43261D01*
X50507Y-43547D01*
X50607Y-43261D01*
X50607Y-43661D01*
X50750Y-43661D02*
X50750Y-43261D01*
X50750Y-43452D02*
X50921Y-43452D01*
X50921Y-43661D02*
X50921Y-43261D01*
X51035Y-43395D02*
X51192Y-43395D01*
X51035Y-43661D01*
X51192Y-43661D01*
X51507Y-45050D02*
X51521Y-45030D01*
X51550Y-45011D01*
X51621Y-45011D01*
X51650Y-45030D01*
X51664Y-45050D01*
X51678Y-45088D01*
X51678Y-45126D01*
X51664Y-45183D01*
X51492Y-45411D01*
X51678Y-45411D01*
X51792Y-45050D02*
X51807Y-45030D01*
X51835Y-45011D01*
X51907Y-45011D01*
X51935Y-45030D01*
X51950Y-45050D01*
X51964Y-45088D01*
X51964Y-45126D01*
X51950Y-45183D01*
X51778Y-45411D01*
X51964Y-45411D01*
X52092Y-45145D02*
X52092Y-45545D01*
X52092Y-45164D02*
X52121Y-45145D01*
X52178Y-45145D01*
X52207Y-45164D01*
X52221Y-45183D01*
X52235Y-45221D01*
X52235Y-45335D01*
X52221Y-45373D01*
X52207Y-45392D01*
X52178Y-45411D01*
X52121Y-45411D01*
X52092Y-45392D01*
X52464Y-45202D02*
X52364Y-45202D01*
X52364Y-45411D02*
X52364Y-45011D01*
X52507Y-45011D01*
X48507Y-45050D02*
X48521Y-45030D01*
X48550Y-45011D01*
X48621Y-45011D01*
X48650Y-45030D01*
X48664Y-45050D01*
X48678Y-45088D01*
X48678Y-45126D01*
X48664Y-45183D01*
X48492Y-45411D01*
X48678Y-45411D01*
X48792Y-45050D02*
X48807Y-45030D01*
X48835Y-45011D01*
X48907Y-45011D01*
X48935Y-45030D01*
X48950Y-45050D01*
X48964Y-45088D01*
X48964Y-45126D01*
X48950Y-45183D01*
X48778Y-45411D01*
X48964Y-45411D01*
X49092Y-45145D02*
X49092Y-45545D01*
X49092Y-45164D02*
X49121Y-45145D01*
X49178Y-45145D01*
X49207Y-45164D01*
X49221Y-45183D01*
X49235Y-45221D01*
X49235Y-45335D01*
X49221Y-45373D01*
X49207Y-45392D01*
X49178Y-45411D01*
X49121Y-45411D01*
X49092Y-45392D01*
X49464Y-45202D02*
X49364Y-45202D01*
X49364Y-45411D02*
X49364Y-45011D01*
X49507Y-45011D01*
X39661Y-44571D02*
X39661Y-44742D01*
X39661Y-44657D02*
X39261Y-44657D01*
X39319Y-44685D01*
X39357Y-44714D01*
X39376Y-44742D01*
X39261Y-44385D02*
X39261Y-44357D01*
X39280Y-44328D01*
X39300Y-44314D01*
X39338Y-44300D01*
X39414Y-44285D01*
X39509Y-44285D01*
X39585Y-44300D01*
X39623Y-44314D01*
X39642Y-44328D01*
X39661Y-44357D01*
X39661Y-44385D01*
X39642Y-44414D01*
X39623Y-44428D01*
X39585Y-44442D01*
X39509Y-44457D01*
X39414Y-44457D01*
X39338Y-44442D01*
X39300Y-44428D01*
X39280Y-44414D01*
X39261Y-44385D01*
X39395Y-44157D02*
X39661Y-44157D01*
X39433Y-44157D02*
X39414Y-44142D01*
X39395Y-44114D01*
X39395Y-44071D01*
X39414Y-44042D01*
X39452Y-44028D01*
X39661Y-44028D01*
X39452Y-43785D02*
X39452Y-43885D01*
X39661Y-43885D02*
X39261Y-43885D01*
X39261Y-43742D01*
X55535Y-45411D02*
X55364Y-45411D01*
X55450Y-45411D02*
X55450Y-45011D01*
X55421Y-45069D01*
X55392Y-45107D01*
X55364Y-45126D01*
X55721Y-45011D02*
X55750Y-45011D01*
X55778Y-45030D01*
X55792Y-45050D01*
X55807Y-45088D01*
X55821Y-45164D01*
X55821Y-45259D01*
X55807Y-45335D01*
X55792Y-45373D01*
X55778Y-45392D01*
X55750Y-45411D01*
X55721Y-45411D01*
X55692Y-45392D01*
X55678Y-45373D01*
X55664Y-45335D01*
X55650Y-45259D01*
X55650Y-45164D01*
X55664Y-45088D01*
X55678Y-45050D01*
X55692Y-45030D01*
X55721Y-45011D01*
X56007Y-45011D02*
X56035Y-45011D01*
X56064Y-45030D01*
X56078Y-45050D01*
X56092Y-45088D01*
X56107Y-45164D01*
X56107Y-45259D01*
X56092Y-45335D01*
X56078Y-45373D01*
X56064Y-45392D01*
X56035Y-45411D01*
X56007Y-45411D01*
X55978Y-45392D01*
X55964Y-45373D01*
X55950Y-45335D01*
X55935Y-45259D01*
X55935Y-45164D01*
X55950Y-45088D01*
X55964Y-45050D01*
X55978Y-45030D01*
X56007Y-45011D01*
X56235Y-45145D02*
X56235Y-45411D01*
X56235Y-45183D02*
X56249Y-45164D01*
X56278Y-45145D01*
X56321Y-45145D01*
X56349Y-45164D01*
X56364Y-45202D01*
X56364Y-45411D01*
X56607Y-45202D02*
X56507Y-45202D01*
X56507Y-45411D02*
X56507Y-45011D01*
X56650Y-45011D01*
X40535Y-37461D02*
X40364Y-37461D01*
X40450Y-37461D02*
X40450Y-37061D01*
X40421Y-37119D01*
X40392Y-37157D01*
X40364Y-37176D01*
X40721Y-37061D02*
X40750Y-37061D01*
X40778Y-37080D01*
X40792Y-37100D01*
X40807Y-37138D01*
X40821Y-37214D01*
X40821Y-37309D01*
X40807Y-37385D01*
X40792Y-37423D01*
X40778Y-37442D01*
X40750Y-37461D01*
X40721Y-37461D01*
X40692Y-37442D01*
X40678Y-37423D01*
X40664Y-37385D01*
X40650Y-37309D01*
X40650Y-37214D01*
X40664Y-37138D01*
X40678Y-37100D01*
X40692Y-37080D01*
X40721Y-37061D01*
X41007Y-37061D02*
X41035Y-37061D01*
X41064Y-37080D01*
X41078Y-37100D01*
X41092Y-37138D01*
X41107Y-37214D01*
X41107Y-37309D01*
X41092Y-37385D01*
X41078Y-37423D01*
X41064Y-37442D01*
X41035Y-37461D01*
X41007Y-37461D01*
X40978Y-37442D01*
X40964Y-37423D01*
X40950Y-37385D01*
X40935Y-37309D01*
X40935Y-37214D01*
X40950Y-37138D01*
X40964Y-37100D01*
X40978Y-37080D01*
X41007Y-37061D01*
X41235Y-37195D02*
X41235Y-37461D01*
X41235Y-37233D02*
X41249Y-37214D01*
X41278Y-37195D01*
X41321Y-37195D01*
X41349Y-37214D01*
X41364Y-37252D01*
X41364Y-37461D01*
X41607Y-37252D02*
X41507Y-37252D01*
X41507Y-37461D02*
X41507Y-37061D01*
X41650Y-37061D01*
X43911Y-48464D02*
X43911Y-48635D01*
X43911Y-48550D02*
X43511Y-48550D01*
X43569Y-48578D01*
X43607Y-48607D01*
X43626Y-48635D01*
X43511Y-48278D02*
X43511Y-48250D01*
X43530Y-48221D01*
X43550Y-48207D01*
X43588Y-48192D01*
X43664Y-48178D01*
X43759Y-48178D01*
X43835Y-48192D01*
X43873Y-48207D01*
X43892Y-48221D01*
X43911Y-48250D01*
X43911Y-48278D01*
X43892Y-48307D01*
X43873Y-48321D01*
X43835Y-48335D01*
X43759Y-48350D01*
X43664Y-48350D01*
X43588Y-48335D01*
X43550Y-48321D01*
X43530Y-48307D01*
X43511Y-48278D01*
X43511Y-47992D02*
X43511Y-47964D01*
X43530Y-47935D01*
X43550Y-47921D01*
X43588Y-47907D01*
X43664Y-47892D01*
X43759Y-47892D01*
X43835Y-47907D01*
X43873Y-47921D01*
X43892Y-47935D01*
X43911Y-47964D01*
X43911Y-47992D01*
X43892Y-48021D01*
X43873Y-48035D01*
X43835Y-48050D01*
X43759Y-48064D01*
X43664Y-48064D01*
X43588Y-48050D01*
X43550Y-48035D01*
X43530Y-48021D01*
X43511Y-47992D01*
X43645Y-47764D02*
X43911Y-47764D01*
X43683Y-47764D02*
X43664Y-47750D01*
X43645Y-47721D01*
X43645Y-47678D01*
X43664Y-47650D01*
X43702Y-47635D01*
X43911Y-47635D01*
X43702Y-47392D02*
X43702Y-47492D01*
X43911Y-47492D02*
X43511Y-47492D01*
X43511Y-47350D01*
X34511Y-40378D02*
X34835Y-40378D01*
X34873Y-40364D01*
X34892Y-40350D01*
X34911Y-40321D01*
X34911Y-40264D01*
X34892Y-40235D01*
X34873Y-40221D01*
X34835Y-40207D01*
X34511Y-40207D01*
X34892Y-40078D02*
X34911Y-40035D01*
X34911Y-39964D01*
X34892Y-39935D01*
X34873Y-39921D01*
X34835Y-39907D01*
X34797Y-39907D01*
X34759Y-39921D01*
X34740Y-39935D01*
X34721Y-39964D01*
X34702Y-40021D01*
X34683Y-40050D01*
X34664Y-40064D01*
X34626Y-40078D01*
X34588Y-40078D01*
X34550Y-40064D01*
X34530Y-40050D01*
X34511Y-40021D01*
X34511Y-39950D01*
X34530Y-39907D01*
X34702Y-39678D02*
X34721Y-39635D01*
X34740Y-39621D01*
X34778Y-39607D01*
X34835Y-39607D01*
X34873Y-39621D01*
X34892Y-39635D01*
X34911Y-39664D01*
X34911Y-39778D01*
X34511Y-39778D01*
X34511Y-39678D01*
X34530Y-39650D01*
X34550Y-39635D01*
X34588Y-39621D01*
X34626Y-39621D01*
X34664Y-39635D01*
X34683Y-39650D01*
X34702Y-39678D01*
X34702Y-39778D01*
X34797Y-53057D02*
X34797Y-52914D01*
X34911Y-53085D02*
X34511Y-52985D01*
X34911Y-52885D01*
X34911Y-52742D02*
X34892Y-52771D01*
X34854Y-52785D01*
X34511Y-52785D01*
X34911Y-52628D02*
X34645Y-52628D01*
X34511Y-52628D02*
X34530Y-52642D01*
X34550Y-52628D01*
X34530Y-52614D01*
X34511Y-52628D01*
X34550Y-52628D01*
X34911Y-52485D02*
X34645Y-52485D01*
X34683Y-52485D02*
X34664Y-52471D01*
X34645Y-52442D01*
X34645Y-52400D01*
X34664Y-52371D01*
X34702Y-52357D01*
X34911Y-52357D01*
X34702Y-52357D02*
X34664Y-52342D01*
X34645Y-52314D01*
X34645Y-52271D01*
X34664Y-52242D01*
X34702Y-52228D01*
X34911Y-52228D01*
X34892Y-51971D02*
X34911Y-52000D01*
X34911Y-52057D01*
X34892Y-52085D01*
X34854Y-52100D01*
X34702Y-52100D01*
X34664Y-52085D01*
X34645Y-52057D01*
X34645Y-52000D01*
X34664Y-51971D01*
X34702Y-51957D01*
X34740Y-51957D01*
X34778Y-52100D01*
X34645Y-51828D02*
X34911Y-51828D01*
X34683Y-51828D02*
X34664Y-51814D01*
X34645Y-51785D01*
X34645Y-51742D01*
X34664Y-51714D01*
X34702Y-51700D01*
X34911Y-51700D01*
X34645Y-51600D02*
X34645Y-51485D01*
X34511Y-51557D02*
X34854Y-51557D01*
X34892Y-51542D01*
X34911Y-51514D01*
X34911Y-51485D01*
X34911Y-51257D02*
X34702Y-51257D01*
X34664Y-51271D01*
X34645Y-51300D01*
X34645Y-51357D01*
X34664Y-51385D01*
X34892Y-51257D02*
X34911Y-51285D01*
X34911Y-51357D01*
X34892Y-51385D01*
X34854Y-51400D01*
X34816Y-51400D01*
X34778Y-51385D01*
X34759Y-51357D01*
X34759Y-51285D01*
X34740Y-51257D01*
X34892Y-50985D02*
X34911Y-51014D01*
X34911Y-51071D01*
X34892Y-51100D01*
X34873Y-51114D01*
X34835Y-51128D01*
X34721Y-51128D01*
X34683Y-51114D01*
X34664Y-51100D01*
X34645Y-51071D01*
X34645Y-51014D01*
X34664Y-50985D01*
X34930Y-51042D02*
X34950Y-51014D01*
X34988Y-51000D01*
X35026Y-51014D01*
X35045Y-51042D01*
X35045Y-51085D01*
X34911Y-50728D02*
X34702Y-50728D01*
X34664Y-50742D01*
X34645Y-50771D01*
X34645Y-50828D01*
X34664Y-50857D01*
X34892Y-50728D02*
X34911Y-50757D01*
X34911Y-50828D01*
X34892Y-50857D01*
X34854Y-50871D01*
X34816Y-50871D01*
X34778Y-50857D01*
X34759Y-50828D01*
X34759Y-50757D01*
X34740Y-50728D01*
X34550Y-50871D02*
X34530Y-50857D01*
X34511Y-50828D01*
X34550Y-50771D01*
X34530Y-50742D01*
X34511Y-50728D01*
X34911Y-50542D02*
X34892Y-50571D01*
X34873Y-50585D01*
X34835Y-50599D01*
X34721Y-50599D01*
X34683Y-50585D01*
X34664Y-50571D01*
X34645Y-50542D01*
X34645Y-50499D01*
X34664Y-50471D01*
X34683Y-50457D01*
X34721Y-50442D01*
X34835Y-50442D01*
X34873Y-50457D01*
X34892Y-50471D01*
X34911Y-50499D01*
X34911Y-50542D01*
X59107Y-42271D02*
X59107Y-41971D01*
X59421Y-42242D02*
X59407Y-42257D01*
X59364Y-42271D01*
X59335Y-42271D01*
X59292Y-42257D01*
X59264Y-42228D01*
X59250Y-42200D01*
X59235Y-42142D01*
X59235Y-42100D01*
X59250Y-42042D01*
X59264Y-42014D01*
X59292Y-41985D01*
X59335Y-41971D01*
X59364Y-41971D01*
X59407Y-41985D01*
X59421Y-42000D01*
X59535Y-42257D02*
X59578Y-42271D01*
X59650Y-42271D01*
X59678Y-42257D01*
X59692Y-42242D01*
X59707Y-42214D01*
X59707Y-42185D01*
X59692Y-42157D01*
X59678Y-42142D01*
X59650Y-42128D01*
X59592Y-42114D01*
X59564Y-42100D01*
X59550Y-42085D01*
X59535Y-42057D01*
X59535Y-42028D01*
X59550Y-42000D01*
X59564Y-41985D01*
X59592Y-41971D01*
X59664Y-41971D01*
X59707Y-41985D01*
X59835Y-42271D02*
X59835Y-41971D01*
X59950Y-41971D01*
X59978Y-41985D01*
X59992Y-42000D01*
X60007Y-42028D01*
X60007Y-42071D01*
X59992Y-42100D01*
X59978Y-42114D01*
X59950Y-42128D01*
X59835Y-42128D01*
X44935Y-38661D02*
X44764Y-38661D01*
X44850Y-38661D02*
X44850Y-38261D01*
X44821Y-38319D01*
X44792Y-38357D01*
X44764Y-38376D01*
X45064Y-38661D02*
X45064Y-38261D01*
X45235Y-38661D02*
X45107Y-38433D01*
X45235Y-38261D02*
X45064Y-38490D01*
X41661Y-44714D02*
X41661Y-44885D01*
X41661Y-44800D02*
X41261Y-44800D01*
X41319Y-44828D01*
X41357Y-44857D01*
X41376Y-44885D01*
X41261Y-44528D02*
X41261Y-44500D01*
X41280Y-44471D01*
X41300Y-44457D01*
X41338Y-44442D01*
X41414Y-44428D01*
X41509Y-44428D01*
X41585Y-44442D01*
X41623Y-44457D01*
X41642Y-44471D01*
X41661Y-44500D01*
X41661Y-44528D01*
X41642Y-44557D01*
X41623Y-44571D01*
X41585Y-44585D01*
X41509Y-44600D01*
X41414Y-44600D01*
X41338Y-44585D01*
X41300Y-44571D01*
X41280Y-44557D01*
X41261Y-44528D01*
X41261Y-44242D02*
X41261Y-44214D01*
X41280Y-44185D01*
X41300Y-44171D01*
X41338Y-44157D01*
X41414Y-44142D01*
X41509Y-44142D01*
X41585Y-44157D01*
X41623Y-44171D01*
X41642Y-44185D01*
X41661Y-44214D01*
X41661Y-44242D01*
X41642Y-44271D01*
X41623Y-44285D01*
X41585Y-44300D01*
X41509Y-44314D01*
X41414Y-44314D01*
X41338Y-44300D01*
X41300Y-44285D01*
X41280Y-44271D01*
X41261Y-44242D01*
X41395Y-44014D02*
X41661Y-44014D01*
X41433Y-44014D02*
X41414Y-44000D01*
X41395Y-43971D01*
X41395Y-43928D01*
X41414Y-43900D01*
X41452Y-43885D01*
X41661Y-43885D01*
X41452Y-43642D02*
X41452Y-43742D01*
X41661Y-43742D02*
X41261Y-43742D01*
X41261Y-43600D01*
X42178Y-51661D02*
X42007Y-51661D01*
X42092Y-51661D02*
X42092Y-51261D01*
X42064Y-51319D01*
X42035Y-51357D01*
X42007Y-51376D01*
X42364Y-51261D02*
X42392Y-51261D01*
X42421Y-51280D01*
X42435Y-51300D01*
X42450Y-51338D01*
X42464Y-51414D01*
X42464Y-51509D01*
X42450Y-51585D01*
X42435Y-51623D01*
X42421Y-51642D01*
X42392Y-51661D01*
X42364Y-51661D01*
X42335Y-51642D01*
X42321Y-51623D01*
X42307Y-51585D01*
X42292Y-51509D01*
X42292Y-51414D01*
X42307Y-51338D01*
X42321Y-51300D01*
X42335Y-51280D01*
X42364Y-51261D01*
X42721Y-51395D02*
X42721Y-51661D01*
X42592Y-51395D02*
X42592Y-51604D01*
X42607Y-51642D01*
X42635Y-51661D01*
X42678Y-51661D01*
X42707Y-51642D01*
X42721Y-51623D01*
X42964Y-51452D02*
X42864Y-51452D01*
X42864Y-51661D02*
X42864Y-51261D01*
X43007Y-51261D01*
X54457Y-48547D02*
X54600Y-48547D01*
X54428Y-48661D02*
X54528Y-48261D01*
X54628Y-48661D01*
X54685Y-48261D02*
X54857Y-48261D01*
X54771Y-48661D02*
X54771Y-48261D01*
X54957Y-48661D02*
X54957Y-48261D01*
X55057Y-48547D01*
X55157Y-48261D01*
X55157Y-48661D01*
X55300Y-48452D02*
X55400Y-48452D01*
X55442Y-48661D02*
X55300Y-48661D01*
X55300Y-48261D01*
X55442Y-48261D01*
X55728Y-48280D02*
X55700Y-48261D01*
X55657Y-48261D01*
X55614Y-48280D01*
X55585Y-48319D01*
X55571Y-48357D01*
X55557Y-48433D01*
X55557Y-48490D01*
X55571Y-48566D01*
X55585Y-48604D01*
X55614Y-48642D01*
X55657Y-48661D01*
X55685Y-48661D01*
X55728Y-48642D01*
X55742Y-48623D01*
X55742Y-48490D01*
X55685Y-48490D01*
X55857Y-48547D02*
X56000Y-48547D01*
X55828Y-48661D02*
X55928Y-48261D01*
X56028Y-48661D01*
X56100Y-48261D02*
X56285Y-48261D01*
X56185Y-48414D01*
X56228Y-48414D01*
X56257Y-48433D01*
X56271Y-48452D01*
X56285Y-48490D01*
X56285Y-48585D01*
X56271Y-48623D01*
X56257Y-48642D01*
X56228Y-48661D01*
X56142Y-48661D01*
X56114Y-48642D01*
X56100Y-48623D01*
X56542Y-48261D02*
X56485Y-48261D01*
X56457Y-48280D01*
X56442Y-48300D01*
X56414Y-48357D01*
X56400Y-48433D01*
X56400Y-48585D01*
X56414Y-48623D01*
X56428Y-48642D01*
X56457Y-48661D01*
X56514Y-48661D01*
X56542Y-48642D01*
X56557Y-48623D01*
X56571Y-48585D01*
X56571Y-48490D01*
X56557Y-48452D01*
X56542Y-48433D01*
X56514Y-48414D01*
X56457Y-48414D01*
X56428Y-48433D01*
X56414Y-48452D01*
X56400Y-48490D01*
X56742Y-48433D02*
X56714Y-48414D01*
X56700Y-48395D01*
X56685Y-48357D01*
X56685Y-48338D01*
X56700Y-48300D01*
X56714Y-48280D01*
X56742Y-48261D01*
X56800Y-48261D01*
X56828Y-48280D01*
X56842Y-48300D01*
X56857Y-48338D01*
X56857Y-48357D01*
X56842Y-48395D01*
X56828Y-48414D01*
X56800Y-48433D01*
X56742Y-48433D01*
X56714Y-48452D01*
X56700Y-48471D01*
X56685Y-48509D01*
X56685Y-48585D01*
X56700Y-48623D01*
X56714Y-48642D01*
X56742Y-48661D01*
X56800Y-48661D01*
X56828Y-48642D01*
X56842Y-48623D01*
X56857Y-48585D01*
X56857Y-48509D01*
X56842Y-48471D01*
X56828Y-48452D01*
X56800Y-48433D01*
X56985Y-48661D02*
X56985Y-48261D01*
X57099Y-48261D01*
X57128Y-48280D01*
X57142Y-48300D01*
X57157Y-48338D01*
X57157Y-48395D01*
X57142Y-48433D01*
X57128Y-48452D01*
X57099Y-48471D01*
X56985Y-48471D01*
X57285Y-48509D02*
X57514Y-48509D01*
X57657Y-48661D02*
X57657Y-48261D01*
X57771Y-48261D01*
X57800Y-48280D01*
X57814Y-48300D01*
X57828Y-48338D01*
X57828Y-48395D01*
X57814Y-48433D01*
X57800Y-48452D01*
X57771Y-48471D01*
X57657Y-48471D01*
X57957Y-48261D02*
X57957Y-48585D01*
X57971Y-48623D01*
X57985Y-48642D01*
X58014Y-48661D01*
X58071Y-48661D01*
X58100Y-48642D01*
X58114Y-48623D01*
X58128Y-48585D01*
X58128Y-48261D01*
X39011Y-48528D02*
X39011Y-48328D01*
X39411Y-48457D01*
X39183Y-48171D02*
X39164Y-48200D01*
X39145Y-48214D01*
X39107Y-48228D01*
X39088Y-48228D01*
X39050Y-48214D01*
X39030Y-48200D01*
X39011Y-48171D01*
X39011Y-48114D01*
X39030Y-48085D01*
X39050Y-48071D01*
X39088Y-48057D01*
X39107Y-48057D01*
X39145Y-48071D01*
X39164Y-48085D01*
X39183Y-48114D01*
X39183Y-48171D01*
X39202Y-48200D01*
X39221Y-48214D01*
X39259Y-48228D01*
X39335Y-48228D01*
X39373Y-48214D01*
X39392Y-48200D01*
X39411Y-48171D01*
X39411Y-48114D01*
X39392Y-48085D01*
X39373Y-48071D01*
X39335Y-48057D01*
X39259Y-48057D01*
X39221Y-48071D01*
X39202Y-48085D01*
X39183Y-48114D01*
X39011Y-47871D02*
X39011Y-47842D01*
X39030Y-47814D01*
X39050Y-47800D01*
X39088Y-47785D01*
X39164Y-47771D01*
X39259Y-47771D01*
X39335Y-47785D01*
X39373Y-47800D01*
X39392Y-47814D01*
X39411Y-47842D01*
X39411Y-47871D01*
X39392Y-47900D01*
X39373Y-47914D01*
X39335Y-47928D01*
X39259Y-47942D01*
X39164Y-47942D01*
X39088Y-47928D01*
X39050Y-47914D01*
X39030Y-47900D01*
X39011Y-47871D01*
X39011Y-47500D02*
X39011Y-47642D01*
X39202Y-47657D01*
X39183Y-47642D01*
X39164Y-47614D01*
X39164Y-47542D01*
X39183Y-47514D01*
X39202Y-47500D01*
X39240Y-47485D01*
X39335Y-47485D01*
X39373Y-47500D01*
X39392Y-47514D01*
X39411Y-47542D01*
X39411Y-47614D01*
X39392Y-47642D01*
X39373Y-47657D01*
M02*
