M48
;DRILL file {Pcbnew (2013-03-31 BZR 4008)-stable} date 04/02/2015 13:59:30
;FORMAT={-:-/ absolute / metric / decimal}
FMAT,2
METRIC,TZ
T1C0.500
T2C0.889
T3C2.540
T4C2.794
T5C3.048
%
G90
G05
M71
T1
X94.996Y-107.315
X98.552Y-126.238
X100.457Y-108.077
X102.743Y-104.013
X106.299Y-107.696
X128.27Y-117.094
X128.778Y-122.936
X132.334Y-114.744
X134.366Y-122.936
X138.049Y-101.854
X139.192Y-100.711
T2
X92.075Y-100.33
X92.075Y-102.87
X92.202Y-88.519
X92.202Y-92.964
X94.615Y-100.33
X94.615Y-102.87
X94.615Y-109.855
X94.615Y-112.395
X94.615Y-114.935
X98.552Y-88.519
X98.552Y-92.964
X100.33Y-109.855
X100.33Y-114.935
X101.6Y-94.742
X102.235Y-129.54
X102.235Y-132.08
X104.14Y-137.16
X105.156Y-88.9
X105.41Y-109.855
X105.41Y-114.935
X106.68Y-94.742
X107.696Y-88.9
X107.95Y-119.38
X107.95Y-121.92
X107.95Y-124.46
X110.236Y-88.9
X110.49Y-97.79
X110.49Y-101.6
X110.49Y-105.41
X110.49Y-111.76
X110.49Y-114.935
X111.125Y-119.38
X111.125Y-124.46
X111.76Y-137.16
X112.776Y-88.9
X114.3Y-137.16
X115.316Y-88.9
X116.84Y-119.38
X116.84Y-127.
X116.84Y-137.16
X117.856Y-88.9
X118.11Y-97.79
X118.11Y-101.6
X118.11Y-105.41
X118.11Y-111.76
X118.11Y-114.935
X119.38Y-119.38
X119.38Y-127.
X119.38Y-137.16
X120.396Y-88.9
X121.92Y-114.935
X121.92Y-119.38
X121.92Y-127.
X121.92Y-137.16
X122.555Y-97.79
X122.555Y-101.6
X122.555Y-105.41
X122.936Y-88.9
X124.46Y-119.38
X124.46Y-127.
X124.46Y-137.16
X125.095Y-97.79
X125.095Y-101.6
X125.095Y-105.41
X125.476Y-88.9
X125.73Y-110.49
X127.Y-114.935
X127.Y-119.38
X127.Y-127.
X127.Y-137.16
X128.016Y-88.9
X129.54Y-114.935
X129.54Y-119.38
X129.54Y-127.
X129.54Y-137.16
X130.81Y-110.49
X132.08Y-88.9
X132.08Y-119.38
X132.08Y-127.
X132.08Y-137.16
X134.62Y-88.9
X134.62Y-114.935
X134.62Y-119.38
X134.62Y-127.
X137.16Y-88.9
X137.16Y-119.38
X137.16Y-127.
X137.16Y-137.16
X138.43Y-105.41
X138.43Y-108.585
X138.43Y-111.76
X139.7Y-88.9
X139.7Y-114.935
X139.7Y-119.38
X139.7Y-127.
X139.7Y-137.16
X142.24Y-88.9
X142.24Y-119.38
X142.24Y-127.
X142.24Y-137.16
X144.78Y-88.9
X144.78Y-114.935
X144.78Y-119.38
X144.78Y-127.
X144.78Y-137.16
X146.05Y-101.6
X146.05Y-105.41
X146.05Y-108.585
X146.05Y-111.76
X147.32Y-88.9
X147.32Y-119.38
X147.32Y-127.
X147.32Y-137.16
X148.59Y-101.6
X149.86Y-88.9
X149.86Y-119.38
X149.86Y-127.
X149.86Y-137.16
X149.987Y-109.22
X149.987Y-111.76
X149.987Y-114.3
X152.527Y-109.22
X152.527Y-111.76
X152.527Y-114.3
T3
X89.535Y-95.25
X89.535Y-107.95
T4
X91.44Y-121.92
X92.075Y-131.445
X95.25Y-135.89
X98.425Y-131.445
T5
X100.33Y-137.16
X101.6Y-88.9
X152.4Y-104.14
X152.4Y-132.08
T0
M30
