G04 (created by PCBNEW (2013-03-31 BZR 4008)-stable) date 04/02/2015 14:31:49*
%MOIN*%
G04 Gerber Fmt 3.4, Leading zero omitted, Abs format*
%FSLAX34Y34*%
G01*
G70*
G90*
G04 APERTURE LIST*
%ADD10C,0*%
%ADD11C,0.007*%
%ADD12C,0.006*%
%ADD13C,0.014*%
%ADD14C,0.008*%
%ADD15C,0.00393701*%
%ADD16C,0.0001*%
G04 APERTURE END LIST*
G54D10*
G54D11*
X59154Y-48795D02*
X59154Y-49061D01*
X59154Y-48833D02*
X59135Y-48814D01*
X59097Y-48795D01*
X59040Y-48795D01*
X59002Y-48814D01*
X58983Y-48852D01*
X58983Y-49061D01*
X58735Y-49061D02*
X58773Y-49042D01*
X58792Y-49023D01*
X58811Y-48985D01*
X58811Y-48871D01*
X58792Y-48833D01*
X58773Y-48814D01*
X58735Y-48795D01*
X58678Y-48795D01*
X58640Y-48814D01*
X58621Y-48833D01*
X58602Y-48871D01*
X58602Y-48985D01*
X58621Y-49023D01*
X58640Y-49042D01*
X58678Y-49061D01*
X58735Y-49061D01*
X58450Y-49042D02*
X58411Y-49061D01*
X58335Y-49061D01*
X58297Y-49042D01*
X58278Y-49004D01*
X58278Y-48985D01*
X58297Y-48947D01*
X58335Y-48928D01*
X58392Y-48928D01*
X58430Y-48909D01*
X58450Y-48871D01*
X58450Y-48852D01*
X58430Y-48814D01*
X58392Y-48795D01*
X58335Y-48795D01*
X58297Y-48814D01*
X58164Y-48795D02*
X58011Y-48795D01*
X58107Y-48661D02*
X58107Y-49004D01*
X58088Y-49042D01*
X58050Y-49061D01*
X58011Y-49061D01*
X57878Y-49061D02*
X57878Y-48795D01*
X57878Y-48871D02*
X57859Y-48833D01*
X57840Y-48814D01*
X57802Y-48795D01*
X57764Y-48795D01*
X57573Y-49061D02*
X57611Y-49042D01*
X57630Y-49023D01*
X57650Y-48985D01*
X57650Y-48871D01*
X57630Y-48833D01*
X57611Y-48814D01*
X57573Y-48795D01*
X57516Y-48795D01*
X57478Y-48814D01*
X57459Y-48833D01*
X57440Y-48871D01*
X57440Y-48985D01*
X57459Y-49023D01*
X57478Y-49042D01*
X57516Y-49061D01*
X57573Y-49061D01*
X57269Y-49061D02*
X57269Y-48795D01*
X57269Y-48661D02*
X57288Y-48680D01*
X57269Y-48700D01*
X57250Y-48680D01*
X57269Y-48661D01*
X57269Y-48700D01*
X57078Y-48795D02*
X57078Y-49061D01*
X57078Y-48833D02*
X57059Y-48814D01*
X57021Y-48795D01*
X56964Y-48795D01*
X56926Y-48814D01*
X56907Y-48852D01*
X56907Y-49061D01*
X56659Y-49061D02*
X56697Y-49042D01*
X56716Y-49023D01*
X56735Y-48985D01*
X56735Y-48871D01*
X56716Y-48833D01*
X56697Y-48814D01*
X56659Y-48795D01*
X56602Y-48795D01*
X56564Y-48814D01*
X56545Y-48833D01*
X56526Y-48871D01*
X56526Y-48985D01*
X56545Y-49023D01*
X56564Y-49042D01*
X56602Y-49061D01*
X56659Y-49061D01*
X56354Y-49023D02*
X56335Y-49042D01*
X56354Y-49061D01*
X56373Y-49042D01*
X56354Y-49023D01*
X56354Y-49061D01*
X55992Y-48795D02*
X55992Y-49119D01*
X56011Y-49157D01*
X56030Y-49176D01*
X56069Y-49195D01*
X56126Y-49195D01*
X56164Y-49176D01*
X55992Y-49042D02*
X56030Y-49061D01*
X56107Y-49061D01*
X56145Y-49042D01*
X56164Y-49023D01*
X56183Y-48985D01*
X56183Y-48871D01*
X56164Y-48833D01*
X56145Y-48814D01*
X56107Y-48795D01*
X56030Y-48795D01*
X55992Y-48814D01*
X55802Y-49061D02*
X55802Y-48795D01*
X55802Y-48661D02*
X55821Y-48680D01*
X55802Y-48700D01*
X55783Y-48680D01*
X55802Y-48661D01*
X55802Y-48700D01*
X55669Y-48795D02*
X55516Y-48795D01*
X55611Y-48661D02*
X55611Y-49004D01*
X55592Y-49042D01*
X55554Y-49061D01*
X55516Y-49061D01*
X55383Y-49061D02*
X55383Y-48661D01*
X55211Y-49061D02*
X55211Y-48852D01*
X55230Y-48814D01*
X55269Y-48795D01*
X55326Y-48795D01*
X55364Y-48814D01*
X55383Y-48833D01*
X54850Y-48795D02*
X54850Y-49061D01*
X55021Y-48795D02*
X55021Y-49004D01*
X55002Y-49042D01*
X54964Y-49061D01*
X54907Y-49061D01*
X54869Y-49042D01*
X54850Y-49023D01*
X54659Y-49061D02*
X54659Y-48661D01*
X54659Y-48814D02*
X54621Y-48795D01*
X54545Y-48795D01*
X54507Y-48814D01*
X54488Y-48833D01*
X54469Y-48871D01*
X54469Y-48985D01*
X54488Y-49023D01*
X54507Y-49042D01*
X54545Y-49061D01*
X54621Y-49061D01*
X54659Y-49042D01*
X54297Y-49023D02*
X54278Y-49042D01*
X54297Y-49061D01*
X54316Y-49042D01*
X54297Y-49023D01*
X54297Y-49061D01*
X54107Y-49061D02*
X54107Y-48795D01*
X54107Y-48661D02*
X54126Y-48680D01*
X54107Y-48700D01*
X54088Y-48680D01*
X54107Y-48661D01*
X54107Y-48700D01*
X53859Y-49061D02*
X53897Y-49042D01*
X53916Y-49023D01*
X53935Y-48985D01*
X53935Y-48871D01*
X53916Y-48833D01*
X53897Y-48814D01*
X53859Y-48795D01*
X53802Y-48795D01*
X53764Y-48814D01*
X53745Y-48833D01*
X53726Y-48871D01*
X53726Y-48985D01*
X53745Y-49023D01*
X53764Y-49042D01*
X53802Y-49061D01*
X53859Y-49061D01*
X59021Y-48102D02*
X58964Y-48121D01*
X58945Y-48140D01*
X58926Y-48178D01*
X58926Y-48235D01*
X58945Y-48273D01*
X58964Y-48292D01*
X59002Y-48311D01*
X59154Y-48311D01*
X59154Y-47911D01*
X59021Y-47911D01*
X58983Y-47930D01*
X58964Y-47950D01*
X58945Y-47988D01*
X58945Y-48026D01*
X58964Y-48064D01*
X58983Y-48083D01*
X59021Y-48102D01*
X59154Y-48102D01*
X58678Y-47911D02*
X58602Y-47911D01*
X58564Y-47930D01*
X58526Y-47969D01*
X58507Y-48045D01*
X58507Y-48178D01*
X58526Y-48254D01*
X58564Y-48292D01*
X58602Y-48311D01*
X58678Y-48311D01*
X58716Y-48292D01*
X58754Y-48254D01*
X58773Y-48178D01*
X58773Y-48045D01*
X58754Y-47969D01*
X58716Y-47930D01*
X58678Y-47911D01*
X58354Y-48197D02*
X58164Y-48197D01*
X58392Y-48311D02*
X58259Y-47911D01*
X58126Y-48311D01*
X57764Y-48311D02*
X57897Y-48121D01*
X57992Y-48311D02*
X57992Y-47911D01*
X57840Y-47911D01*
X57802Y-47930D01*
X57783Y-47950D01*
X57764Y-47988D01*
X57764Y-48045D01*
X57783Y-48083D01*
X57802Y-48102D01*
X57840Y-48121D01*
X57992Y-48121D01*
X57592Y-48311D02*
X57592Y-47911D01*
X57497Y-47911D01*
X57440Y-47930D01*
X57402Y-47969D01*
X57383Y-48007D01*
X57364Y-48083D01*
X57364Y-48140D01*
X57383Y-48216D01*
X57402Y-48254D01*
X57440Y-48292D01*
X57497Y-48311D01*
X57592Y-48311D01*
X56945Y-47911D02*
X56811Y-48311D01*
X56678Y-47911D01*
X56545Y-48102D02*
X56411Y-48102D01*
X56354Y-48311D02*
X56545Y-48311D01*
X56545Y-47911D01*
X56354Y-47911D01*
X55954Y-48311D02*
X56088Y-48121D01*
X56183Y-48311D02*
X56183Y-47911D01*
X56030Y-47911D01*
X55992Y-47930D01*
X55973Y-47950D01*
X55954Y-47988D01*
X55954Y-48045D01*
X55973Y-48083D01*
X55992Y-48102D01*
X56030Y-48121D01*
X56183Y-48121D01*
X55802Y-48292D02*
X55745Y-48311D01*
X55650Y-48311D01*
X55611Y-48292D01*
X55592Y-48273D01*
X55573Y-48235D01*
X55573Y-48197D01*
X55592Y-48159D01*
X55611Y-48140D01*
X55650Y-48121D01*
X55726Y-48102D01*
X55764Y-48083D01*
X55783Y-48064D01*
X55802Y-48026D01*
X55802Y-47988D01*
X55783Y-47950D01*
X55764Y-47930D01*
X55726Y-47911D01*
X55630Y-47911D01*
X55573Y-47930D01*
X55402Y-48311D02*
X55402Y-47911D01*
X55135Y-47911D02*
X55059Y-47911D01*
X55021Y-47930D01*
X54983Y-47969D01*
X54964Y-48045D01*
X54964Y-48178D01*
X54983Y-48254D01*
X55021Y-48292D01*
X55059Y-48311D01*
X55135Y-48311D01*
X55173Y-48292D01*
X55211Y-48254D01*
X55230Y-48178D01*
X55230Y-48045D01*
X55211Y-47969D01*
X55173Y-47930D01*
X55135Y-47911D01*
X54792Y-48311D02*
X54792Y-47911D01*
X54564Y-48311D01*
X54564Y-47911D01*
X54088Y-47950D02*
X54069Y-47930D01*
X54030Y-47911D01*
X53935Y-47911D01*
X53897Y-47930D01*
X53878Y-47950D01*
X53859Y-47988D01*
X53859Y-48026D01*
X53878Y-48083D01*
X54107Y-48311D01*
X53859Y-48311D01*
X53611Y-47911D02*
X53573Y-47911D01*
X53535Y-47930D01*
X53516Y-47950D01*
X53497Y-47988D01*
X53478Y-48064D01*
X53478Y-48159D01*
X53497Y-48235D01*
X53516Y-48273D01*
X53535Y-48292D01*
X53573Y-48311D01*
X53611Y-48311D01*
X53650Y-48292D01*
X53669Y-48273D01*
X53688Y-48235D01*
X53707Y-48159D01*
X53707Y-48064D01*
X53688Y-47988D01*
X53669Y-47950D01*
X53650Y-47930D01*
X53611Y-47911D01*
X53097Y-48311D02*
X53326Y-48311D01*
X53211Y-48311D02*
X53211Y-47911D01*
X53250Y-47969D01*
X53288Y-48007D01*
X53326Y-48026D01*
X52735Y-47911D02*
X52926Y-47911D01*
X52945Y-48102D01*
X52926Y-48083D01*
X52888Y-48064D01*
X52792Y-48064D01*
X52754Y-48083D01*
X52735Y-48102D01*
X52716Y-48140D01*
X52716Y-48235D01*
X52735Y-48273D01*
X52754Y-48292D01*
X52792Y-48311D01*
X52888Y-48311D01*
X52926Y-48292D01*
X52945Y-48273D01*
X52545Y-48273D02*
X52526Y-48292D01*
X52545Y-48311D01*
X52564Y-48292D01*
X52545Y-48273D01*
X52545Y-48311D01*
X52278Y-47911D02*
X52240Y-47911D01*
X52202Y-47930D01*
X52183Y-47950D01*
X52164Y-47988D01*
X52145Y-48064D01*
X52145Y-48159D01*
X52164Y-48235D01*
X52183Y-48273D01*
X52202Y-48292D01*
X52240Y-48311D01*
X52278Y-48311D01*
X52316Y-48292D01*
X52335Y-48273D01*
X52354Y-48235D01*
X52373Y-48159D01*
X52373Y-48064D01*
X52354Y-47988D01*
X52335Y-47950D01*
X52316Y-47930D01*
X52278Y-47911D01*
X51992Y-47950D02*
X51973Y-47930D01*
X51935Y-47911D01*
X51840Y-47911D01*
X51802Y-47930D01*
X51783Y-47950D01*
X51764Y-47988D01*
X51764Y-48026D01*
X51783Y-48083D01*
X52011Y-48311D01*
X51764Y-48311D01*
X51592Y-48273D02*
X51573Y-48292D01*
X51592Y-48311D01*
X51611Y-48292D01*
X51592Y-48273D01*
X51592Y-48311D01*
X51326Y-47911D02*
X51288Y-47911D01*
X51250Y-47930D01*
X51230Y-47950D01*
X51211Y-47988D01*
X51192Y-48064D01*
X51192Y-48159D01*
X51211Y-48235D01*
X51230Y-48273D01*
X51250Y-48292D01*
X51288Y-48311D01*
X51326Y-48311D01*
X51364Y-48292D01*
X51383Y-48273D01*
X51402Y-48235D01*
X51421Y-48159D01*
X51421Y-48064D01*
X51402Y-47988D01*
X51383Y-47950D01*
X51364Y-47930D01*
X51326Y-47911D01*
X50850Y-48045D02*
X50850Y-48311D01*
X50945Y-47892D02*
X51040Y-48178D01*
X50792Y-48178D01*
G54D12*
X59250Y-47700D02*
X50300Y-47700D01*
X59250Y-49300D02*
X50300Y-49300D01*
X58980Y-53125D02*
X59019Y-53141D01*
X59096Y-53141D01*
X59134Y-53125D01*
X59153Y-53108D01*
X59173Y-53075D01*
X59173Y-52975D01*
X59153Y-52941D01*
X59134Y-52925D01*
X59096Y-52908D01*
X59019Y-52908D01*
X58980Y-52925D01*
X58807Y-53141D02*
X58807Y-52908D01*
X58807Y-52975D02*
X58788Y-52941D01*
X58769Y-52925D01*
X58730Y-52908D01*
X58692Y-52908D01*
X58403Y-53125D02*
X58442Y-53141D01*
X58518Y-53141D01*
X58557Y-53125D01*
X58576Y-53091D01*
X58576Y-52958D01*
X58557Y-52925D01*
X58518Y-52908D01*
X58442Y-52908D01*
X58403Y-52925D01*
X58384Y-52958D01*
X58384Y-52991D01*
X58576Y-53025D01*
X58037Y-53141D02*
X58037Y-52958D01*
X58057Y-52925D01*
X58095Y-52908D01*
X58172Y-52908D01*
X58211Y-52925D01*
X58037Y-53125D02*
X58076Y-53141D01*
X58172Y-53141D01*
X58211Y-53125D01*
X58230Y-53091D01*
X58230Y-53058D01*
X58211Y-53025D01*
X58172Y-53008D01*
X58076Y-53008D01*
X58037Y-52991D01*
X57903Y-52908D02*
X57749Y-52908D01*
X57845Y-52791D02*
X57845Y-53091D01*
X57826Y-53125D01*
X57787Y-53141D01*
X57749Y-53141D01*
X57614Y-53141D02*
X57614Y-52908D01*
X57614Y-52791D02*
X57634Y-52808D01*
X57614Y-52825D01*
X57595Y-52808D01*
X57614Y-52791D01*
X57614Y-52825D01*
X57460Y-52908D02*
X57364Y-53141D01*
X57268Y-52908D01*
X56960Y-53125D02*
X56999Y-53141D01*
X57076Y-53141D01*
X57114Y-53125D01*
X57133Y-53091D01*
X57133Y-52958D01*
X57114Y-52925D01*
X57076Y-52908D01*
X56999Y-52908D01*
X56960Y-52925D01*
X56941Y-52958D01*
X56941Y-52991D01*
X57133Y-53025D01*
X56595Y-53125D02*
X56633Y-53141D01*
X56710Y-53141D01*
X56749Y-53125D01*
X56768Y-53108D01*
X56787Y-53075D01*
X56787Y-52975D01*
X56768Y-52941D01*
X56749Y-52925D01*
X56710Y-52908D01*
X56633Y-52908D01*
X56595Y-52925D01*
X56364Y-53141D02*
X56402Y-53125D01*
X56421Y-53108D01*
X56441Y-53075D01*
X56441Y-52975D01*
X56421Y-52941D01*
X56402Y-52925D01*
X56364Y-52908D01*
X56306Y-52908D01*
X56268Y-52925D01*
X56248Y-52941D01*
X56229Y-52975D01*
X56229Y-53075D01*
X56248Y-53108D01*
X56268Y-53125D01*
X56306Y-53141D01*
X56364Y-53141D01*
X56056Y-53141D02*
X56056Y-52908D01*
X56056Y-52941D02*
X56037Y-52925D01*
X55998Y-52908D01*
X55941Y-52908D01*
X55902Y-52925D01*
X55883Y-52958D01*
X55883Y-53141D01*
X55883Y-52958D02*
X55864Y-52925D01*
X55825Y-52908D01*
X55767Y-52908D01*
X55729Y-52925D01*
X55710Y-52958D01*
X55710Y-53141D01*
X55517Y-53141D02*
X55517Y-52908D01*
X55517Y-52941D02*
X55498Y-52925D01*
X55460Y-52908D01*
X55402Y-52908D01*
X55363Y-52925D01*
X55344Y-52958D01*
X55344Y-53141D01*
X55344Y-52958D02*
X55325Y-52925D01*
X55286Y-52908D01*
X55229Y-52908D01*
X55190Y-52925D01*
X55171Y-52958D01*
X55171Y-53141D01*
X54921Y-53141D02*
X54959Y-53125D01*
X54979Y-53108D01*
X54998Y-53075D01*
X54998Y-52975D01*
X54979Y-52941D01*
X54959Y-52925D01*
X54921Y-52908D01*
X54863Y-52908D01*
X54825Y-52925D01*
X54806Y-52941D01*
X54786Y-52975D01*
X54786Y-53075D01*
X54806Y-53108D01*
X54825Y-53125D01*
X54863Y-53141D01*
X54921Y-53141D01*
X54613Y-52908D02*
X54613Y-53141D01*
X54613Y-52941D02*
X54594Y-52925D01*
X54555Y-52908D01*
X54498Y-52908D01*
X54459Y-52925D01*
X54440Y-52958D01*
X54440Y-53141D01*
X54267Y-53125D02*
X54228Y-53141D01*
X54151Y-53141D01*
X54113Y-53125D01*
X54094Y-53091D01*
X54094Y-53075D01*
X54113Y-53041D01*
X54151Y-53025D01*
X54209Y-53025D01*
X54248Y-53008D01*
X54267Y-52975D01*
X54267Y-52958D01*
X54248Y-52925D01*
X54209Y-52908D01*
X54151Y-52908D01*
X54113Y-52925D01*
X53921Y-53108D02*
X53901Y-53125D01*
X53921Y-53141D01*
X53940Y-53125D01*
X53921Y-53108D01*
X53921Y-53141D01*
X53670Y-53141D02*
X53709Y-53125D01*
X53728Y-53108D01*
X53747Y-53075D01*
X53747Y-52975D01*
X53728Y-52941D01*
X53709Y-52925D01*
X53670Y-52908D01*
X53613Y-52908D01*
X53574Y-52925D01*
X53555Y-52941D01*
X53536Y-52975D01*
X53536Y-53075D01*
X53555Y-53108D01*
X53574Y-53125D01*
X53613Y-53141D01*
X53670Y-53141D01*
X53363Y-53141D02*
X53363Y-52908D01*
X53363Y-52975D02*
X53343Y-52941D01*
X53324Y-52925D01*
X53286Y-52908D01*
X53247Y-52908D01*
X52939Y-52908D02*
X52939Y-53191D01*
X52959Y-53225D01*
X52978Y-53241D01*
X53016Y-53258D01*
X53074Y-53258D01*
X53113Y-53241D01*
X52939Y-53125D02*
X52978Y-53141D01*
X53055Y-53141D01*
X53093Y-53125D01*
X53113Y-53108D01*
X53132Y-53075D01*
X53132Y-52975D01*
X53113Y-52941D01*
X53093Y-52925D01*
X53055Y-52908D01*
X52978Y-52908D01*
X52939Y-52925D01*
X59250Y-39450D02*
X50300Y-39450D01*
X59250Y-35700D02*
X50300Y-35700D01*
G54D13*
X59078Y-38944D02*
X59078Y-38094D01*
X58907Y-38094D01*
X58804Y-38134D01*
X58735Y-38215D01*
X58701Y-38296D01*
X58667Y-38458D01*
X58667Y-38579D01*
X58701Y-38741D01*
X58735Y-38822D01*
X58804Y-38903D01*
X58907Y-38944D01*
X59078Y-38944D01*
X58358Y-38944D02*
X58358Y-38377D01*
X58358Y-38094D02*
X58392Y-38134D01*
X58358Y-38175D01*
X58324Y-38134D01*
X58358Y-38094D01*
X58358Y-38175D01*
X57741Y-38903D02*
X57810Y-38944D01*
X57947Y-38944D01*
X58015Y-38903D01*
X58050Y-38822D01*
X58050Y-38498D01*
X58015Y-38417D01*
X57947Y-38377D01*
X57810Y-38377D01*
X57741Y-38417D01*
X57707Y-38498D01*
X57707Y-38579D01*
X58050Y-38660D01*
X57090Y-38377D02*
X57090Y-39065D01*
X57124Y-39146D01*
X57158Y-39186D01*
X57227Y-39227D01*
X57330Y-39227D01*
X57398Y-39186D01*
X57090Y-38903D02*
X57158Y-38944D01*
X57295Y-38944D01*
X57364Y-38903D01*
X57398Y-38863D01*
X57432Y-38782D01*
X57432Y-38539D01*
X57398Y-38458D01*
X57364Y-38417D01*
X57295Y-38377D01*
X57158Y-38377D01*
X57090Y-38417D01*
X56644Y-38944D02*
X56712Y-38903D01*
X56747Y-38863D01*
X56781Y-38782D01*
X56781Y-38539D01*
X56747Y-38458D01*
X56712Y-38417D01*
X56644Y-38377D01*
X56541Y-38377D01*
X56472Y-38417D01*
X56438Y-38458D01*
X56404Y-38539D01*
X56404Y-38782D01*
X56438Y-38863D01*
X56472Y-38903D01*
X56541Y-38944D01*
X56644Y-38944D01*
X55650Y-38094D02*
X55410Y-38944D01*
X55170Y-38094D01*
X54827Y-38944D02*
X54895Y-38903D01*
X54929Y-38863D01*
X54964Y-38782D01*
X54964Y-38539D01*
X54929Y-38458D01*
X54895Y-38417D01*
X54827Y-38377D01*
X54724Y-38377D01*
X54655Y-38417D01*
X54621Y-38458D01*
X54587Y-38539D01*
X54587Y-38782D01*
X54621Y-38863D01*
X54655Y-38903D01*
X54724Y-38944D01*
X54827Y-38944D01*
X54175Y-38944D02*
X54244Y-38903D01*
X54278Y-38822D01*
X54278Y-38094D01*
X53901Y-38377D02*
X53901Y-39227D01*
X53901Y-38417D02*
X53832Y-38377D01*
X53695Y-38377D01*
X53627Y-38417D01*
X53592Y-38458D01*
X53558Y-38539D01*
X53558Y-38782D01*
X53592Y-38863D01*
X53627Y-38903D01*
X53695Y-38944D01*
X53832Y-38944D01*
X53901Y-38903D01*
X53249Y-38944D02*
X53249Y-38377D01*
X53249Y-38094D02*
X53284Y-38134D01*
X53249Y-38175D01*
X53215Y-38134D01*
X53249Y-38094D01*
X53249Y-38175D01*
X52907Y-38377D02*
X52907Y-38944D01*
X52907Y-38458D02*
X52872Y-38417D01*
X52804Y-38377D01*
X52701Y-38377D01*
X52632Y-38417D01*
X52598Y-38498D01*
X52598Y-38944D01*
X52255Y-38944D02*
X52255Y-38377D01*
X52255Y-38094D02*
X52289Y-38134D01*
X52255Y-38175D01*
X52221Y-38134D01*
X52255Y-38094D01*
X52255Y-38175D01*
X59112Y-37451D02*
X58770Y-37451D01*
X59181Y-37694D02*
X58941Y-36844D01*
X58701Y-37694D01*
X58461Y-37127D02*
X58461Y-37694D01*
X58461Y-37208D02*
X58427Y-37167D01*
X58358Y-37127D01*
X58255Y-37127D01*
X58187Y-37167D01*
X58152Y-37248D01*
X58152Y-37694D01*
X57501Y-37694D02*
X57501Y-36844D01*
X57501Y-37653D02*
X57569Y-37694D01*
X57707Y-37694D01*
X57775Y-37653D01*
X57809Y-37613D01*
X57844Y-37532D01*
X57844Y-37289D01*
X57809Y-37208D01*
X57775Y-37167D01*
X57707Y-37127D01*
X57569Y-37127D01*
X57501Y-37167D01*
X57158Y-37694D02*
X57158Y-37127D01*
X57158Y-37289D02*
X57124Y-37208D01*
X57089Y-37167D01*
X57021Y-37127D01*
X56952Y-37127D01*
X56438Y-37653D02*
X56507Y-37694D01*
X56644Y-37694D01*
X56712Y-37653D01*
X56747Y-37572D01*
X56747Y-37248D01*
X56712Y-37167D01*
X56644Y-37127D01*
X56507Y-37127D01*
X56438Y-37167D01*
X56404Y-37248D01*
X56404Y-37329D01*
X56747Y-37410D01*
X56507Y-36803D02*
X56609Y-36925D01*
X55581Y-37451D02*
X55238Y-37451D01*
X55650Y-37694D02*
X55410Y-36844D01*
X55170Y-37694D01*
X54929Y-37613D02*
X54895Y-37653D01*
X54929Y-37694D01*
X54964Y-37653D01*
X54929Y-37613D01*
X54929Y-37694D01*
X54072Y-37451D02*
X53730Y-37451D01*
X54141Y-37694D02*
X53901Y-36844D01*
X53661Y-37694D01*
X53421Y-37127D02*
X53421Y-37694D01*
X53421Y-37208D02*
X53387Y-37167D01*
X53318Y-37127D01*
X53215Y-37127D01*
X53147Y-37167D01*
X53112Y-37248D01*
X53112Y-37694D01*
X52461Y-37694D02*
X52461Y-36844D01*
X52461Y-37653D02*
X52529Y-37694D01*
X52667Y-37694D01*
X52735Y-37653D01*
X52769Y-37613D01*
X52804Y-37532D01*
X52804Y-37289D01*
X52769Y-37208D01*
X52735Y-37167D01*
X52667Y-37127D01*
X52529Y-37127D01*
X52461Y-37167D01*
X52118Y-37694D02*
X52118Y-37127D01*
X52118Y-37289D02*
X52084Y-37208D01*
X52049Y-37167D01*
X51981Y-37127D01*
X51912Y-37127D01*
X51398Y-37653D02*
X51467Y-37694D01*
X51604Y-37694D01*
X51672Y-37653D01*
X51707Y-37572D01*
X51707Y-37248D01*
X51672Y-37167D01*
X51604Y-37127D01*
X51467Y-37127D01*
X51398Y-37167D01*
X51364Y-37248D01*
X51364Y-37329D01*
X51707Y-37410D01*
X51055Y-37694D02*
X51055Y-37127D01*
X51055Y-36844D02*
X51089Y-36884D01*
X51055Y-36925D01*
X51021Y-36884D01*
X51055Y-36844D01*
X51055Y-36925D01*
X50747Y-37653D02*
X50678Y-37694D01*
X50541Y-37694D01*
X50472Y-37653D01*
X50438Y-37572D01*
X50438Y-37532D01*
X50472Y-37451D01*
X50541Y-37410D01*
X50644Y-37410D01*
X50712Y-37370D01*
X50747Y-37289D01*
X50747Y-37248D01*
X50712Y-37167D01*
X50644Y-37127D01*
X50541Y-37127D01*
X50472Y-37167D01*
G54D14*
X59130Y-36402D02*
X59130Y-35902D01*
X59011Y-35902D01*
X58940Y-35926D01*
X58892Y-35973D01*
X58869Y-36021D01*
X58845Y-36116D01*
X58845Y-36188D01*
X58869Y-36283D01*
X58892Y-36330D01*
X58940Y-36378D01*
X59011Y-36402D01*
X59130Y-36402D01*
X58440Y-36378D02*
X58488Y-36402D01*
X58583Y-36402D01*
X58630Y-36378D01*
X58654Y-36330D01*
X58654Y-36140D01*
X58630Y-36092D01*
X58583Y-36069D01*
X58488Y-36069D01*
X58440Y-36092D01*
X58416Y-36140D01*
X58416Y-36188D01*
X58654Y-36235D01*
X58226Y-36378D02*
X58178Y-36402D01*
X58083Y-36402D01*
X58035Y-36378D01*
X58011Y-36330D01*
X58011Y-36307D01*
X58035Y-36259D01*
X58083Y-36235D01*
X58154Y-36235D01*
X58202Y-36211D01*
X58226Y-36164D01*
X58226Y-36140D01*
X58202Y-36092D01*
X58154Y-36069D01*
X58083Y-36069D01*
X58035Y-36092D01*
X57797Y-36402D02*
X57797Y-36069D01*
X57797Y-35902D02*
X57821Y-35926D01*
X57797Y-35950D01*
X57773Y-35926D01*
X57797Y-35902D01*
X57797Y-35950D01*
X57345Y-36069D02*
X57345Y-36473D01*
X57369Y-36521D01*
X57392Y-36545D01*
X57440Y-36569D01*
X57511Y-36569D01*
X57559Y-36545D01*
X57345Y-36378D02*
X57392Y-36402D01*
X57488Y-36402D01*
X57535Y-36378D01*
X57559Y-36354D01*
X57583Y-36307D01*
X57583Y-36164D01*
X57559Y-36116D01*
X57535Y-36092D01*
X57488Y-36069D01*
X57392Y-36069D01*
X57345Y-36092D01*
X57107Y-36069D02*
X57107Y-36402D01*
X57107Y-36116D02*
X57083Y-36092D01*
X57035Y-36069D01*
X56964Y-36069D01*
X56916Y-36092D01*
X56892Y-36140D01*
X56892Y-36402D01*
X56464Y-36378D02*
X56511Y-36402D01*
X56607Y-36402D01*
X56654Y-36378D01*
X56678Y-36330D01*
X56678Y-36140D01*
X56654Y-36092D01*
X56607Y-36069D01*
X56511Y-36069D01*
X56464Y-36092D01*
X56440Y-36140D01*
X56440Y-36188D01*
X56678Y-36235D01*
X56011Y-36402D02*
X56011Y-35902D01*
X56011Y-36378D02*
X56059Y-36402D01*
X56154Y-36402D01*
X56202Y-36378D01*
X56226Y-36354D01*
X56250Y-36307D01*
X56250Y-36164D01*
X56226Y-36116D01*
X56202Y-36092D01*
X56154Y-36069D01*
X56059Y-36069D01*
X56011Y-36092D01*
X55392Y-36402D02*
X55392Y-35902D01*
X55392Y-36092D02*
X55345Y-36069D01*
X55250Y-36069D01*
X55202Y-36092D01*
X55178Y-36116D01*
X55154Y-36164D01*
X55154Y-36307D01*
X55178Y-36354D01*
X55202Y-36378D01*
X55250Y-36402D01*
X55345Y-36402D01*
X55392Y-36378D01*
X54988Y-36069D02*
X54869Y-36402D01*
X54750Y-36069D02*
X54869Y-36402D01*
X54916Y-36521D01*
X54940Y-36545D01*
X54988Y-36569D01*
G54D15*
X34000Y-34000D02*
X34000Y-55000D01*
X59400Y-34000D02*
X34000Y-34000D01*
X60000Y-34600D02*
X59400Y-34000D01*
X60000Y-39100D02*
X60000Y-34600D01*
X61000Y-40100D02*
X60000Y-39100D01*
X61000Y-53000D02*
X61000Y-40100D01*
X60000Y-54000D02*
X61000Y-53000D01*
X60000Y-55000D02*
X60000Y-54000D01*
X34000Y-55000D02*
X60000Y-55000D01*
G54D16*
G36*
X52619Y-42938D02*
X52650Y-42938D01*
X52681Y-42938D01*
X52681Y-42924D01*
X52681Y-42820D01*
X52681Y-42799D01*
X52727Y-42799D01*
X52758Y-42800D01*
X52781Y-42802D01*
X52798Y-42807D01*
X52809Y-42814D01*
X52815Y-42823D01*
X52818Y-42836D01*
X52818Y-42840D01*
X52815Y-42856D01*
X52807Y-42867D01*
X52794Y-42875D01*
X52782Y-42878D01*
X52766Y-42880D01*
X52747Y-42881D01*
X52729Y-42880D01*
X52714Y-42878D01*
X52706Y-42876D01*
X52694Y-42866D01*
X52686Y-42850D01*
X52681Y-42830D01*
X52681Y-42820D01*
X52681Y-42924D01*
X52682Y-42913D01*
X52686Y-42910D01*
X52691Y-42914D01*
X52693Y-42918D01*
X52702Y-42926D01*
X52716Y-42933D01*
X52736Y-42937D01*
X52757Y-42940D01*
X52780Y-42939D01*
X52792Y-42938D01*
X52813Y-42932D01*
X52834Y-42922D01*
X52850Y-42911D01*
X52854Y-42907D01*
X52867Y-42888D01*
X52875Y-42864D01*
X52877Y-42840D01*
X52877Y-42836D01*
X52873Y-42812D01*
X52864Y-42792D01*
X52851Y-42777D01*
X52841Y-42768D01*
X52832Y-42762D01*
X52822Y-42757D01*
X52809Y-42754D01*
X52792Y-42752D01*
X52769Y-42750D01*
X52749Y-42750D01*
X52683Y-42748D01*
X52682Y-42727D01*
X52683Y-42707D01*
X52688Y-42691D01*
X52697Y-42680D01*
X52698Y-42679D01*
X52714Y-42674D01*
X52734Y-42671D01*
X52755Y-42671D01*
X52775Y-42673D01*
X52792Y-42678D01*
X52802Y-42684D01*
X52812Y-42693D01*
X52837Y-42675D01*
X52862Y-42656D01*
X52849Y-42644D01*
X52826Y-42627D01*
X52798Y-42616D01*
X52766Y-42611D01*
X52732Y-42611D01*
X52697Y-42617D01*
X52669Y-42628D01*
X52647Y-42643D01*
X52631Y-42662D01*
X52624Y-42682D01*
X52623Y-42692D01*
X52621Y-42709D01*
X52620Y-42733D01*
X52620Y-42764D01*
X52619Y-42799D01*
X52619Y-42819D01*
X52619Y-42938D01*
X52619Y-42938D01*
X52619Y-42938D01*
G37*
G36*
X52065Y-42938D02*
X52096Y-42938D01*
X52127Y-42938D01*
X52127Y-42922D01*
X52127Y-42912D01*
X52128Y-42906D01*
X52129Y-42906D01*
X52130Y-42906D01*
X52130Y-42780D01*
X52130Y-42767D01*
X52132Y-42735D01*
X52137Y-42711D01*
X52146Y-42693D01*
X52160Y-42682D01*
X52178Y-42676D01*
X52194Y-42674D01*
X52215Y-42676D01*
X52231Y-42683D01*
X52244Y-42694D01*
X52252Y-42711D01*
X52257Y-42734D01*
X52259Y-42765D01*
X52259Y-42774D01*
X52258Y-42802D01*
X52257Y-42823D01*
X52253Y-42839D01*
X52247Y-42851D01*
X52239Y-42860D01*
X52238Y-42861D01*
X52229Y-42869D01*
X52221Y-42874D01*
X52210Y-42876D01*
X52196Y-42876D01*
X52188Y-42876D01*
X52174Y-42875D01*
X52164Y-42872D01*
X52157Y-42868D01*
X52149Y-42859D01*
X52149Y-42859D01*
X52141Y-42849D01*
X52136Y-42837D01*
X52132Y-42823D01*
X52130Y-42804D01*
X52130Y-42780D01*
X52130Y-42906D01*
X52133Y-42908D01*
X52141Y-42913D01*
X52147Y-42918D01*
X52174Y-42933D01*
X52203Y-42939D01*
X52234Y-42938D01*
X52256Y-42933D01*
X52274Y-42923D01*
X52291Y-42907D01*
X52294Y-42904D01*
X52303Y-42892D01*
X52310Y-42880D01*
X52315Y-42866D01*
X52319Y-42849D01*
X52321Y-42827D01*
X52322Y-42801D01*
X52323Y-42759D01*
X52322Y-42723D01*
X52317Y-42695D01*
X52309Y-42671D01*
X52299Y-42652D01*
X52284Y-42637D01*
X52271Y-42628D01*
X52243Y-42616D01*
X52215Y-42612D01*
X52187Y-42615D01*
X52159Y-42627D01*
X52148Y-42634D01*
X52138Y-42642D01*
X52131Y-42646D01*
X52129Y-42647D01*
X52128Y-42643D01*
X52127Y-42632D01*
X52127Y-42615D01*
X52127Y-42594D01*
X52127Y-42570D01*
X52127Y-42565D01*
X52127Y-42483D01*
X52096Y-42483D01*
X52065Y-42483D01*
X52065Y-42711D01*
X52065Y-42938D01*
X52065Y-42938D01*
X52065Y-42938D01*
G37*
G36*
X51301Y-42938D02*
X51332Y-42938D01*
X51363Y-42938D01*
X51363Y-42924D01*
X51364Y-42913D01*
X51365Y-42912D01*
X51365Y-42801D01*
X51410Y-42800D01*
X51439Y-42800D01*
X51460Y-42802D01*
X51476Y-42806D01*
X51488Y-42813D01*
X51496Y-42820D01*
X51501Y-42834D01*
X51500Y-42849D01*
X51492Y-42863D01*
X51482Y-42872D01*
X51468Y-42877D01*
X51449Y-42881D01*
X51428Y-42882D01*
X51408Y-42880D01*
X51390Y-42876D01*
X51384Y-42873D01*
X51376Y-42867D01*
X51371Y-42859D01*
X51368Y-42848D01*
X51366Y-42831D01*
X51366Y-42824D01*
X51365Y-42801D01*
X51365Y-42912D01*
X51367Y-42910D01*
X51374Y-42914D01*
X51379Y-42920D01*
X51394Y-42930D01*
X51414Y-42937D01*
X51439Y-42940D01*
X51466Y-42939D01*
X51472Y-42938D01*
X51499Y-42931D01*
X51523Y-42918D01*
X51541Y-42900D01*
X51554Y-42879D01*
X51556Y-42875D01*
X51559Y-42860D01*
X51559Y-42841D01*
X51559Y-42833D01*
X51554Y-42807D01*
X51542Y-42786D01*
X51524Y-42769D01*
X51516Y-42763D01*
X51508Y-42759D01*
X51501Y-42756D01*
X51492Y-42753D01*
X51482Y-42752D01*
X51466Y-42751D01*
X51446Y-42750D01*
X51430Y-42750D01*
X51365Y-42748D01*
X51364Y-42732D01*
X51364Y-42710D01*
X51371Y-42692D01*
X51382Y-42680D01*
X51386Y-42678D01*
X51401Y-42673D01*
X51420Y-42671D01*
X51439Y-42671D01*
X51458Y-42673D01*
X51474Y-42677D01*
X51486Y-42683D01*
X51491Y-42689D01*
X51494Y-42690D01*
X51502Y-42687D01*
X51515Y-42679D01*
X51533Y-42665D01*
X51534Y-42664D01*
X51541Y-42658D01*
X51541Y-42653D01*
X51537Y-42648D01*
X51524Y-42635D01*
X51504Y-42624D01*
X51479Y-42616D01*
X51451Y-42612D01*
X51422Y-42611D01*
X51400Y-42613D01*
X51368Y-42621D01*
X51342Y-42633D01*
X51323Y-42651D01*
X51310Y-42673D01*
X51305Y-42692D01*
X51304Y-42702D01*
X51303Y-42719D01*
X51302Y-42741D01*
X51302Y-42767D01*
X51301Y-42797D01*
X51301Y-42826D01*
X51301Y-42938D01*
X51301Y-42938D01*
X51301Y-42938D01*
G37*
G36*
X50739Y-42799D02*
X50804Y-42799D01*
X50804Y-42750D01*
X50804Y-42738D01*
X50807Y-42724D01*
X50814Y-42708D01*
X50823Y-42693D01*
X50833Y-42683D01*
X50833Y-42683D01*
X50853Y-42673D01*
X50875Y-42670D01*
X50896Y-42674D01*
X50915Y-42683D01*
X50930Y-42699D01*
X50940Y-42721D01*
X50942Y-42732D01*
X50945Y-42750D01*
X50875Y-42750D01*
X50804Y-42750D01*
X50804Y-42799D01*
X50841Y-42799D01*
X50874Y-42799D01*
X50899Y-42799D01*
X50917Y-42799D01*
X50930Y-42800D01*
X50939Y-42802D01*
X50943Y-42805D01*
X50944Y-42810D01*
X50943Y-42816D01*
X50941Y-42824D01*
X50940Y-42829D01*
X50931Y-42847D01*
X50918Y-42863D01*
X50903Y-42874D01*
X50896Y-42877D01*
X50873Y-42881D01*
X50847Y-42879D01*
X50823Y-42871D01*
X50813Y-42865D01*
X50791Y-42852D01*
X50771Y-42870D01*
X50761Y-42879D01*
X50753Y-42886D01*
X50751Y-42890D01*
X50754Y-42894D01*
X50761Y-42901D01*
X50768Y-42907D01*
X50794Y-42924D01*
X50825Y-42935D01*
X50859Y-42940D01*
X50892Y-42938D01*
X50923Y-42930D01*
X50949Y-42915D01*
X50971Y-42894D01*
X50988Y-42867D01*
X50999Y-42835D01*
X51005Y-42797D01*
X51005Y-42776D01*
X51003Y-42737D01*
X50994Y-42702D01*
X50980Y-42672D01*
X50962Y-42648D01*
X50939Y-42629D01*
X50913Y-42617D01*
X50884Y-42611D01*
X50852Y-42613D01*
X50847Y-42614D01*
X50825Y-42620D01*
X50808Y-42627D01*
X50792Y-42638D01*
X50783Y-42646D01*
X50766Y-42665D01*
X50754Y-42688D01*
X50745Y-42717D01*
X50740Y-42752D01*
X50739Y-42781D01*
X50739Y-42799D01*
X50739Y-42799D01*
X50739Y-42799D01*
G37*
G36*
X52927Y-42938D02*
X52958Y-42938D01*
X52988Y-42938D01*
X52990Y-42829D01*
X52990Y-42796D01*
X52990Y-42770D01*
X52991Y-42750D01*
X52992Y-42735D01*
X52993Y-42725D01*
X52994Y-42717D01*
X52996Y-42711D01*
X52998Y-42707D01*
X53000Y-42704D01*
X53015Y-42687D01*
X53034Y-42677D01*
X53057Y-42674D01*
X53058Y-42674D01*
X53078Y-42677D01*
X53093Y-42685D01*
X53108Y-42699D01*
X53110Y-42702D01*
X53112Y-42706D01*
X53114Y-42710D01*
X53116Y-42716D01*
X53117Y-42725D01*
X53118Y-42738D01*
X53118Y-42755D01*
X53119Y-42778D01*
X53119Y-42807D01*
X53119Y-42826D01*
X53121Y-42938D01*
X53153Y-42938D01*
X53186Y-42938D01*
X53186Y-42520D01*
X53186Y-42101D01*
X53153Y-42101D01*
X53120Y-42101D01*
X53120Y-42118D01*
X53120Y-42135D01*
X53109Y-42124D01*
X53088Y-42109D01*
X53062Y-42100D01*
X53035Y-42097D01*
X53008Y-42100D01*
X52991Y-42106D01*
X52971Y-42119D01*
X52953Y-42136D01*
X52940Y-42156D01*
X52935Y-42168D01*
X52932Y-42180D01*
X52931Y-42197D01*
X52930Y-42220D01*
X52929Y-42245D01*
X52929Y-42272D01*
X52930Y-42298D01*
X52931Y-42321D01*
X52932Y-42340D01*
X52934Y-42353D01*
X52935Y-42355D01*
X52943Y-42371D01*
X52956Y-42388D01*
X52972Y-42404D01*
X52989Y-42416D01*
X52991Y-42416D01*
X52991Y-42270D01*
X52991Y-42261D01*
X52992Y-42232D01*
X52994Y-42211D01*
X52998Y-42194D01*
X53005Y-42182D01*
X53015Y-42172D01*
X53018Y-42169D01*
X53035Y-42162D01*
X53055Y-42159D01*
X53075Y-42162D01*
X53086Y-42166D01*
X53098Y-42173D01*
X53106Y-42181D01*
X53112Y-42192D01*
X53116Y-42208D01*
X53117Y-42228D01*
X53118Y-42255D01*
X53118Y-42263D01*
X53118Y-42286D01*
X53118Y-42303D01*
X53117Y-42314D01*
X53115Y-42323D01*
X53112Y-42330D01*
X53108Y-42336D01*
X53099Y-42348D01*
X53089Y-42356D01*
X53086Y-42358D01*
X53070Y-42362D01*
X53052Y-42362D01*
X53034Y-42359D01*
X53019Y-42353D01*
X53018Y-42353D01*
X53008Y-42343D01*
X53000Y-42331D01*
X52995Y-42316D01*
X52992Y-42296D01*
X52991Y-42270D01*
X52991Y-42416D01*
X53000Y-42420D01*
X53028Y-42425D01*
X53057Y-42422D01*
X53085Y-42413D01*
X53108Y-42398D01*
X53111Y-42395D01*
X53120Y-42387D01*
X53120Y-42518D01*
X53120Y-42648D01*
X53111Y-42640D01*
X53090Y-42625D01*
X53065Y-42616D01*
X53039Y-42612D01*
X53013Y-42613D01*
X52990Y-42621D01*
X52968Y-42635D01*
X52951Y-42651D01*
X52939Y-42670D01*
X52937Y-42676D01*
X52934Y-42681D01*
X52933Y-42688D01*
X52931Y-42696D01*
X52930Y-42707D01*
X52929Y-42722D01*
X52929Y-42741D01*
X52929Y-42766D01*
X52928Y-42799D01*
X52928Y-42814D01*
X52927Y-42938D01*
X52927Y-42938D01*
X52927Y-42938D01*
G37*
G36*
X52332Y-42635D02*
X52334Y-42640D01*
X52341Y-42649D01*
X52351Y-42661D01*
X52353Y-42664D01*
X52374Y-42688D01*
X52387Y-42681D01*
X52403Y-42676D01*
X52423Y-42675D01*
X52441Y-42678D01*
X52450Y-42682D01*
X52460Y-42690D01*
X52470Y-42702D01*
X52471Y-42705D01*
X52474Y-42710D01*
X52476Y-42715D01*
X52477Y-42722D01*
X52478Y-42731D01*
X52479Y-42744D01*
X52479Y-42762D01*
X52480Y-42785D01*
X52480Y-42815D01*
X52480Y-42829D01*
X52480Y-42938D01*
X52512Y-42938D01*
X52545Y-42938D01*
X52545Y-42776D01*
X52545Y-42614D01*
X52512Y-42614D01*
X52480Y-42614D01*
X52480Y-42631D01*
X52480Y-42648D01*
X52470Y-42640D01*
X52449Y-42625D01*
X52424Y-42616D01*
X52398Y-42612D01*
X52372Y-42614D01*
X52349Y-42621D01*
X52339Y-42628D01*
X52333Y-42633D01*
X52332Y-42635D01*
X52332Y-42635D01*
X52332Y-42635D01*
G37*
G36*
X51572Y-42617D02*
X51573Y-42622D01*
X51577Y-42633D01*
X51582Y-42651D01*
X51589Y-42673D01*
X51598Y-42701D01*
X51607Y-42732D01*
X51618Y-42765D01*
X51622Y-42779D01*
X51673Y-42938D01*
X51700Y-42938D01*
X51728Y-42938D01*
X51740Y-42898D01*
X51746Y-42881D01*
X51753Y-42857D01*
X51761Y-42831D01*
X51769Y-42804D01*
X51774Y-42787D01*
X51781Y-42763D01*
X51787Y-42743D01*
X51792Y-42727D01*
X51796Y-42716D01*
X51798Y-42712D01*
X51799Y-42713D01*
X51802Y-42720D01*
X51806Y-42732D01*
X51812Y-42749D01*
X51819Y-42773D01*
X51829Y-42804D01*
X51840Y-42842D01*
X51853Y-42886D01*
X51863Y-42919D01*
X51868Y-42938D01*
X51896Y-42938D01*
X51924Y-42938D01*
X51955Y-42839D01*
X51966Y-42807D01*
X51976Y-42774D01*
X51987Y-42741D01*
X51996Y-42711D01*
X52004Y-42686D01*
X52007Y-42677D01*
X52027Y-42614D01*
X51994Y-42615D01*
X51960Y-42616D01*
X51930Y-42728D01*
X51922Y-42757D01*
X51915Y-42783D01*
X51908Y-42805D01*
X51903Y-42823D01*
X51899Y-42835D01*
X51897Y-42840D01*
X51897Y-42840D01*
X51895Y-42836D01*
X51891Y-42825D01*
X51885Y-42809D01*
X51878Y-42788D01*
X51869Y-42762D01*
X51860Y-42734D01*
X51858Y-42727D01*
X51821Y-42614D01*
X51798Y-42614D01*
X51775Y-42614D01*
X51770Y-42631D01*
X51764Y-42649D01*
X51758Y-42670D01*
X51750Y-42694D01*
X51742Y-42719D01*
X51733Y-42745D01*
X51725Y-42770D01*
X51717Y-42793D01*
X51711Y-42812D01*
X51705Y-42827D01*
X51702Y-42837D01*
X51700Y-42840D01*
X51698Y-42836D01*
X51695Y-42825D01*
X51690Y-42809D01*
X51684Y-42787D01*
X51676Y-42761D01*
X51669Y-42733D01*
X51667Y-42727D01*
X51636Y-42614D01*
X51604Y-42614D01*
X51589Y-42614D01*
X51578Y-42615D01*
X51572Y-42617D01*
X51572Y-42617D01*
X51572Y-42617D01*
X51572Y-42617D01*
G37*
G36*
X51015Y-42631D02*
X51016Y-42635D01*
X51020Y-42643D01*
X51029Y-42655D01*
X51043Y-42672D01*
X51045Y-42675D01*
X51057Y-42689D01*
X51069Y-42682D01*
X51086Y-42675D01*
X51106Y-42674D01*
X51126Y-42680D01*
X51143Y-42690D01*
X51155Y-42705D01*
X51158Y-42709D01*
X51160Y-42715D01*
X51161Y-42722D01*
X51162Y-42732D01*
X51163Y-42746D01*
X51164Y-42764D01*
X51164Y-42789D01*
X51165Y-42820D01*
X51165Y-42829D01*
X51166Y-42938D01*
X51197Y-42938D01*
X51227Y-42938D01*
X51227Y-42776D01*
X51227Y-42614D01*
X51196Y-42614D01*
X51166Y-42614D01*
X51166Y-42630D01*
X51165Y-42641D01*
X51164Y-42646D01*
X51164Y-42647D01*
X51159Y-42645D01*
X51151Y-42639D01*
X51143Y-42633D01*
X51123Y-42621D01*
X51099Y-42613D01*
X51074Y-42610D01*
X51073Y-42610D01*
X51064Y-42611D01*
X51051Y-42615D01*
X51037Y-42620D01*
X51025Y-42625D01*
X51017Y-42629D01*
X51015Y-42631D01*
X51015Y-42631D01*
X51015Y-42631D01*
G37*
G36*
X53245Y-42261D02*
X53246Y-42292D01*
X53248Y-42317D01*
X53251Y-42337D01*
X53257Y-42353D01*
X53266Y-42367D01*
X53277Y-42381D01*
X53282Y-42386D01*
X53306Y-42405D01*
X53306Y-42269D01*
X53306Y-42245D01*
X53308Y-42224D01*
X53312Y-42205D01*
X53315Y-42195D01*
X53328Y-42178D01*
X53346Y-42166D01*
X53365Y-42160D01*
X53385Y-42160D01*
X53405Y-42165D01*
X53422Y-42176D01*
X53435Y-42193D01*
X53437Y-42196D01*
X53441Y-42211D01*
X53444Y-42232D01*
X53445Y-42256D01*
X53445Y-42280D01*
X53443Y-42302D01*
X53439Y-42320D01*
X53437Y-42325D01*
X53424Y-42343D01*
X53407Y-42357D01*
X53399Y-42361D01*
X53388Y-42363D01*
X53372Y-42362D01*
X53356Y-42359D01*
X53343Y-42355D01*
X53339Y-42353D01*
X53323Y-42337D01*
X53312Y-42317D01*
X53307Y-42292D01*
X53307Y-42291D01*
X53306Y-42269D01*
X53306Y-42405D01*
X53307Y-42406D01*
X53336Y-42419D01*
X53367Y-42425D01*
X53399Y-42424D01*
X53419Y-42419D01*
X53447Y-42406D01*
X53472Y-42387D01*
X53490Y-42362D01*
X53496Y-42350D01*
X53502Y-42330D01*
X53506Y-42305D01*
X53507Y-42276D01*
X53507Y-42246D01*
X53505Y-42217D01*
X53501Y-42191D01*
X53495Y-42170D01*
X53494Y-42168D01*
X53479Y-42143D01*
X53458Y-42123D01*
X53434Y-42109D01*
X53407Y-42100D01*
X53378Y-42097D01*
X53349Y-42099D01*
X53321Y-42109D01*
X53295Y-42124D01*
X53282Y-42135D01*
X53269Y-42150D01*
X53260Y-42164D01*
X53253Y-42179D01*
X53249Y-42198D01*
X53246Y-42220D01*
X53246Y-42249D01*
X53245Y-42261D01*
X53245Y-42261D01*
X53245Y-42261D01*
G37*
G36*
X52614Y-42286D02*
X52677Y-42286D01*
X52677Y-42227D01*
X52677Y-42227D01*
X52679Y-42212D01*
X52686Y-42196D01*
X52694Y-42181D01*
X52696Y-42178D01*
X52714Y-42163D01*
X52734Y-42156D01*
X52756Y-42155D01*
X52779Y-42163D01*
X52780Y-42164D01*
X52795Y-42175D01*
X52807Y-42192D01*
X52815Y-42209D01*
X52816Y-42220D01*
X52816Y-42232D01*
X52747Y-42232D01*
X52720Y-42232D01*
X52700Y-42231D01*
X52687Y-42231D01*
X52680Y-42229D01*
X52677Y-42227D01*
X52677Y-42286D01*
X52715Y-42286D01*
X52816Y-42286D01*
X52816Y-42297D01*
X52815Y-42308D01*
X52810Y-42321D01*
X52809Y-42325D01*
X52796Y-42345D01*
X52778Y-42358D01*
X52757Y-42365D01*
X52733Y-42366D01*
X52708Y-42361D01*
X52682Y-42349D01*
X52672Y-42342D01*
X52667Y-42341D01*
X52661Y-42343D01*
X52652Y-42349D01*
X52644Y-42355D01*
X52634Y-42365D01*
X52626Y-42372D01*
X52623Y-42376D01*
X52627Y-42381D01*
X52636Y-42388D01*
X52648Y-42397D01*
X52662Y-42406D01*
X52676Y-42413D01*
X52688Y-42418D01*
X52691Y-42419D01*
X52715Y-42424D01*
X52743Y-42425D01*
X52770Y-42422D01*
X52791Y-42417D01*
X52819Y-42403D01*
X52842Y-42385D01*
X52859Y-42360D01*
X52870Y-42331D01*
X52877Y-42295D01*
X52878Y-42263D01*
X52875Y-42221D01*
X52867Y-42185D01*
X52854Y-42155D01*
X52836Y-42131D01*
X52812Y-42113D01*
X52784Y-42102D01*
X52755Y-42098D01*
X52722Y-42099D01*
X52693Y-42108D01*
X52666Y-42124D01*
X52657Y-42132D01*
X52641Y-42148D01*
X52630Y-42165D01*
X52623Y-42185D01*
X52618Y-42209D01*
X52616Y-42239D01*
X52614Y-42286D01*
X52614Y-42286D01*
X52614Y-42286D01*
G37*
G36*
X51843Y-42320D02*
X51845Y-42346D01*
X51855Y-42370D01*
X51872Y-42391D01*
X51896Y-42408D01*
X51904Y-42412D01*
X51926Y-42419D01*
X51953Y-42423D01*
X51982Y-42425D01*
X52009Y-42423D01*
X52032Y-42418D01*
X52068Y-42403D01*
X52098Y-42385D01*
X52103Y-42381D01*
X52118Y-42369D01*
X52096Y-42347D01*
X52074Y-42326D01*
X52055Y-42340D01*
X52034Y-42354D01*
X52012Y-42361D01*
X51986Y-42365D01*
X51973Y-42365D01*
X51949Y-42364D01*
X51931Y-42359D01*
X51918Y-42349D01*
X51912Y-42342D01*
X51907Y-42329D01*
X51908Y-42315D01*
X51915Y-42303D01*
X51919Y-42300D01*
X51927Y-42297D01*
X51942Y-42293D01*
X51961Y-42290D01*
X51980Y-42288D01*
X52010Y-42284D01*
X52033Y-42279D01*
X52047Y-42274D01*
X52069Y-42259D01*
X52084Y-42240D01*
X52093Y-42218D01*
X52096Y-42195D01*
X52093Y-42171D01*
X52085Y-42149D01*
X52070Y-42129D01*
X52049Y-42113D01*
X52041Y-42109D01*
X52026Y-42103D01*
X52007Y-42100D01*
X51984Y-42098D01*
X51944Y-42099D01*
X51908Y-42107D01*
X51874Y-42123D01*
X51871Y-42125D01*
X51851Y-42138D01*
X51868Y-42158D01*
X51877Y-42169D01*
X51885Y-42177D01*
X51888Y-42181D01*
X51893Y-42180D01*
X51903Y-42176D01*
X51909Y-42173D01*
X51933Y-42162D01*
X51956Y-42157D01*
X51978Y-42155D01*
X51998Y-42157D01*
X52014Y-42164D01*
X52026Y-42173D01*
X52032Y-42187D01*
X52032Y-42192D01*
X52031Y-42203D01*
X52027Y-42211D01*
X52020Y-42218D01*
X52008Y-42222D01*
X51990Y-42226D01*
X51965Y-42229D01*
X51956Y-42230D01*
X51924Y-42235D01*
X51898Y-42241D01*
X51879Y-42250D01*
X51865Y-42262D01*
X51854Y-42279D01*
X51848Y-42293D01*
X51843Y-42320D01*
X51843Y-42320D01*
X51843Y-42320D01*
G37*
G36*
X51539Y-42269D02*
X51540Y-42298D01*
X51543Y-42324D01*
X51548Y-42345D01*
X51550Y-42350D01*
X51564Y-42374D01*
X51584Y-42396D01*
X51601Y-42407D01*
X51601Y-42261D01*
X51602Y-42232D01*
X51605Y-42210D01*
X51610Y-42193D01*
X51619Y-42181D01*
X51631Y-42171D01*
X51638Y-42167D01*
X51660Y-42160D01*
X51682Y-42160D01*
X51702Y-42167D01*
X51718Y-42180D01*
X51731Y-42199D01*
X51738Y-42222D01*
X51739Y-42227D01*
X51740Y-42246D01*
X51740Y-42268D01*
X51738Y-42290D01*
X51736Y-42309D01*
X51732Y-42322D01*
X51731Y-42325D01*
X51717Y-42344D01*
X51699Y-42357D01*
X51678Y-42363D01*
X51656Y-42362D01*
X51636Y-42354D01*
X51622Y-42345D01*
X51613Y-42333D01*
X51606Y-42317D01*
X51602Y-42296D01*
X51601Y-42268D01*
X51601Y-42261D01*
X51601Y-42407D01*
X51608Y-42411D01*
X51633Y-42420D01*
X51661Y-42424D01*
X51690Y-42424D01*
X51717Y-42419D01*
X51718Y-42418D01*
X51738Y-42408D01*
X51758Y-42391D01*
X51761Y-42388D01*
X51775Y-42374D01*
X51785Y-42360D01*
X51792Y-42345D01*
X51796Y-42327D01*
X51799Y-42305D01*
X51800Y-42277D01*
X51800Y-42261D01*
X51800Y-42229D01*
X51798Y-42205D01*
X51794Y-42185D01*
X51788Y-42169D01*
X51780Y-42154D01*
X51768Y-42140D01*
X51764Y-42135D01*
X51740Y-42116D01*
X51713Y-42104D01*
X51684Y-42097D01*
X51655Y-42097D01*
X51627Y-42103D01*
X51601Y-42114D01*
X51578Y-42131D01*
X51559Y-42154D01*
X51551Y-42169D01*
X51545Y-42187D01*
X51541Y-42212D01*
X51539Y-42240D01*
X51539Y-42269D01*
X51539Y-42269D01*
X51539Y-42269D01*
G37*
G36*
X51219Y-42421D02*
X51252Y-42421D01*
X51285Y-42421D01*
X51285Y-42404D01*
X51285Y-42387D01*
X51296Y-42397D01*
X51318Y-42413D01*
X51343Y-42422D01*
X51371Y-42425D01*
X51398Y-42421D01*
X51414Y-42416D01*
X51430Y-42406D01*
X51445Y-42394D01*
X51450Y-42389D01*
X51457Y-42380D01*
X51463Y-42371D01*
X51468Y-42361D01*
X51472Y-42349D01*
X51474Y-42333D01*
X51476Y-42314D01*
X51477Y-42289D01*
X51478Y-42259D01*
X51478Y-42221D01*
X51478Y-42215D01*
X51478Y-42101D01*
X51447Y-42101D01*
X51417Y-42101D01*
X51415Y-42209D01*
X51415Y-42241D01*
X51414Y-42267D01*
X51414Y-42287D01*
X51413Y-42301D01*
X51412Y-42312D01*
X51410Y-42319D01*
X51409Y-42325D01*
X51406Y-42330D01*
X51406Y-42330D01*
X51391Y-42348D01*
X51372Y-42359D01*
X51351Y-42363D01*
X51328Y-42359D01*
X51324Y-42358D01*
X51309Y-42350D01*
X51298Y-42337D01*
X51295Y-42333D01*
X51292Y-42328D01*
X51289Y-42322D01*
X51288Y-42316D01*
X51286Y-42308D01*
X51286Y-42297D01*
X51285Y-42282D01*
X51285Y-42262D01*
X51285Y-42236D01*
X51285Y-42208D01*
X51285Y-42101D01*
X51252Y-42101D01*
X51219Y-42101D01*
X51219Y-42261D01*
X51219Y-42421D01*
X51219Y-42421D01*
X51219Y-42421D01*
G37*
G36*
X50674Y-42371D02*
X50689Y-42386D01*
X50714Y-42405D01*
X50741Y-42417D01*
X50773Y-42423D01*
X50784Y-42424D01*
X50805Y-42424D01*
X50820Y-42423D01*
X50834Y-42419D01*
X50838Y-42417D01*
X50868Y-42402D01*
X50893Y-42383D01*
X50911Y-42359D01*
X50923Y-42331D01*
X50930Y-42297D01*
X50932Y-42259D01*
X50929Y-42219D01*
X50920Y-42184D01*
X50905Y-42155D01*
X50884Y-42131D01*
X50859Y-42113D01*
X50828Y-42102D01*
X50799Y-42098D01*
X50765Y-42099D01*
X50735Y-42106D01*
X50707Y-42122D01*
X50687Y-42139D01*
X50674Y-42151D01*
X50696Y-42171D01*
X50718Y-42192D01*
X50729Y-42182D01*
X50749Y-42167D01*
X50772Y-42160D01*
X50795Y-42159D01*
X50817Y-42163D01*
X50836Y-42174D01*
X50852Y-42190D01*
X50863Y-42211D01*
X50864Y-42213D01*
X50869Y-42238D01*
X50870Y-42264D01*
X50868Y-42290D01*
X50862Y-42313D01*
X50853Y-42332D01*
X50846Y-42340D01*
X50826Y-42354D01*
X50802Y-42362D01*
X50778Y-42363D01*
X50754Y-42356D01*
X50733Y-42343D01*
X50729Y-42340D01*
X50718Y-42329D01*
X50696Y-42350D01*
X50674Y-42371D01*
X50674Y-42371D01*
X50674Y-42371D01*
G37*
G36*
X50384Y-42286D02*
X50450Y-42286D01*
X50450Y-42232D01*
X50452Y-42216D01*
X50459Y-42194D01*
X50471Y-42176D01*
X50488Y-42163D01*
X50490Y-42162D01*
X50513Y-42155D01*
X50536Y-42156D01*
X50555Y-42164D01*
X50571Y-42178D01*
X50583Y-42198D01*
X50588Y-42217D01*
X50591Y-42232D01*
X50521Y-42232D01*
X50450Y-42232D01*
X50450Y-42286D01*
X50488Y-42286D01*
X50592Y-42286D01*
X50589Y-42301D01*
X50581Y-42326D01*
X50567Y-42345D01*
X50549Y-42359D01*
X50528Y-42366D01*
X50504Y-42367D01*
X50479Y-42361D01*
X50454Y-42348D01*
X50439Y-42338D01*
X50417Y-42356D01*
X50394Y-42374D01*
X50407Y-42387D01*
X50428Y-42404D01*
X50455Y-42416D01*
X50486Y-42422D01*
X50504Y-42424D01*
X50522Y-42424D01*
X50538Y-42423D01*
X50550Y-42422D01*
X50552Y-42421D01*
X50581Y-42410D01*
X50606Y-42391D01*
X50627Y-42367D01*
X50634Y-42353D01*
X50644Y-42324D01*
X50650Y-42292D01*
X50651Y-42257D01*
X50648Y-42222D01*
X50641Y-42190D01*
X50630Y-42161D01*
X50621Y-42146D01*
X50600Y-42124D01*
X50576Y-42109D01*
X50549Y-42100D01*
X50520Y-42097D01*
X50490Y-42100D01*
X50462Y-42110D01*
X50436Y-42126D01*
X50423Y-42139D01*
X50408Y-42156D01*
X50398Y-42177D01*
X50391Y-42203D01*
X50387Y-42234D01*
X50387Y-42243D01*
X50384Y-42286D01*
X50384Y-42286D01*
X50384Y-42286D01*
G37*
G36*
X52299Y-42421D02*
X52330Y-42421D01*
X52361Y-42421D01*
X52361Y-42317D01*
X52361Y-42285D01*
X52361Y-42260D01*
X52361Y-42241D01*
X52362Y-42227D01*
X52363Y-42217D01*
X52364Y-42209D01*
X52366Y-42203D01*
X52369Y-42197D01*
X52370Y-42195D01*
X52382Y-42177D01*
X52395Y-42166D01*
X52413Y-42161D01*
X52426Y-42160D01*
X52447Y-42162D01*
X52463Y-42169D01*
X52477Y-42183D01*
X52481Y-42189D01*
X52484Y-42192D01*
X52486Y-42197D01*
X52488Y-42203D01*
X52489Y-42212D01*
X52490Y-42225D01*
X52490Y-42242D01*
X52491Y-42265D01*
X52491Y-42295D01*
X52491Y-42310D01*
X52492Y-42421D01*
X52523Y-42421D01*
X52554Y-42421D01*
X52554Y-42261D01*
X52554Y-42101D01*
X52523Y-42101D01*
X52492Y-42101D01*
X52492Y-42117D01*
X52492Y-42134D01*
X52473Y-42119D01*
X52448Y-42105D01*
X52420Y-42097D01*
X52392Y-42098D01*
X52364Y-42106D01*
X52362Y-42106D01*
X52340Y-42120D01*
X52323Y-42137D01*
X52309Y-42160D01*
X52306Y-42166D01*
X52304Y-42172D01*
X52302Y-42179D01*
X52301Y-42187D01*
X52300Y-42199D01*
X52299Y-42214D01*
X52299Y-42234D01*
X52299Y-42260D01*
X52299Y-42293D01*
X52299Y-42301D01*
X52299Y-42421D01*
X52299Y-42421D01*
X52299Y-42421D01*
G37*
G36*
X50932Y-42119D02*
X50934Y-42123D01*
X50941Y-42132D01*
X50950Y-42144D01*
X50954Y-42148D01*
X50975Y-42173D01*
X50991Y-42165D01*
X51012Y-42159D01*
X51033Y-42160D01*
X51053Y-42169D01*
X51070Y-42185D01*
X51073Y-42189D01*
X51076Y-42192D01*
X51078Y-42197D01*
X51079Y-42203D01*
X51080Y-42212D01*
X51081Y-42225D01*
X51082Y-42242D01*
X51082Y-42265D01*
X51082Y-42295D01*
X51083Y-42310D01*
X51084Y-42421D01*
X51115Y-42421D01*
X51145Y-42421D01*
X51145Y-42261D01*
X51145Y-42101D01*
X51114Y-42101D01*
X51083Y-42101D01*
X51083Y-42117D01*
X51083Y-42127D01*
X51082Y-42133D01*
X51081Y-42134D01*
X51077Y-42131D01*
X51069Y-42125D01*
X51063Y-42120D01*
X51039Y-42105D01*
X51013Y-42098D01*
X50986Y-42097D01*
X50958Y-42104D01*
X50953Y-42107D01*
X50942Y-42113D01*
X50934Y-42117D01*
X50932Y-42119D01*
X50932Y-42119D01*
X50932Y-42119D01*
G37*
G36*
X50734Y-40912D02*
X50735Y-40945D01*
X50735Y-40972D01*
X50735Y-40992D01*
X50736Y-41008D01*
X50737Y-41019D01*
X50738Y-41027D01*
X50739Y-41031D01*
X50741Y-41034D01*
X50741Y-41035D01*
X50747Y-41040D01*
X50750Y-41041D01*
X50755Y-41042D01*
X50766Y-41044D01*
X50784Y-41047D01*
X50807Y-41051D01*
X50832Y-41056D01*
X50861Y-41061D01*
X50890Y-41067D01*
X50920Y-41073D01*
X50948Y-41078D01*
X50974Y-41083D01*
X50997Y-41087D01*
X51016Y-41091D01*
X51029Y-41094D01*
X51035Y-41095D01*
X51048Y-41101D01*
X51056Y-41112D01*
X51056Y-41112D01*
X51061Y-41123D01*
X51067Y-41139D01*
X51076Y-41159D01*
X51085Y-41183D01*
X51096Y-41209D01*
X51106Y-41235D01*
X51116Y-41261D01*
X51126Y-41286D01*
X51135Y-41309D01*
X51141Y-41327D01*
X51147Y-41341D01*
X51149Y-41349D01*
X51149Y-41350D01*
X51147Y-41354D01*
X51141Y-41365D01*
X51131Y-41381D01*
X51117Y-41401D01*
X51102Y-41425D01*
X51084Y-41451D01*
X51068Y-41475D01*
X51045Y-41509D01*
X51026Y-41536D01*
X51011Y-41559D01*
X50999Y-41576D01*
X50990Y-41589D01*
X50984Y-41599D01*
X50981Y-41606D01*
X50979Y-41611D01*
X50978Y-41614D01*
X50979Y-41616D01*
X50980Y-41619D01*
X50980Y-41619D01*
X50985Y-41625D01*
X50994Y-41635D01*
X51008Y-41649D01*
X51025Y-41667D01*
X51044Y-41687D01*
X51066Y-41708D01*
X51088Y-41730D01*
X51111Y-41752D01*
X51133Y-41773D01*
X51153Y-41793D01*
X51172Y-41810D01*
X51187Y-41825D01*
X51199Y-41835D01*
X51207Y-41841D01*
X51208Y-41842D01*
X51213Y-41840D01*
X51224Y-41833D01*
X51240Y-41823D01*
X51261Y-41810D01*
X51284Y-41795D01*
X51311Y-41777D01*
X51331Y-41763D01*
X51359Y-41744D01*
X51385Y-41726D01*
X51408Y-41710D01*
X51428Y-41697D01*
X51443Y-41687D01*
X51453Y-41680D01*
X51457Y-41678D01*
X51461Y-41676D01*
X51466Y-41676D01*
X51473Y-41678D01*
X51483Y-41682D01*
X51497Y-41689D01*
X51517Y-41699D01*
X51528Y-41704D01*
X51553Y-41717D01*
X51572Y-41726D01*
X51586Y-41731D01*
X51593Y-41733D01*
X51593Y-41732D01*
X51596Y-41728D01*
X51601Y-41716D01*
X51609Y-41699D01*
X51618Y-41676D01*
X51630Y-41649D01*
X51643Y-41617D01*
X51657Y-41583D01*
X51672Y-41547D01*
X51688Y-41509D01*
X51704Y-41470D01*
X51720Y-41431D01*
X51736Y-41392D01*
X51751Y-41355D01*
X51765Y-41321D01*
X51778Y-41289D01*
X51789Y-41261D01*
X51799Y-41237D01*
X51806Y-41218D01*
X51811Y-41206D01*
X51813Y-41199D01*
X51813Y-41199D01*
X51809Y-41195D01*
X51800Y-41188D01*
X51787Y-41178D01*
X51772Y-41167D01*
X51731Y-41135D01*
X51697Y-41104D01*
X51670Y-41070D01*
X51648Y-41034D01*
X51630Y-40994D01*
X51617Y-40951D01*
X51612Y-40926D01*
X51610Y-40897D01*
X51609Y-40866D01*
X51610Y-40836D01*
X51613Y-40811D01*
X51626Y-40762D01*
X51647Y-40716D01*
X51672Y-40674D01*
X51704Y-40637D01*
X51740Y-40606D01*
X51779Y-40579D01*
X51822Y-40559D01*
X51867Y-40544D01*
X51915Y-40536D01*
X51963Y-40534D01*
X52012Y-40540D01*
X52060Y-40553D01*
X52089Y-40565D01*
X52136Y-40591D01*
X52177Y-40623D01*
X52212Y-40659D01*
X52240Y-40699D01*
X52263Y-40743D01*
X52278Y-40790D01*
X52286Y-40839D01*
X52287Y-40890D01*
X52280Y-40943D01*
X52266Y-40995D01*
X52262Y-41005D01*
X52243Y-41044D01*
X52217Y-41082D01*
X52182Y-41119D01*
X52140Y-41155D01*
X52124Y-41167D01*
X52108Y-41178D01*
X52095Y-41188D01*
X52086Y-41195D01*
X52083Y-41199D01*
X52084Y-41203D01*
X52088Y-41215D01*
X52095Y-41232D01*
X52104Y-41255D01*
X52115Y-41282D01*
X52127Y-41313D01*
X52141Y-41347D01*
X52156Y-41383D01*
X52172Y-41421D01*
X52188Y-41460D01*
X52204Y-41499D01*
X52220Y-41538D01*
X52235Y-41575D01*
X52250Y-41609D01*
X52263Y-41641D01*
X52275Y-41670D01*
X52285Y-41694D01*
X52293Y-41712D01*
X52299Y-41725D01*
X52302Y-41732D01*
X52302Y-41732D01*
X52308Y-41732D01*
X52319Y-41728D01*
X52337Y-41720D01*
X52360Y-41708D01*
X52368Y-41704D01*
X52390Y-41693D01*
X52407Y-41684D01*
X52419Y-41679D01*
X52427Y-41677D01*
X52433Y-41676D01*
X52437Y-41677D01*
X52439Y-41678D01*
X52445Y-41682D01*
X52456Y-41689D01*
X52473Y-41700D01*
X52494Y-41714D01*
X52518Y-41731D01*
X52544Y-41749D01*
X52564Y-41763D01*
X52592Y-41781D01*
X52618Y-41799D01*
X52640Y-41814D01*
X52660Y-41826D01*
X52675Y-41835D01*
X52684Y-41841D01*
X52687Y-41842D01*
X52692Y-41839D01*
X52702Y-41831D01*
X52716Y-41818D01*
X52735Y-41801D01*
X52757Y-41780D01*
X52781Y-41756D01*
X52803Y-41734D01*
X52828Y-41710D01*
X52851Y-41686D01*
X52871Y-41666D01*
X52889Y-41648D01*
X52902Y-41634D01*
X52911Y-41624D01*
X52915Y-41619D01*
X52915Y-41619D01*
X52917Y-41617D01*
X52917Y-41614D01*
X52917Y-41611D01*
X52915Y-41607D01*
X52912Y-41600D01*
X52907Y-41591D01*
X52898Y-41578D01*
X52887Y-41562D01*
X52873Y-41540D01*
X52854Y-41513D01*
X52832Y-41481D01*
X52828Y-41475D01*
X52809Y-41447D01*
X52792Y-41421D01*
X52776Y-41398D01*
X52764Y-41378D01*
X52754Y-41363D01*
X52748Y-41353D01*
X52747Y-41350D01*
X52748Y-41344D01*
X52752Y-41333D01*
X52759Y-41316D01*
X52766Y-41295D01*
X52776Y-41271D01*
X52786Y-41245D01*
X52796Y-41219D01*
X52807Y-41192D01*
X52817Y-41168D01*
X52825Y-41146D01*
X52833Y-41128D01*
X52838Y-41115D01*
X52840Y-41112D01*
X52848Y-41101D01*
X52861Y-41095D01*
X52861Y-41095D01*
X52868Y-41094D01*
X52881Y-41091D01*
X52900Y-41087D01*
X52923Y-41083D01*
X52950Y-41078D01*
X52978Y-41072D01*
X53008Y-41067D01*
X53037Y-41061D01*
X53065Y-41056D01*
X53091Y-41051D01*
X53113Y-41047D01*
X53130Y-41044D01*
X53142Y-41042D01*
X53146Y-41041D01*
X53151Y-41039D01*
X53155Y-41035D01*
X53157Y-41032D01*
X53158Y-41028D01*
X53159Y-41021D01*
X53160Y-41011D01*
X53160Y-40996D01*
X53161Y-40977D01*
X53161Y-40952D01*
X53161Y-40920D01*
X53161Y-40882D01*
X53161Y-40871D01*
X53161Y-40829D01*
X53161Y-40795D01*
X53161Y-40767D01*
X53160Y-40746D01*
X53160Y-40730D01*
X53159Y-40719D01*
X53158Y-40713D01*
X53156Y-40710D01*
X53156Y-40709D01*
X53151Y-40708D01*
X53139Y-40705D01*
X53120Y-40701D01*
X53096Y-40696D01*
X53068Y-40690D01*
X53037Y-40684D01*
X53005Y-40678D01*
X52971Y-40672D01*
X52939Y-40665D01*
X52910Y-40660D01*
X52886Y-40655D01*
X52866Y-40650D01*
X52853Y-40647D01*
X52847Y-40645D01*
X52843Y-40643D01*
X52839Y-40640D01*
X52835Y-40634D01*
X52830Y-40625D01*
X52824Y-40613D01*
X52816Y-40595D01*
X52806Y-40573D01*
X52794Y-40544D01*
X52786Y-40525D01*
X52772Y-40492D01*
X52761Y-40465D01*
X52753Y-40445D01*
X52747Y-40429D01*
X52743Y-40417D01*
X52741Y-40409D01*
X52741Y-40404D01*
X52741Y-40401D01*
X52744Y-40395D01*
X52752Y-40383D01*
X52763Y-40367D01*
X52776Y-40346D01*
X52793Y-40321D01*
X52811Y-40294D01*
X52831Y-40265D01*
X52832Y-40264D01*
X52852Y-40235D01*
X52870Y-40208D01*
X52886Y-40184D01*
X52899Y-40164D01*
X52910Y-40148D01*
X52916Y-40137D01*
X52919Y-40133D01*
X52919Y-40132D01*
X52916Y-40128D01*
X52908Y-40119D01*
X52896Y-40105D01*
X52880Y-40089D01*
X52861Y-40069D01*
X52840Y-40048D01*
X52818Y-40026D01*
X52795Y-40004D01*
X52772Y-39982D01*
X52751Y-39961D01*
X52731Y-39942D01*
X52714Y-39927D01*
X52701Y-39914D01*
X52691Y-39907D01*
X52687Y-39904D01*
X52682Y-39906D01*
X52671Y-39912D01*
X52655Y-39923D01*
X52634Y-39936D01*
X52610Y-39952D01*
X52583Y-39970D01*
X52554Y-39990D01*
X52549Y-39993D01*
X52520Y-40013D01*
X52493Y-40031D01*
X52468Y-40048D01*
X52447Y-40062D01*
X52430Y-40073D01*
X52418Y-40080D01*
X52411Y-40083D01*
X52411Y-40083D01*
X52405Y-40082D01*
X52391Y-40078D01*
X52372Y-40072D01*
X52347Y-40063D01*
X52318Y-40051D01*
X52304Y-40045D01*
X52270Y-40031D01*
X52242Y-40020D01*
X52220Y-40010D01*
X52204Y-40003D01*
X52192Y-39997D01*
X52184Y-39993D01*
X52179Y-39989D01*
X52176Y-39986D01*
X52174Y-39982D01*
X52174Y-39981D01*
X52172Y-39975D01*
X52170Y-39962D01*
X52166Y-39942D01*
X52162Y-39918D01*
X52156Y-39889D01*
X52150Y-39857D01*
X52144Y-39822D01*
X52143Y-39820D01*
X52136Y-39779D01*
X52129Y-39746D01*
X52124Y-39719D01*
X52120Y-39699D01*
X52116Y-39683D01*
X52113Y-39673D01*
X52110Y-39666D01*
X52108Y-39663D01*
X52108Y-39663D01*
X52102Y-39661D01*
X52088Y-39660D01*
X52069Y-39659D01*
X52045Y-39658D01*
X52018Y-39657D01*
X51987Y-39657D01*
X51956Y-39657D01*
X51924Y-39657D01*
X51893Y-39657D01*
X51864Y-39658D01*
X51838Y-39658D01*
X51816Y-39659D01*
X51800Y-39661D01*
X51790Y-39662D01*
X51788Y-39663D01*
X51786Y-39666D01*
X51783Y-39672D01*
X51780Y-39682D01*
X51777Y-39697D01*
X51772Y-39717D01*
X51767Y-39743D01*
X51761Y-39775D01*
X51753Y-39815D01*
X51752Y-39820D01*
X51746Y-39854D01*
X51740Y-39887D01*
X51735Y-39916D01*
X51730Y-39941D01*
X51726Y-39960D01*
X51723Y-39974D01*
X51722Y-39981D01*
X51722Y-39981D01*
X51717Y-39989D01*
X51707Y-39997D01*
X51705Y-39998D01*
X51693Y-40003D01*
X51677Y-40010D01*
X51656Y-40019D01*
X51633Y-40028D01*
X51608Y-40039D01*
X51582Y-40049D01*
X51558Y-40059D01*
X51535Y-40068D01*
X51515Y-40075D01*
X51500Y-40081D01*
X51490Y-40084D01*
X51488Y-40084D01*
X51483Y-40082D01*
X51472Y-40076D01*
X51456Y-40065D01*
X51435Y-40052D01*
X51411Y-40036D01*
X51384Y-40018D01*
X51355Y-39998D01*
X51348Y-39994D01*
X51319Y-39974D01*
X51292Y-39955D01*
X51267Y-39939D01*
X51245Y-39925D01*
X51228Y-39914D01*
X51216Y-39907D01*
X51209Y-39904D01*
X51209Y-39904D01*
X51204Y-39907D01*
X51195Y-39915D01*
X51181Y-39927D01*
X51164Y-39943D01*
X51145Y-39961D01*
X51123Y-39982D01*
X51101Y-40004D01*
X51078Y-40026D01*
X51056Y-40048D01*
X51035Y-40069D01*
X51016Y-40089D01*
X51000Y-40105D01*
X50988Y-40119D01*
X50979Y-40128D01*
X50977Y-40132D01*
X50979Y-40137D01*
X50985Y-40147D01*
X50996Y-40162D01*
X51009Y-40182D01*
X51024Y-40206D01*
X51042Y-40232D01*
X51062Y-40261D01*
X51064Y-40264D01*
X51084Y-40293D01*
X51102Y-40320D01*
X51118Y-40345D01*
X51132Y-40366D01*
X51144Y-40383D01*
X51151Y-40395D01*
X51154Y-40401D01*
X51155Y-40401D01*
X51155Y-40405D01*
X51155Y-40411D01*
X51152Y-40419D01*
X51148Y-40431D01*
X51142Y-40448D01*
X51133Y-40470D01*
X51122Y-40498D01*
X51110Y-40525D01*
X51096Y-40558D01*
X51085Y-40584D01*
X51076Y-40604D01*
X51069Y-40619D01*
X51063Y-40630D01*
X51059Y-40637D01*
X51055Y-40642D01*
X51051Y-40644D01*
X51049Y-40645D01*
X51042Y-40647D01*
X51028Y-40651D01*
X51008Y-40655D01*
X50983Y-40660D01*
X50954Y-40666D01*
X50922Y-40672D01*
X50891Y-40678D01*
X50857Y-40684D01*
X50826Y-40690D01*
X50798Y-40696D01*
X50775Y-40701D01*
X50756Y-40705D01*
X50745Y-40708D01*
X50740Y-40709D01*
X50738Y-40712D01*
X50737Y-40718D01*
X50736Y-40729D01*
X50736Y-40744D01*
X50735Y-40764D01*
X50735Y-40791D01*
X50735Y-40824D01*
X50734Y-40865D01*
X50734Y-40871D01*
X50734Y-40912D01*
X50734Y-40912D01*
X50734Y-40912D01*
G37*
G36*
X57282Y-51667D02*
X57287Y-51763D01*
X57301Y-51856D01*
X57324Y-51946D01*
X57327Y-51957D01*
X57361Y-52045D01*
X57403Y-52128D01*
X57453Y-52207D01*
X57458Y-52214D01*
X57458Y-51649D01*
X57459Y-51627D01*
X57460Y-51590D01*
X57462Y-51560D01*
X57464Y-51535D01*
X57468Y-51512D01*
X57472Y-51487D01*
X57475Y-51476D01*
X57499Y-51392D01*
X57530Y-51313D01*
X57571Y-51238D01*
X57596Y-51198D01*
X57616Y-51171D01*
X57642Y-51140D01*
X57672Y-51108D01*
X57704Y-51075D01*
X57735Y-51045D01*
X57765Y-51020D01*
X57781Y-51008D01*
X57854Y-50959D01*
X57930Y-50920D01*
X58010Y-50891D01*
X58094Y-50871D01*
X58182Y-50860D01*
X58247Y-50857D01*
X58338Y-50862D01*
X58425Y-50875D01*
X58506Y-50897D01*
X58584Y-50927D01*
X58657Y-50967D01*
X58727Y-51017D01*
X58793Y-51075D01*
X58819Y-51102D01*
X58879Y-51172D01*
X58930Y-51247D01*
X58972Y-51326D01*
X59005Y-51410D01*
X59028Y-51494D01*
X59032Y-51514D01*
X59035Y-51532D01*
X59038Y-51551D01*
X59039Y-51573D01*
X59040Y-51599D01*
X59040Y-51633D01*
X59040Y-51650D01*
X59039Y-51700D01*
X59037Y-51743D01*
X59033Y-51780D01*
X59027Y-51816D01*
X59017Y-51852D01*
X59005Y-51890D01*
X59001Y-51902D01*
X58968Y-51981D01*
X58926Y-52057D01*
X58876Y-52128D01*
X58819Y-52194D01*
X58755Y-52254D01*
X58686Y-52306D01*
X58613Y-52350D01*
X58595Y-52360D01*
X58515Y-52393D01*
X58432Y-52418D01*
X58349Y-52434D01*
X58265Y-52441D01*
X58182Y-52438D01*
X58179Y-52437D01*
X58109Y-52427D01*
X58043Y-52413D01*
X57980Y-52392D01*
X57916Y-52364D01*
X57894Y-52354D01*
X57818Y-52311D01*
X57748Y-52261D01*
X57683Y-52205D01*
X57626Y-52143D01*
X57577Y-52076D01*
X57536Y-52006D01*
X57516Y-51962D01*
X57494Y-51902D01*
X57477Y-51843D01*
X57466Y-51782D01*
X57460Y-51719D01*
X57458Y-51649D01*
X57458Y-52214D01*
X57510Y-52280D01*
X57575Y-52347D01*
X57646Y-52408D01*
X57723Y-52463D01*
X57805Y-52509D01*
X57891Y-52549D01*
X57982Y-52580D01*
X58076Y-52602D01*
X58150Y-52614D01*
X58189Y-52617D01*
X58233Y-52618D01*
X58280Y-52618D01*
X58324Y-52616D01*
X58363Y-52613D01*
X58364Y-52613D01*
X58456Y-52598D01*
X58546Y-52573D01*
X58633Y-52539D01*
X58717Y-52497D01*
X58797Y-52447D01*
X58872Y-52390D01*
X58941Y-52326D01*
X59004Y-52256D01*
X59060Y-52180D01*
X59108Y-52100D01*
X59148Y-52015D01*
X59166Y-51969D01*
X59193Y-51876D01*
X59210Y-51781D01*
X59219Y-51687D01*
X59217Y-51593D01*
X59207Y-51499D01*
X59188Y-51408D01*
X59160Y-51319D01*
X59123Y-51232D01*
X59078Y-51149D01*
X59026Y-51071D01*
X58965Y-50997D01*
X58897Y-50928D01*
X58822Y-50865D01*
X58769Y-50829D01*
X58690Y-50783D01*
X58606Y-50745D01*
X58517Y-50716D01*
X58425Y-50695D01*
X58330Y-50684D01*
X58234Y-50681D01*
X58136Y-50687D01*
X58041Y-50701D01*
X57951Y-50725D01*
X57864Y-50757D01*
X57780Y-50798D01*
X57701Y-50847D01*
X57626Y-50904D01*
X57557Y-50967D01*
X57495Y-51037D01*
X57439Y-51113D01*
X57391Y-51193D01*
X57351Y-51279D01*
X57344Y-51296D01*
X57316Y-51384D01*
X57296Y-51476D01*
X57285Y-51571D01*
X57282Y-51667D01*
X57282Y-51667D01*
X57282Y-51667D01*
G37*
G36*
X58262Y-51798D02*
X58263Y-51805D01*
X58269Y-51817D01*
X58280Y-51833D01*
X58293Y-51849D01*
X58308Y-51865D01*
X58317Y-51875D01*
X58361Y-51907D01*
X58408Y-51931D01*
X58460Y-51946D01*
X58514Y-51951D01*
X58563Y-51948D01*
X58616Y-51936D01*
X58663Y-51916D01*
X58704Y-51888D01*
X58739Y-51853D01*
X58766Y-51811D01*
X58786Y-51763D01*
X58790Y-51748D01*
X58796Y-51716D01*
X58800Y-51678D01*
X58800Y-51638D01*
X58798Y-51600D01*
X58794Y-51566D01*
X58793Y-51560D01*
X58777Y-51515D01*
X58755Y-51473D01*
X58725Y-51435D01*
X58691Y-51403D01*
X58661Y-51384D01*
X58627Y-51368D01*
X58596Y-51358D01*
X58561Y-51352D01*
X58522Y-51350D01*
X58515Y-51350D01*
X58468Y-51353D01*
X58428Y-51359D01*
X58391Y-51371D01*
X58364Y-51384D01*
X58344Y-51397D01*
X58324Y-51412D01*
X58305Y-51429D01*
X58288Y-51447D01*
X58275Y-51464D01*
X58267Y-51478D01*
X58265Y-51489D01*
X58267Y-51493D01*
X58273Y-51497D01*
X58287Y-51504D01*
X58306Y-51514D01*
X58328Y-51525D01*
X58331Y-51526D01*
X58389Y-51555D01*
X58396Y-51543D01*
X58421Y-51513D01*
X58449Y-51493D01*
X58479Y-51481D01*
X58513Y-51480D01*
X58539Y-51485D01*
X58568Y-51499D01*
X58592Y-51520D01*
X58610Y-51549D01*
X58617Y-51567D01*
X58622Y-51593D01*
X58625Y-51624D01*
X58626Y-51657D01*
X58624Y-51689D01*
X58620Y-51716D01*
X58616Y-51728D01*
X58600Y-51763D01*
X58579Y-51790D01*
X58558Y-51806D01*
X58544Y-51813D01*
X58530Y-51817D01*
X58513Y-51819D01*
X58497Y-51819D01*
X58475Y-51818D01*
X58459Y-51816D01*
X58444Y-51810D01*
X58437Y-51806D01*
X58421Y-51795D01*
X58405Y-51779D01*
X58391Y-51763D01*
X58381Y-51748D01*
X58380Y-51745D01*
X58376Y-51743D01*
X58366Y-51746D01*
X58348Y-51753D01*
X58323Y-51765D01*
X58321Y-51766D01*
X58299Y-51777D01*
X58281Y-51786D01*
X58268Y-51794D01*
X58262Y-51798D01*
X58262Y-51798D01*
X58262Y-51798D01*
X58262Y-51798D01*
G37*
G36*
X57700Y-51801D02*
X57703Y-51807D01*
X57710Y-51819D01*
X57721Y-51834D01*
X57733Y-51850D01*
X57744Y-51863D01*
X57745Y-51864D01*
X57762Y-51879D01*
X57785Y-51896D01*
X57811Y-51912D01*
X57838Y-51926D01*
X57862Y-51936D01*
X57865Y-51938D01*
X57900Y-51945D01*
X57940Y-51950D01*
X57980Y-51950D01*
X58005Y-51948D01*
X58057Y-51936D01*
X58104Y-51915D01*
X58145Y-51887D01*
X58179Y-51852D01*
X58206Y-51811D01*
X58226Y-51763D01*
X58232Y-51738D01*
X58238Y-51701D01*
X58240Y-51660D01*
X58239Y-51618D01*
X58234Y-51579D01*
X58230Y-51557D01*
X58212Y-51506D01*
X58187Y-51461D01*
X58153Y-51423D01*
X58113Y-51392D01*
X58067Y-51368D01*
X58041Y-51359D01*
X58017Y-51354D01*
X57987Y-51351D01*
X57955Y-51350D01*
X57902Y-51354D01*
X57856Y-51362D01*
X57815Y-51378D01*
X57778Y-51400D01*
X57767Y-51408D01*
X57754Y-51420D01*
X57739Y-51436D01*
X57725Y-51452D01*
X57714Y-51468D01*
X57707Y-51480D01*
X57705Y-51485D01*
X57709Y-51490D01*
X57721Y-51498D01*
X57738Y-51508D01*
X57760Y-51520D01*
X57767Y-51524D01*
X57828Y-51556D01*
X57836Y-51544D01*
X57857Y-51516D01*
X57880Y-51497D01*
X57905Y-51486D01*
X57936Y-51481D01*
X57945Y-51481D01*
X57979Y-51485D01*
X58008Y-51496D01*
X58030Y-51516D01*
X58041Y-51532D01*
X58056Y-51565D01*
X58065Y-51603D01*
X58068Y-51643D01*
X58066Y-51683D01*
X58059Y-51721D01*
X58046Y-51755D01*
X58028Y-51783D01*
X58026Y-51785D01*
X58004Y-51804D01*
X57977Y-51814D01*
X57944Y-51819D01*
X57937Y-51819D01*
X57916Y-51818D01*
X57900Y-51816D01*
X57887Y-51811D01*
X57876Y-51805D01*
X57854Y-51788D01*
X57836Y-51766D01*
X57836Y-51766D01*
X57826Y-51753D01*
X57819Y-51743D01*
X57815Y-51741D01*
X57808Y-51743D01*
X57795Y-51749D01*
X57778Y-51757D01*
X57758Y-51767D01*
X57739Y-51777D01*
X57721Y-51787D01*
X57708Y-51795D01*
X57701Y-51800D01*
X57700Y-51801D01*
X57700Y-51801D01*
X57700Y-51801D01*
G37*
G36*
X55082Y-51604D02*
X55082Y-51703D01*
X55092Y-51802D01*
X55102Y-51862D01*
X55125Y-51952D01*
X55157Y-52039D01*
X55199Y-52122D01*
X55249Y-52202D01*
X55260Y-52217D01*
X55260Y-51652D01*
X55261Y-51613D01*
X55261Y-51582D01*
X55262Y-51557D01*
X55263Y-51536D01*
X55265Y-51518D01*
X55268Y-51501D01*
X55272Y-51485D01*
X55295Y-51401D01*
X55326Y-51321D01*
X55364Y-51246D01*
X55395Y-51197D01*
X55415Y-51171D01*
X55441Y-51141D01*
X55471Y-51109D01*
X55503Y-51077D01*
X55535Y-51046D01*
X55565Y-51020D01*
X55591Y-50999D01*
X55593Y-50998D01*
X55666Y-50952D01*
X55744Y-50915D01*
X55826Y-50886D01*
X55871Y-50874D01*
X55891Y-50870D01*
X55908Y-50866D01*
X55925Y-50864D01*
X55942Y-50862D01*
X55962Y-50861D01*
X55988Y-50860D01*
X56020Y-50860D01*
X56048Y-50860D01*
X56087Y-50860D01*
X56118Y-50861D01*
X56143Y-50862D01*
X56164Y-50863D01*
X56182Y-50865D01*
X56199Y-50868D01*
X56215Y-50872D01*
X56301Y-50895D01*
X56382Y-50928D01*
X56459Y-50969D01*
X56530Y-51019D01*
X56580Y-51063D01*
X56646Y-51131D01*
X56702Y-51202D01*
X56749Y-51277D01*
X56786Y-51356D01*
X56815Y-51438D01*
X56833Y-51519D01*
X56839Y-51567D01*
X56842Y-51620D01*
X56842Y-51675D01*
X56839Y-51730D01*
X56833Y-51781D01*
X56826Y-51822D01*
X56803Y-51900D01*
X56774Y-51973D01*
X56738Y-52042D01*
X56693Y-52107D01*
X56640Y-52171D01*
X56621Y-52192D01*
X56558Y-52251D01*
X56495Y-52302D01*
X56430Y-52343D01*
X56396Y-52361D01*
X56355Y-52380D01*
X56316Y-52396D01*
X56277Y-52409D01*
X56235Y-52420D01*
X56189Y-52430D01*
X56134Y-52438D01*
X56128Y-52439D01*
X56109Y-52441D01*
X56083Y-52441D01*
X56051Y-52441D01*
X56016Y-52439D01*
X55980Y-52437D01*
X55947Y-52435D01*
X55917Y-52431D01*
X55894Y-52428D01*
X55891Y-52427D01*
X55807Y-52405D01*
X55726Y-52373D01*
X55648Y-52332D01*
X55580Y-52286D01*
X55549Y-52261D01*
X55515Y-52231D01*
X55480Y-52197D01*
X55447Y-52163D01*
X55418Y-52130D01*
X55394Y-52101D01*
X55389Y-52094D01*
X55351Y-52033D01*
X55318Y-51965D01*
X55292Y-51893D01*
X55272Y-51820D01*
X55268Y-51802D01*
X55265Y-51784D01*
X55263Y-51766D01*
X55262Y-51745D01*
X55261Y-51720D01*
X55261Y-51688D01*
X55260Y-51652D01*
X55260Y-52217D01*
X55307Y-52276D01*
X55373Y-52345D01*
X55398Y-52368D01*
X55477Y-52431D01*
X55557Y-52485D01*
X55640Y-52529D01*
X55725Y-52565D01*
X55815Y-52591D01*
X55878Y-52605D01*
X55910Y-52609D01*
X55948Y-52612D01*
X55990Y-52615D01*
X56034Y-52617D01*
X56077Y-52617D01*
X56116Y-52617D01*
X56150Y-52615D01*
X56161Y-52614D01*
X56259Y-52597D01*
X56353Y-52572D01*
X56442Y-52537D01*
X56527Y-52493D01*
X56609Y-52440D01*
X56686Y-52378D01*
X56740Y-52327D01*
X56807Y-52253D01*
X56865Y-52174D01*
X56913Y-52092D01*
X56953Y-52005D01*
X56984Y-51915D01*
X57005Y-51821D01*
X57017Y-51725D01*
X57019Y-51627D01*
X57012Y-51527D01*
X56998Y-51446D01*
X56976Y-51357D01*
X56944Y-51271D01*
X56903Y-51187D01*
X56854Y-51107D01*
X56797Y-51031D01*
X56734Y-50961D01*
X56664Y-50897D01*
X56588Y-50840D01*
X56567Y-50826D01*
X56488Y-50781D01*
X56404Y-50744D01*
X56317Y-50716D01*
X56226Y-50696D01*
X56134Y-50684D01*
X56041Y-50681D01*
X55947Y-50686D01*
X55855Y-50699D01*
X55765Y-50721D01*
X55678Y-50751D01*
X55595Y-50789D01*
X55523Y-50831D01*
X55456Y-50879D01*
X55391Y-50935D01*
X55330Y-50996D01*
X55276Y-51059D01*
X55267Y-51071D01*
X55215Y-51150D01*
X55171Y-51233D01*
X55135Y-51321D01*
X55109Y-51413D01*
X55091Y-51507D01*
X55082Y-51604D01*
X55082Y-51604D01*
X55082Y-51604D01*
G37*
G36*
X55788Y-51806D02*
X55843Y-51806D01*
X55899Y-51806D01*
X55899Y-52041D01*
X55899Y-52276D01*
X56050Y-52276D01*
X56201Y-52276D01*
X56201Y-52041D01*
X56201Y-51806D01*
X56257Y-51806D01*
X56313Y-51806D01*
X56313Y-51600D01*
X56313Y-51394D01*
X56301Y-51377D01*
X56296Y-51370D01*
X56292Y-51364D01*
X56286Y-51359D01*
X56279Y-51356D01*
X56269Y-51353D01*
X56255Y-51351D01*
X56236Y-51349D01*
X56212Y-51348D01*
X56182Y-51348D01*
X56144Y-51347D01*
X56098Y-51347D01*
X56051Y-51347D01*
X55996Y-51347D01*
X55951Y-51347D01*
X55914Y-51348D01*
X55884Y-51348D01*
X55860Y-51349D01*
X55842Y-51351D01*
X55829Y-51354D01*
X55819Y-51357D01*
X55812Y-51361D01*
X55806Y-51366D01*
X55802Y-51372D01*
X55797Y-51379D01*
X55795Y-51383D01*
X55793Y-51388D01*
X55791Y-51396D01*
X55790Y-51405D01*
X55789Y-51419D01*
X55788Y-51437D01*
X55788Y-51461D01*
X55788Y-51491D01*
X55788Y-51530D01*
X55788Y-51577D01*
X55788Y-51601D01*
X55788Y-51806D01*
X55788Y-51806D01*
X55788Y-51806D01*
G37*
G36*
X55915Y-51155D02*
X55916Y-51183D01*
X55923Y-51219D01*
X55937Y-51247D01*
X55957Y-51268D01*
X55984Y-51283D01*
X56002Y-51289D01*
X56037Y-51295D01*
X56068Y-51295D01*
X56100Y-51289D01*
X56131Y-51276D01*
X56155Y-51258D01*
X56171Y-51233D01*
X56181Y-51200D01*
X56184Y-51183D01*
X56185Y-51143D01*
X56178Y-51107D01*
X56164Y-51076D01*
X56143Y-51051D01*
X56126Y-51039D01*
X56114Y-51033D01*
X56103Y-51030D01*
X56090Y-51028D01*
X56071Y-51027D01*
X56050Y-51027D01*
X56025Y-51027D01*
X56008Y-51028D01*
X55995Y-51030D01*
X55984Y-51034D01*
X55975Y-51039D01*
X55950Y-51059D01*
X55931Y-51085D01*
X55919Y-51118D01*
X55915Y-51155D01*
X55915Y-51155D01*
X55915Y-51155D01*
G37*
G36*
X52881Y-51665D02*
X52887Y-51765D01*
X52902Y-51861D01*
X52924Y-51950D01*
X52955Y-52036D01*
X52996Y-52118D01*
X53045Y-52197D01*
X53058Y-52215D01*
X53058Y-51630D01*
X53060Y-51582D01*
X53064Y-51538D01*
X53071Y-51494D01*
X53081Y-51449D01*
X53083Y-51440D01*
X53107Y-51364D01*
X53141Y-51289D01*
X53183Y-51218D01*
X53233Y-51151D01*
X53289Y-51088D01*
X53351Y-51032D01*
X53419Y-50982D01*
X53490Y-50940D01*
X53560Y-50908D01*
X53614Y-50889D01*
X53667Y-50875D01*
X53722Y-50866D01*
X53782Y-50860D01*
X53822Y-50859D01*
X53912Y-50860D01*
X53996Y-50869D01*
X54074Y-50887D01*
X54149Y-50912D01*
X54220Y-50947D01*
X54289Y-50990D01*
X54349Y-51036D01*
X54416Y-51099D01*
X54475Y-51167D01*
X54525Y-51239D01*
X54568Y-51316D01*
X54601Y-51396D01*
X54625Y-51480D01*
X54633Y-51519D01*
X54637Y-51544D01*
X54640Y-51566D01*
X54641Y-51588D01*
X54642Y-51612D01*
X54642Y-51642D01*
X54641Y-51675D01*
X54639Y-51718D01*
X54637Y-51752D01*
X54634Y-51781D01*
X54630Y-51806D01*
X54628Y-51814D01*
X54605Y-51895D01*
X54576Y-51970D01*
X54539Y-52039D01*
X54495Y-52106D01*
X54441Y-52170D01*
X54420Y-52192D01*
X54358Y-52251D01*
X54296Y-52301D01*
X54232Y-52342D01*
X54196Y-52361D01*
X54150Y-52382D01*
X54106Y-52399D01*
X54061Y-52413D01*
X54012Y-52425D01*
X53956Y-52435D01*
X53928Y-52439D01*
X53909Y-52441D01*
X53882Y-52441D01*
X53850Y-52441D01*
X53815Y-52439D01*
X53780Y-52437D01*
X53746Y-52434D01*
X53716Y-52431D01*
X53693Y-52428D01*
X53691Y-52427D01*
X53608Y-52405D01*
X53528Y-52374D01*
X53452Y-52334D01*
X53380Y-52285D01*
X53310Y-52227D01*
X53269Y-52187D01*
X53213Y-52123D01*
X53165Y-52056D01*
X53127Y-51988D01*
X53098Y-51915D01*
X53077Y-51838D01*
X53064Y-51756D01*
X53059Y-51684D01*
X53058Y-51630D01*
X53058Y-52215D01*
X53102Y-52271D01*
X53166Y-52340D01*
X53237Y-52403D01*
X53314Y-52460D01*
X53398Y-52509D01*
X53420Y-52521D01*
X53500Y-52556D01*
X53585Y-52583D01*
X53675Y-52603D01*
X53766Y-52615D01*
X53858Y-52619D01*
X53948Y-52615D01*
X53961Y-52614D01*
X54057Y-52598D01*
X54150Y-52572D01*
X54239Y-52538D01*
X54325Y-52495D01*
X54406Y-52443D01*
X54482Y-52382D01*
X54553Y-52314D01*
X54619Y-52237D01*
X54675Y-52158D01*
X54720Y-52081D01*
X54756Y-51998D01*
X54784Y-51911D01*
X54804Y-51821D01*
X54816Y-51730D01*
X54819Y-51637D01*
X54814Y-51544D01*
X54800Y-51453D01*
X54777Y-51363D01*
X54746Y-51277D01*
X54729Y-51239D01*
X54683Y-51154D01*
X54630Y-51074D01*
X54569Y-51000D01*
X54502Y-50933D01*
X54430Y-50872D01*
X54353Y-50819D01*
X54271Y-50774D01*
X54186Y-50738D01*
X54098Y-50710D01*
X54058Y-50701D01*
X53957Y-50686D01*
X53857Y-50680D01*
X53759Y-50684D01*
X53663Y-50697D01*
X53570Y-50720D01*
X53480Y-50751D01*
X53394Y-50791D01*
X53312Y-50840D01*
X53235Y-50897D01*
X53163Y-50963D01*
X53096Y-51036D01*
X53036Y-51117D01*
X53031Y-51125D01*
X52984Y-51205D01*
X52946Y-51290D01*
X52917Y-51379D01*
X52896Y-51471D01*
X52884Y-51567D01*
X52881Y-51665D01*
X52881Y-51665D01*
X52881Y-51665D01*
G37*
G36*
X53358Y-51654D02*
X53359Y-51699D01*
X53362Y-51741D01*
X53366Y-51777D01*
X53368Y-51784D01*
X53388Y-51855D01*
X53416Y-51921D01*
X53451Y-51980D01*
X53494Y-52032D01*
X53542Y-52078D01*
X53597Y-52115D01*
X53657Y-52145D01*
X53723Y-52166D01*
X53794Y-52179D01*
X53804Y-52180D01*
X53830Y-52182D01*
X53850Y-52184D01*
X53866Y-52184D01*
X53882Y-52183D01*
X53901Y-52181D01*
X53923Y-52179D01*
X53980Y-52168D01*
X54037Y-52148D01*
X54091Y-52121D01*
X54140Y-52088D01*
X54146Y-52083D01*
X54188Y-52042D01*
X54224Y-51993D01*
X54252Y-51938D01*
X54273Y-51879D01*
X54281Y-51845D01*
X54288Y-51806D01*
X54166Y-51806D01*
X54043Y-51806D01*
X54040Y-51831D01*
X54031Y-51870D01*
X54013Y-51904D01*
X53987Y-51933D01*
X53954Y-51956D01*
X53938Y-51963D01*
X53924Y-51968D01*
X53910Y-51972D01*
X53894Y-51974D01*
X53873Y-51975D01*
X53845Y-51975D01*
X53842Y-51975D01*
X53815Y-51975D01*
X53795Y-51975D01*
X53780Y-51973D01*
X53769Y-51970D01*
X53757Y-51966D01*
X53748Y-51962D01*
X53712Y-51940D01*
X53681Y-51910D01*
X53655Y-51872D01*
X53634Y-51827D01*
X53618Y-51778D01*
X53608Y-51723D01*
X53604Y-51665D01*
X53607Y-51604D01*
X53607Y-51601D01*
X53616Y-51542D01*
X53628Y-51492D01*
X53646Y-51449D01*
X53669Y-51414D01*
X53697Y-51386D01*
X53731Y-51364D01*
X53738Y-51360D01*
X53753Y-51354D01*
X53766Y-51349D01*
X53779Y-51346D01*
X53796Y-51345D01*
X53818Y-51345D01*
X53830Y-51345D01*
X53873Y-51346D01*
X53908Y-51352D01*
X53937Y-51362D01*
X53963Y-51377D01*
X53983Y-51393D01*
X54006Y-51419D01*
X54025Y-51450D01*
X54037Y-51483D01*
X54040Y-51496D01*
X54043Y-51514D01*
X54009Y-51514D01*
X53974Y-51514D01*
X54070Y-51610D01*
X54165Y-51705D01*
X54260Y-51611D01*
X54355Y-51516D01*
X54319Y-51514D01*
X54282Y-51511D01*
X54271Y-51465D01*
X54251Y-51399D01*
X54223Y-51340D01*
X54188Y-51289D01*
X54146Y-51244D01*
X54097Y-51207D01*
X54041Y-51177D01*
X53980Y-51155D01*
X53950Y-51149D01*
X53914Y-51144D01*
X53874Y-51141D01*
X53833Y-51141D01*
X53795Y-51143D01*
X53772Y-51145D01*
X53704Y-51159D01*
X53640Y-51181D01*
X53582Y-51212D01*
X53529Y-51251D01*
X53482Y-51297D01*
X53443Y-51350D01*
X53410Y-51410D01*
X53384Y-51475D01*
X53370Y-51529D01*
X53364Y-51566D01*
X53360Y-51609D01*
X53358Y-51654D01*
X53358Y-51654D01*
X53358Y-51654D01*
G37*
G36*
X34016Y-54981D02*
X35173Y-54981D01*
X35173Y-44796D01*
X35175Y-44790D01*
X35175Y-43781D01*
X35191Y-43724D01*
X35225Y-43677D01*
X35234Y-43670D01*
X35234Y-43222D01*
X35252Y-43162D01*
X35291Y-43116D01*
X35345Y-43087D01*
X35406Y-43079D01*
X35409Y-43080D01*
X35409Y-42696D01*
X35424Y-42652D01*
X35456Y-42592D01*
X35494Y-42560D01*
X35549Y-42551D01*
X35577Y-42552D01*
X35631Y-42561D01*
X35667Y-42583D01*
X35685Y-42607D01*
X35685Y-42233D01*
X35693Y-42173D01*
X35699Y-42161D01*
X35734Y-42109D01*
X35775Y-42083D01*
X35836Y-42076D01*
X35839Y-42076D01*
X35915Y-42088D01*
X35965Y-42124D01*
X35991Y-42186D01*
X35995Y-42229D01*
X35989Y-42291D01*
X35966Y-42333D01*
X35919Y-42369D01*
X35916Y-42371D01*
X35866Y-42384D01*
X35804Y-42379D01*
X35748Y-42358D01*
X35731Y-42345D01*
X35699Y-42297D01*
X35685Y-42233D01*
X35685Y-42607D01*
X35692Y-42617D01*
X35724Y-42678D01*
X35728Y-42731D01*
X35702Y-42786D01*
X35689Y-42804D01*
X35634Y-42851D01*
X35571Y-42870D01*
X35509Y-42860D01*
X35455Y-42822D01*
X35426Y-42778D01*
X35409Y-42732D01*
X35409Y-42696D01*
X35409Y-43080D01*
X35467Y-43098D01*
X35505Y-43127D01*
X35542Y-43185D01*
X35551Y-43251D01*
X35534Y-43315D01*
X35492Y-43366D01*
X35472Y-43379D01*
X35425Y-43400D01*
X35386Y-43402D01*
X35339Y-43386D01*
X35324Y-43379D01*
X35267Y-43333D01*
X35243Y-43290D01*
X35234Y-43222D01*
X35234Y-43670D01*
X35274Y-43643D01*
X35332Y-43630D01*
X35394Y-43643D01*
X35431Y-43664D01*
X35463Y-43695D01*
X35478Y-43736D01*
X35484Y-43783D01*
X35485Y-43838D01*
X35475Y-43872D01*
X35449Y-43901D01*
X35440Y-43908D01*
X35373Y-43944D01*
X35305Y-43946D01*
X35240Y-43913D01*
X35223Y-43898D01*
X35185Y-43840D01*
X35175Y-43781D01*
X35175Y-44790D01*
X35177Y-44784D01*
X35177Y-44278D01*
X35211Y-44213D01*
X35226Y-44196D01*
X35289Y-44152D01*
X35355Y-44144D01*
X35424Y-44170D01*
X35436Y-44178D01*
X35468Y-44206D01*
X35483Y-44239D01*
X35487Y-44291D01*
X35487Y-44298D01*
X35478Y-44368D01*
X35450Y-44416D01*
X35393Y-44450D01*
X35382Y-44455D01*
X35328Y-44460D01*
X35278Y-44446D01*
X35238Y-44429D01*
X35216Y-44418D01*
X35215Y-44417D01*
X35179Y-44347D01*
X35177Y-44278D01*
X35177Y-44784D01*
X35199Y-44733D01*
X35214Y-44715D01*
X35275Y-44668D01*
X35339Y-44656D01*
X35411Y-44677D01*
X35414Y-44679D01*
X35454Y-44703D01*
X35474Y-44730D01*
X35482Y-44773D01*
X35484Y-44797D01*
X35478Y-44875D01*
X35446Y-44930D01*
X35391Y-44966D01*
X35356Y-44978D01*
X35328Y-44979D01*
X35289Y-44966D01*
X35269Y-44958D01*
X35210Y-44917D01*
X35177Y-44860D01*
X35173Y-44796D01*
X35173Y-54981D01*
X35174Y-54981D01*
X35174Y-50439D01*
X35177Y-50430D01*
X35177Y-49438D01*
X35177Y-48919D01*
X35177Y-45809D01*
X35177Y-45361D01*
X35181Y-45298D01*
X35215Y-45236D01*
X35245Y-45206D01*
X35300Y-45168D01*
X35349Y-45161D01*
X35402Y-45184D01*
X35430Y-45203D01*
X35464Y-45232D01*
X35481Y-45261D01*
X35485Y-45301D01*
X35484Y-45339D01*
X35478Y-45393D01*
X35466Y-45425D01*
X35441Y-45447D01*
X35417Y-45459D01*
X35363Y-45483D01*
X35323Y-45488D01*
X35281Y-45475D01*
X35259Y-45464D01*
X35203Y-45419D01*
X35177Y-45361D01*
X35177Y-45809D01*
X35195Y-45770D01*
X35222Y-45738D01*
X35284Y-45694D01*
X35351Y-45683D01*
X35419Y-45704D01*
X35441Y-45719D01*
X35476Y-45767D01*
X35490Y-45830D01*
X35482Y-45896D01*
X35453Y-45953D01*
X35449Y-45957D01*
X35396Y-45991D01*
X35331Y-45998D01*
X35265Y-45980D01*
X35233Y-45958D01*
X35192Y-45903D01*
X35179Y-45857D01*
X35177Y-45809D01*
X35177Y-48919D01*
X35180Y-48903D01*
X35180Y-47406D01*
X35180Y-47380D01*
X35181Y-47377D01*
X35181Y-46880D01*
X35181Y-46356D01*
X35181Y-46348D01*
X35200Y-46276D01*
X35242Y-46224D01*
X35299Y-46194D01*
X35365Y-46192D01*
X35431Y-46219D01*
X35441Y-46227D01*
X35469Y-46254D01*
X35483Y-46288D01*
X35487Y-46340D01*
X35487Y-46356D01*
X35482Y-46424D01*
X35466Y-46465D01*
X35462Y-46470D01*
X35404Y-46499D01*
X35333Y-46509D01*
X35286Y-46503D01*
X35248Y-46493D01*
X35229Y-46488D01*
X35216Y-46473D01*
X35201Y-46437D01*
X35187Y-46394D01*
X35181Y-46356D01*
X35181Y-46880D01*
X35187Y-46800D01*
X35188Y-46800D01*
X35201Y-46780D01*
X35228Y-46752D01*
X35280Y-46724D01*
X35347Y-46716D01*
X35413Y-46729D01*
X35444Y-46744D01*
X35470Y-46766D01*
X35483Y-46796D01*
X35487Y-46846D01*
X35487Y-46867D01*
X35485Y-46923D01*
X35476Y-46957D01*
X35455Y-46980D01*
X35430Y-46996D01*
X35370Y-47025D01*
X35318Y-47027D01*
X35259Y-47005D01*
X35214Y-46974D01*
X35189Y-46935D01*
X35181Y-46880D01*
X35181Y-47377D01*
X35191Y-47314D01*
X35211Y-47273D01*
X35247Y-47246D01*
X35253Y-47244D01*
X35330Y-47225D01*
X35403Y-47238D01*
X35441Y-47260D01*
X35470Y-47289D01*
X35484Y-47325D01*
X35487Y-47381D01*
X35487Y-47383D01*
X35485Y-47437D01*
X35474Y-47469D01*
X35447Y-47493D01*
X35430Y-47504D01*
X35359Y-47534D01*
X35294Y-47531D01*
X35233Y-47494D01*
X35228Y-47490D01*
X35192Y-47448D01*
X35180Y-47406D01*
X35180Y-48903D01*
X35182Y-48887D01*
X35182Y-47896D01*
X35184Y-47852D01*
X35196Y-47819D01*
X35216Y-47791D01*
X35249Y-47758D01*
X35287Y-47743D01*
X35335Y-47740D01*
X35409Y-47749D01*
X35456Y-47779D01*
X35481Y-47832D01*
X35487Y-47898D01*
X35484Y-47957D01*
X35473Y-47992D01*
X35449Y-48017D01*
X35447Y-48018D01*
X35391Y-48041D01*
X35323Y-48045D01*
X35260Y-48031D01*
X35228Y-48011D01*
X35200Y-47982D01*
X35188Y-47963D01*
X35182Y-47896D01*
X35182Y-48887D01*
X35183Y-48874D01*
X35183Y-48382D01*
X35206Y-48313D01*
X35212Y-48304D01*
X35256Y-48265D01*
X35318Y-48248D01*
X35385Y-48252D01*
X35446Y-48280D01*
X35456Y-48288D01*
X35477Y-48320D01*
X35486Y-48375D01*
X35487Y-48408D01*
X35485Y-48465D01*
X35476Y-48498D01*
X35454Y-48521D01*
X35430Y-48537D01*
X35372Y-48565D01*
X35321Y-48569D01*
X35268Y-48551D01*
X35216Y-48510D01*
X35187Y-48450D01*
X35183Y-48382D01*
X35183Y-48874D01*
X35185Y-48859D01*
X35189Y-48840D01*
X35201Y-48827D01*
X35228Y-48800D01*
X35283Y-48771D01*
X35349Y-48765D01*
X35413Y-48780D01*
X35446Y-48803D01*
X35474Y-48838D01*
X35485Y-48885D01*
X35487Y-48925D01*
X35485Y-48979D01*
X35473Y-49011D01*
X35445Y-49036D01*
X35430Y-49045D01*
X35360Y-49076D01*
X35297Y-49073D01*
X35238Y-49037D01*
X35225Y-49025D01*
X35195Y-48991D01*
X35180Y-48960D01*
X35177Y-48919D01*
X35177Y-49438D01*
X35187Y-49369D01*
X35223Y-49318D01*
X35284Y-49287D01*
X35335Y-49281D01*
X35409Y-49290D01*
X35456Y-49319D01*
X35481Y-49373D01*
X35487Y-49440D01*
X35485Y-49495D01*
X35476Y-49527D01*
X35453Y-49549D01*
X35421Y-49567D01*
X35374Y-49592D01*
X35343Y-49601D01*
X35315Y-49596D01*
X35273Y-49577D01*
X35269Y-49576D01*
X35227Y-49550D01*
X35200Y-49524D01*
X35197Y-49519D01*
X35177Y-49438D01*
X35177Y-50430D01*
X35178Y-50428D01*
X35178Y-49923D01*
X35202Y-49854D01*
X35252Y-49807D01*
X35314Y-49787D01*
X35362Y-49785D01*
X35403Y-49803D01*
X35432Y-49825D01*
X35466Y-49857D01*
X35482Y-49888D01*
X35485Y-49932D01*
X35484Y-49960D01*
X35478Y-50014D01*
X35465Y-50046D01*
X35437Y-50069D01*
X35418Y-50080D01*
X35371Y-50104D01*
X35338Y-50110D01*
X35304Y-50102D01*
X35269Y-50086D01*
X35209Y-50042D01*
X35180Y-49982D01*
X35178Y-49923D01*
X35178Y-50428D01*
X35195Y-50378D01*
X35245Y-50328D01*
X35267Y-50316D01*
X35339Y-50298D01*
X35406Y-50316D01*
X35447Y-50346D01*
X35474Y-50381D01*
X35486Y-50429D01*
X35487Y-50465D01*
X35484Y-50520D01*
X35470Y-50555D01*
X35439Y-50584D01*
X35371Y-50616D01*
X35303Y-50615D01*
X35238Y-50578D01*
X35226Y-50567D01*
X35184Y-50505D01*
X35174Y-50439D01*
X35174Y-54981D01*
X35176Y-54981D01*
X35176Y-51000D01*
X35180Y-50933D01*
X35217Y-50867D01*
X35258Y-50829D01*
X35303Y-50815D01*
X35331Y-50813D01*
X35406Y-50826D01*
X35457Y-50864D01*
X35483Y-50927D01*
X35487Y-50973D01*
X35484Y-51027D01*
X35471Y-51062D01*
X35441Y-51088D01*
X35439Y-51089D01*
X35398Y-51116D01*
X35365Y-51132D01*
X35364Y-51132D01*
X35317Y-51132D01*
X35263Y-51110D01*
X35215Y-51072D01*
X35207Y-51063D01*
X35176Y-51000D01*
X35176Y-54981D01*
X35233Y-54981D01*
X35233Y-51518D01*
X35250Y-51457D01*
X35288Y-51405D01*
X35342Y-51370D01*
X35404Y-51360D01*
X35426Y-51363D01*
X35488Y-51394D01*
X35530Y-51444D01*
X35549Y-51505D01*
X35546Y-51568D01*
X35517Y-51625D01*
X35472Y-51663D01*
X35414Y-51685D01*
X35362Y-51681D01*
X35316Y-51659D01*
X35273Y-51623D01*
X35243Y-51580D01*
X35233Y-51518D01*
X35233Y-54981D01*
X35409Y-54981D01*
X35409Y-52067D01*
X35409Y-52032D01*
X35426Y-51987D01*
X35428Y-51983D01*
X35471Y-51924D01*
X35532Y-51894D01*
X35599Y-51894D01*
X35641Y-51915D01*
X35685Y-51955D01*
X35719Y-52003D01*
X35732Y-52046D01*
X35732Y-52046D01*
X35721Y-52093D01*
X35694Y-52145D01*
X35661Y-52187D01*
X35649Y-52195D01*
X35595Y-52211D01*
X35531Y-52210D01*
X35486Y-52196D01*
X35457Y-52168D01*
X35430Y-52123D01*
X35425Y-52113D01*
X35409Y-52067D01*
X35409Y-54981D01*
X35685Y-54981D01*
X35685Y-52530D01*
X35700Y-52462D01*
X35737Y-52411D01*
X35781Y-52385D01*
X35840Y-52379D01*
X35850Y-52379D01*
X35923Y-52393D01*
X35970Y-52428D01*
X35992Y-52487D01*
X35995Y-52527D01*
X35984Y-52604D01*
X35949Y-52656D01*
X35890Y-52682D01*
X35842Y-52687D01*
X35789Y-52682D01*
X35750Y-52670D01*
X35743Y-52664D01*
X35700Y-52601D01*
X35685Y-52530D01*
X35685Y-54981D01*
X36051Y-54981D01*
X36051Y-41804D01*
X36064Y-41769D01*
X36065Y-41767D01*
X36100Y-41706D01*
X36135Y-41672D01*
X36179Y-41657D01*
X36215Y-41656D01*
X36270Y-41661D01*
X36307Y-41680D01*
X36327Y-41703D01*
X36365Y-41765D01*
X36373Y-41824D01*
X36357Y-41883D01*
X36317Y-41939D01*
X36263Y-41969D01*
X36201Y-41973D01*
X36141Y-41950D01*
X36089Y-41902D01*
X36074Y-41880D01*
X36053Y-41835D01*
X36051Y-41804D01*
X36051Y-54981D01*
X36054Y-54981D01*
X36054Y-52948D01*
X36064Y-52899D01*
X36105Y-52835D01*
X36159Y-52796D01*
X36220Y-52782D01*
X36279Y-52795D01*
X36329Y-52833D01*
X36346Y-52864D01*
X36346Y-44058D01*
X36348Y-43838D01*
X36377Y-43628D01*
X36432Y-43431D01*
X36505Y-43267D01*
X36505Y-41477D01*
X36531Y-41408D01*
X36536Y-41400D01*
X36583Y-41351D01*
X36639Y-41330D01*
X36699Y-41333D01*
X36753Y-41359D01*
X36795Y-41405D01*
X36816Y-41469D01*
X36818Y-41491D01*
X36813Y-41545D01*
X36791Y-41584D01*
X36764Y-41611D01*
X36699Y-41649D01*
X36637Y-41652D01*
X36577Y-41621D01*
X36555Y-41601D01*
X36513Y-41540D01*
X36505Y-41477D01*
X36505Y-43267D01*
X36512Y-43252D01*
X36617Y-43093D01*
X36692Y-43007D01*
X36780Y-42929D01*
X36883Y-42850D01*
X36991Y-42780D01*
X37010Y-42770D01*
X37010Y-41262D01*
X37026Y-41199D01*
X37061Y-41150D01*
X37121Y-41106D01*
X37183Y-41097D01*
X37248Y-41123D01*
X37272Y-41140D01*
X37315Y-41197D01*
X37328Y-41264D01*
X37308Y-41333D01*
X37280Y-41374D01*
X37225Y-41419D01*
X37163Y-41430D01*
X37101Y-41407D01*
X37061Y-41374D01*
X37020Y-41312D01*
X37010Y-41262D01*
X37010Y-42770D01*
X37092Y-42726D01*
X37133Y-42709D01*
X37226Y-42676D01*
X37334Y-42643D01*
X37443Y-42613D01*
X37538Y-42591D01*
X37552Y-42588D01*
X37552Y-41179D01*
X37557Y-41115D01*
X37589Y-41052D01*
X37600Y-41040D01*
X37654Y-41003D01*
X37713Y-40993D01*
X37770Y-41004D01*
X37822Y-41033D01*
X37862Y-41075D01*
X37883Y-41126D01*
X37881Y-41181D01*
X37855Y-41229D01*
X37792Y-41283D01*
X37723Y-41304D01*
X37646Y-41290D01*
X37625Y-41280D01*
X37575Y-41237D01*
X37552Y-41179D01*
X37552Y-42588D01*
X37576Y-42583D01*
X37780Y-42559D01*
X37995Y-42551D01*
X38110Y-42555D01*
X38110Y-41175D01*
X38113Y-41107D01*
X38116Y-41096D01*
X38153Y-41036D01*
X38208Y-41001D01*
X38274Y-40992D01*
X38341Y-41013D01*
X38375Y-41035D01*
X38413Y-41076D01*
X38427Y-41122D01*
X38429Y-41148D01*
X38422Y-41201D01*
X38395Y-41242D01*
X38375Y-41260D01*
X38311Y-41298D01*
X38244Y-41301D01*
X38185Y-41280D01*
X38135Y-41236D01*
X38110Y-41175D01*
X38110Y-42555D01*
X38212Y-42558D01*
X38424Y-42580D01*
X38620Y-42615D01*
X38647Y-42623D01*
X38647Y-41250D01*
X38662Y-41207D01*
X38665Y-41200D01*
X38709Y-41136D01*
X38766Y-41103D01*
X38834Y-41103D01*
X38882Y-41121D01*
X38934Y-41165D01*
X38961Y-41226D01*
X38964Y-41292D01*
X38941Y-41355D01*
X38907Y-41393D01*
X38852Y-41419D01*
X38791Y-41427D01*
X38738Y-41414D01*
X38718Y-41400D01*
X38691Y-41365D01*
X38663Y-41319D01*
X38647Y-41281D01*
X38647Y-41250D01*
X38647Y-42623D01*
X38788Y-42663D01*
X38875Y-42694D01*
X38940Y-42721D01*
X38994Y-42747D01*
X39049Y-42779D01*
X39103Y-42815D01*
X39156Y-42854D01*
X39156Y-41482D01*
X39176Y-41416D01*
X39179Y-41411D01*
X39223Y-41359D01*
X39278Y-41334D01*
X39337Y-41333D01*
X39393Y-41353D01*
X39440Y-41393D01*
X39469Y-41448D01*
X39473Y-41517D01*
X39472Y-41525D01*
X39444Y-41590D01*
X39397Y-41633D01*
X39338Y-41653D01*
X39275Y-41647D01*
X39218Y-41613D01*
X39212Y-41607D01*
X39167Y-41544D01*
X39156Y-41482D01*
X39156Y-42854D01*
X39242Y-42920D01*
X39354Y-43038D01*
X39449Y-43177D01*
X39465Y-43205D01*
X39506Y-43283D01*
X39537Y-43350D01*
X39562Y-43417D01*
X39584Y-43495D01*
X39606Y-43594D01*
X39609Y-43606D01*
X39609Y-41821D01*
X39616Y-41766D01*
X39652Y-41707D01*
X39657Y-41701D01*
X39689Y-41670D01*
X39731Y-41657D01*
X39768Y-41656D01*
X39824Y-41660D01*
X39860Y-41679D01*
X39881Y-41703D01*
X39920Y-41767D01*
X39927Y-41828D01*
X39909Y-41883D01*
X39864Y-41939D01*
X39805Y-41969D01*
X39743Y-41973D01*
X39684Y-41950D01*
X39638Y-41901D01*
X39628Y-41883D01*
X39609Y-41821D01*
X39609Y-43606D01*
X39613Y-43622D01*
X39629Y-43741D01*
X39634Y-43878D01*
X39629Y-44023D01*
X39615Y-44169D01*
X39591Y-44305D01*
X39560Y-44424D01*
X39526Y-44508D01*
X39472Y-44610D01*
X39427Y-44689D01*
X39384Y-44753D01*
X39338Y-44811D01*
X39292Y-44862D01*
X39212Y-44938D01*
X39119Y-45014D01*
X39023Y-45083D01*
X38935Y-45137D01*
X38901Y-45154D01*
X38701Y-45228D01*
X38477Y-45283D01*
X38237Y-45318D01*
X37987Y-45331D01*
X37733Y-45322D01*
X37648Y-45314D01*
X37560Y-45303D01*
X37469Y-45289D01*
X37392Y-45276D01*
X37373Y-45272D01*
X37301Y-45254D01*
X37218Y-45229D01*
X37133Y-45200D01*
X37054Y-45171D01*
X36990Y-45144D01*
X36948Y-45123D01*
X36943Y-45118D01*
X36906Y-45093D01*
X36867Y-45071D01*
X36777Y-45011D01*
X36680Y-44919D01*
X36602Y-44827D01*
X36526Y-44725D01*
X36470Y-44624D01*
X36427Y-44517D01*
X36393Y-44393D01*
X36372Y-44285D01*
X36346Y-44058D01*
X36346Y-52864D01*
X36350Y-52871D01*
X36350Y-50586D01*
X36355Y-50396D01*
X36375Y-50248D01*
X36375Y-46192D01*
X36377Y-46170D01*
X36384Y-46151D01*
X36398Y-46135D01*
X36421Y-46122D01*
X36455Y-46112D01*
X36503Y-46103D01*
X36566Y-46097D01*
X36647Y-46092D01*
X36747Y-46090D01*
X36869Y-46088D01*
X37015Y-46087D01*
X37186Y-46087D01*
X37385Y-46088D01*
X37614Y-46089D01*
X37875Y-46089D01*
X38013Y-46090D01*
X39576Y-46094D01*
X39576Y-46235D01*
X39576Y-46374D01*
X38189Y-46374D01*
X37972Y-46374D01*
X37766Y-46375D01*
X37574Y-46376D01*
X37397Y-46377D01*
X37239Y-46378D01*
X37102Y-46379D01*
X36988Y-46380D01*
X36901Y-46382D01*
X36843Y-46383D01*
X36816Y-46385D01*
X36814Y-46385D01*
X36835Y-46399D01*
X36878Y-46423D01*
X36936Y-46455D01*
X36958Y-46467D01*
X37036Y-46509D01*
X37120Y-46555D01*
X37190Y-46595D01*
X37194Y-46597D01*
X37251Y-46629D01*
X37299Y-46655D01*
X37325Y-46669D01*
X37364Y-46689D01*
X37378Y-46698D01*
X37401Y-46711D01*
X37449Y-46738D01*
X37518Y-46778D01*
X37604Y-46826D01*
X37702Y-46881D01*
X37755Y-46910D01*
X37866Y-46972D01*
X37976Y-47035D01*
X38079Y-47093D01*
X38166Y-47143D01*
X38233Y-47182D01*
X38247Y-47191D01*
X38310Y-47228D01*
X38360Y-47256D01*
X38392Y-47274D01*
X38399Y-47276D01*
X38417Y-47285D01*
X38458Y-47307D01*
X38514Y-47338D01*
X38537Y-47352D01*
X38599Y-47388D01*
X38652Y-47418D01*
X38686Y-47437D01*
X38691Y-47440D01*
X38728Y-47460D01*
X38753Y-47474D01*
X38780Y-47490D01*
X38831Y-47520D01*
X38900Y-47559D01*
X38979Y-47604D01*
X39061Y-47652D01*
X39142Y-47698D01*
X39212Y-47738D01*
X39267Y-47769D01*
X39293Y-47783D01*
X39406Y-47851D01*
X39491Y-47911D01*
X39546Y-47963D01*
X39565Y-47994D01*
X39588Y-48076D01*
X39596Y-48164D01*
X39591Y-48247D01*
X39573Y-48318D01*
X39544Y-48366D01*
X39537Y-48372D01*
X39527Y-48376D01*
X39506Y-48380D01*
X39473Y-48383D01*
X39427Y-48386D01*
X39364Y-48388D01*
X39282Y-48390D01*
X39180Y-48391D01*
X39056Y-48392D01*
X38908Y-48393D01*
X38733Y-48393D01*
X38529Y-48393D01*
X38296Y-48393D01*
X38030Y-48392D01*
X37947Y-48392D01*
X36389Y-48388D01*
X36389Y-48248D01*
X36389Y-48108D01*
X37824Y-48099D01*
X38045Y-48098D01*
X38255Y-48096D01*
X38451Y-48095D01*
X38631Y-48093D01*
X38793Y-48092D01*
X38934Y-48091D01*
X39051Y-48090D01*
X39142Y-48088D01*
X39205Y-48087D01*
X39237Y-48086D01*
X39241Y-48086D01*
X39219Y-48076D01*
X39171Y-48051D01*
X39102Y-48013D01*
X39015Y-47966D01*
X38915Y-47910D01*
X38806Y-47849D01*
X38692Y-47785D01*
X38579Y-47720D01*
X38469Y-47657D01*
X38368Y-47598D01*
X38278Y-47546D01*
X38245Y-47526D01*
X38199Y-47501D01*
X38173Y-47489D01*
X38141Y-47471D01*
X38089Y-47442D01*
X38028Y-47406D01*
X38020Y-47400D01*
X37964Y-47367D01*
X37920Y-47342D01*
X37895Y-47329D01*
X37894Y-47329D01*
X37876Y-47321D01*
X37834Y-47297D01*
X37770Y-47261D01*
X37691Y-47215D01*
X37600Y-47162D01*
X37586Y-47154D01*
X37494Y-47100D01*
X37413Y-47053D01*
X37347Y-47015D01*
X37302Y-46990D01*
X37281Y-46979D01*
X37281Y-46979D01*
X37264Y-46970D01*
X37224Y-46948D01*
X37167Y-46916D01*
X37129Y-46893D01*
X37065Y-46856D01*
X37011Y-46826D01*
X36975Y-46806D01*
X36966Y-46802D01*
X36922Y-46781D01*
X36857Y-46744D01*
X36779Y-46698D01*
X36695Y-46645D01*
X36613Y-46591D01*
X36540Y-46541D01*
X36483Y-46501D01*
X36454Y-46476D01*
X36416Y-46435D01*
X36394Y-46404D01*
X36383Y-46368D01*
X36380Y-46316D01*
X36380Y-46279D01*
X36379Y-46246D01*
X36377Y-46217D01*
X36375Y-46192D01*
X36375Y-50248D01*
X36381Y-50204D01*
X36390Y-50165D01*
X36448Y-49986D01*
X36534Y-49825D01*
X36647Y-49684D01*
X36785Y-49566D01*
X36947Y-49471D01*
X37129Y-49401D01*
X37317Y-49361D01*
X37359Y-49357D01*
X37434Y-49354D01*
X37537Y-49351D01*
X37667Y-49349D01*
X37821Y-49347D01*
X37995Y-49345D01*
X38187Y-49343D01*
X38395Y-49343D01*
X38510Y-49343D01*
X39580Y-49342D01*
X39591Y-49382D01*
X39600Y-49440D01*
X39601Y-49506D01*
X39595Y-49568D01*
X39584Y-49606D01*
X39579Y-49613D01*
X39572Y-49619D01*
X39558Y-49624D01*
X39536Y-49628D01*
X39504Y-49632D01*
X39458Y-49634D01*
X39395Y-49637D01*
X39314Y-49638D01*
X39212Y-49639D01*
X39085Y-49640D01*
X38932Y-49640D01*
X38749Y-49640D01*
X38536Y-49641D01*
X38485Y-49641D01*
X38233Y-49641D01*
X38009Y-49642D01*
X37815Y-49643D01*
X37652Y-49646D01*
X37520Y-49649D01*
X37421Y-49652D01*
X37355Y-49656D01*
X37325Y-49660D01*
X37270Y-49672D01*
X37223Y-49683D01*
X37212Y-49685D01*
X37091Y-49723D01*
X36971Y-49788D01*
X36862Y-49872D01*
X36771Y-49970D01*
X36707Y-50075D01*
X36707Y-50075D01*
X36664Y-50189D01*
X36638Y-50305D01*
X36628Y-50433D01*
X36631Y-50568D01*
X36653Y-50743D01*
X36697Y-50894D01*
X36765Y-51020D01*
X36859Y-51125D01*
X36981Y-51210D01*
X37131Y-51277D01*
X37276Y-51320D01*
X37308Y-51327D01*
X37340Y-51333D01*
X37374Y-51339D01*
X37415Y-51343D01*
X37463Y-51347D01*
X37523Y-51350D01*
X37598Y-51352D01*
X37689Y-51354D01*
X37802Y-51355D01*
X37937Y-51355D01*
X38099Y-51356D01*
X38290Y-51356D01*
X38504Y-51356D01*
X39580Y-51356D01*
X39591Y-51396D01*
X39599Y-51454D01*
X39601Y-51527D01*
X39595Y-51594D01*
X39590Y-51615D01*
X39580Y-51655D01*
X38422Y-51649D01*
X38190Y-51648D01*
X37990Y-51647D01*
X37820Y-51646D01*
X37677Y-51644D01*
X37558Y-51643D01*
X37460Y-51641D01*
X37382Y-51638D01*
X37319Y-51635D01*
X37270Y-51632D01*
X37231Y-51627D01*
X37200Y-51622D01*
X37175Y-51616D01*
X37159Y-51612D01*
X37100Y-51595D01*
X37051Y-51581D01*
X37028Y-51575D01*
X36998Y-51564D01*
X36950Y-51542D01*
X36915Y-51524D01*
X36754Y-51423D01*
X36618Y-51297D01*
X36509Y-51150D01*
X36427Y-50981D01*
X36373Y-50793D01*
X36368Y-50764D01*
X36350Y-50586D01*
X36350Y-52871D01*
X36361Y-52892D01*
X36374Y-52942D01*
X36371Y-52979D01*
X36356Y-53016D01*
X36328Y-53058D01*
X36298Y-53087D01*
X36297Y-53088D01*
X36242Y-53104D01*
X36181Y-53102D01*
X36130Y-53081D01*
X36125Y-53077D01*
X36073Y-53013D01*
X36054Y-52948D01*
X36054Y-54981D01*
X36507Y-54981D01*
X36507Y-53294D01*
X36511Y-53230D01*
X36550Y-53166D01*
X36552Y-53164D01*
X36609Y-53118D01*
X36672Y-53106D01*
X36736Y-53128D01*
X36769Y-53154D01*
X36807Y-53211D01*
X36819Y-53275D01*
X36807Y-53337D01*
X36773Y-53389D01*
X36720Y-53421D01*
X36704Y-53425D01*
X36626Y-53426D01*
X36566Y-53398D01*
X36536Y-53363D01*
X36507Y-53294D01*
X36507Y-54981D01*
X37017Y-54981D01*
X37017Y-53539D01*
X37018Y-53470D01*
X37051Y-53399D01*
X37055Y-53393D01*
X37092Y-53353D01*
X37131Y-53337D01*
X37167Y-53335D01*
X37236Y-53350D01*
X37288Y-53392D01*
X37318Y-53456D01*
X37322Y-53516D01*
X37312Y-53569D01*
X37286Y-53606D01*
X37258Y-53627D01*
X37204Y-53658D01*
X37163Y-53666D01*
X37118Y-53652D01*
X37110Y-53648D01*
X37048Y-53600D01*
X37017Y-53539D01*
X37017Y-54981D01*
X37553Y-54981D01*
X37553Y-53612D01*
X37568Y-53542D01*
X37605Y-53491D01*
X37660Y-53461D01*
X37723Y-53456D01*
X37788Y-53477D01*
X37832Y-53511D01*
X37874Y-53572D01*
X37882Y-53635D01*
X37856Y-53693D01*
X37802Y-53741D01*
X37730Y-53768D01*
X37662Y-53761D01*
X37607Y-53727D01*
X37569Y-53687D01*
X37554Y-53642D01*
X37553Y-53612D01*
X37553Y-54981D01*
X38110Y-54981D01*
X38110Y-53594D01*
X38121Y-53555D01*
X38162Y-53495D01*
X38219Y-53462D01*
X38285Y-53456D01*
X38351Y-53481D01*
X38380Y-53504D01*
X38422Y-53564D01*
X38431Y-53628D01*
X38408Y-53689D01*
X38372Y-53727D01*
X38323Y-53760D01*
X38279Y-53771D01*
X38227Y-53761D01*
X38202Y-53753D01*
X38145Y-53716D01*
X38113Y-53661D01*
X38110Y-53594D01*
X38110Y-54981D01*
X38644Y-54981D01*
X38644Y-53491D01*
X38656Y-53459D01*
X38681Y-53414D01*
X38711Y-53368D01*
X38736Y-53344D01*
X38769Y-53336D01*
X38803Y-53335D01*
X38865Y-53342D01*
X38908Y-53367D01*
X38915Y-53374D01*
X38954Y-53437D01*
X38965Y-53506D01*
X38951Y-53571D01*
X38910Y-53625D01*
X38886Y-53641D01*
X38846Y-53660D01*
X38814Y-53665D01*
X38773Y-53654D01*
X38751Y-53647D01*
X38697Y-53611D01*
X38664Y-53560D01*
X38648Y-53521D01*
X38644Y-53491D01*
X38644Y-54981D01*
X39155Y-54981D01*
X39155Y-53280D01*
X39164Y-53223D01*
X39205Y-53164D01*
X39213Y-53155D01*
X39268Y-53116D01*
X39327Y-53106D01*
X39382Y-53121D01*
X39430Y-53155D01*
X39462Y-53205D01*
X39475Y-53266D01*
X39462Y-53333D01*
X39454Y-53349D01*
X39411Y-53398D01*
X39348Y-53424D01*
X39274Y-53423D01*
X39261Y-53419D01*
X39223Y-53409D01*
X39206Y-53405D01*
X39198Y-53391D01*
X39180Y-53356D01*
X39174Y-53343D01*
X39155Y-53280D01*
X39155Y-54981D01*
X39609Y-54981D01*
X39609Y-52937D01*
X39626Y-52876D01*
X39665Y-52825D01*
X39719Y-52791D01*
X39782Y-52784D01*
X39798Y-52787D01*
X39852Y-52809D01*
X39891Y-52850D01*
X39911Y-52884D01*
X39927Y-52947D01*
X39915Y-53006D01*
X39880Y-53056D01*
X39829Y-53092D01*
X39771Y-53108D01*
X39709Y-53098D01*
X39678Y-53081D01*
X39646Y-53047D01*
X39619Y-53002D01*
X39609Y-52937D01*
X39609Y-54981D01*
X39978Y-54981D01*
X39978Y-52514D01*
X39979Y-52509D01*
X39979Y-42232D01*
X39994Y-42158D01*
X40035Y-42106D01*
X40099Y-42079D01*
X40137Y-42076D01*
X40192Y-42081D01*
X40231Y-42102D01*
X40257Y-42130D01*
X40294Y-42194D01*
X40298Y-42257D01*
X40271Y-42313D01*
X40209Y-42368D01*
X40144Y-42389D01*
X40078Y-42375D01*
X40070Y-42371D01*
X40013Y-42330D01*
X39985Y-42281D01*
X39979Y-42232D01*
X39979Y-52509D01*
X39998Y-52451D01*
X40028Y-52414D01*
X40092Y-52378D01*
X40160Y-52376D01*
X40226Y-52406D01*
X40256Y-52435D01*
X40256Y-52039D01*
X40258Y-52026D01*
X40258Y-42695D01*
X40284Y-42625D01*
X40289Y-42619D01*
X40340Y-42569D01*
X40401Y-42548D01*
X40464Y-42555D01*
X40519Y-42589D01*
X40540Y-42614D01*
X40566Y-42683D01*
X40563Y-42751D01*
X40531Y-42811D01*
X40475Y-42854D01*
X40472Y-42856D01*
X40407Y-42871D01*
X40350Y-42856D01*
X40307Y-42822D01*
X40265Y-42762D01*
X40258Y-42695D01*
X40258Y-52026D01*
X40258Y-52022D01*
X40289Y-51959D01*
X40341Y-51913D01*
X40407Y-51892D01*
X40417Y-51892D01*
X40434Y-51896D01*
X40434Y-51559D01*
X40434Y-43276D01*
X40435Y-43209D01*
X40464Y-43143D01*
X40486Y-43116D01*
X40543Y-43080D01*
X40607Y-43078D01*
X40673Y-43109D01*
X40687Y-43120D01*
X40721Y-43153D01*
X40736Y-43186D01*
X40737Y-43235D01*
X40737Y-43246D01*
X40729Y-43300D01*
X40710Y-43336D01*
X40672Y-43367D01*
X40620Y-43397D01*
X40579Y-43404D01*
X40533Y-43391D01*
X40514Y-43381D01*
X40461Y-43337D01*
X40434Y-43276D01*
X40434Y-51559D01*
X40435Y-51492D01*
X40464Y-51428D01*
X40477Y-51412D01*
X40477Y-49437D01*
X40478Y-49434D01*
X40478Y-47367D01*
X40478Y-47366D01*
X40478Y-46357D01*
X40478Y-45360D01*
X40480Y-45328D01*
X40480Y-43772D01*
X40507Y-43707D01*
X40515Y-43697D01*
X40571Y-43645D01*
X40632Y-43627D01*
X40693Y-43640D01*
X40755Y-43677D01*
X40788Y-43724D01*
X40798Y-43793D01*
X40798Y-43794D01*
X40783Y-43862D01*
X40745Y-43912D01*
X40690Y-43942D01*
X40627Y-43948D01*
X40564Y-43926D01*
X40529Y-43898D01*
X40487Y-43837D01*
X40480Y-43772D01*
X40480Y-45328D01*
X40480Y-45318D01*
X40480Y-44317D01*
X40489Y-44251D01*
X40523Y-44196D01*
X40579Y-44153D01*
X40645Y-44141D01*
X40714Y-44161D01*
X40747Y-44182D01*
X40781Y-44218D01*
X40795Y-44260D01*
X40798Y-44296D01*
X40788Y-44367D01*
X40755Y-44416D01*
X40698Y-44449D01*
X40632Y-44460D01*
X40566Y-44442D01*
X40514Y-44399D01*
X40506Y-44387D01*
X40480Y-44317D01*
X40480Y-45318D01*
X40481Y-45307D01*
X40481Y-44855D01*
X40481Y-44793D01*
X40513Y-44730D01*
X40539Y-44704D01*
X40599Y-44664D01*
X40654Y-44654D01*
X40716Y-44675D01*
X40731Y-44683D01*
X40778Y-44727D01*
X40799Y-44781D01*
X40797Y-44840D01*
X40775Y-44895D01*
X40738Y-44941D01*
X40688Y-44971D01*
X40631Y-44979D01*
X40577Y-44962D01*
X40513Y-44914D01*
X40481Y-44855D01*
X40481Y-45307D01*
X40481Y-45297D01*
X40517Y-45235D01*
X40539Y-45212D01*
X40593Y-45172D01*
X40639Y-45161D01*
X40689Y-45176D01*
X40723Y-45197D01*
X40776Y-45249D01*
X40800Y-45310D01*
X40795Y-45372D01*
X40763Y-45427D01*
X40722Y-45458D01*
X40669Y-45483D01*
X40628Y-45488D01*
X40585Y-45474D01*
X40564Y-45464D01*
X40506Y-45418D01*
X40478Y-45360D01*
X40478Y-46357D01*
X40480Y-46348D01*
X40480Y-45828D01*
X40508Y-45766D01*
X40529Y-45739D01*
X40590Y-45694D01*
X40656Y-45682D01*
X40723Y-45704D01*
X40750Y-45724D01*
X40782Y-45760D01*
X40795Y-45804D01*
X40798Y-45841D01*
X40792Y-45897D01*
X40772Y-45936D01*
X40750Y-45957D01*
X40685Y-45993D01*
X40616Y-45996D01*
X40551Y-45966D01*
X40529Y-45947D01*
X40487Y-45888D01*
X40480Y-45828D01*
X40480Y-46348D01*
X40487Y-46307D01*
X40521Y-46256D01*
X40529Y-46247D01*
X40590Y-46202D01*
X40656Y-46190D01*
X40722Y-46211D01*
X40750Y-46231D01*
X40787Y-46283D01*
X40799Y-46345D01*
X40789Y-46408D01*
X40759Y-46463D01*
X40711Y-46501D01*
X40681Y-46510D01*
X40646Y-46510D01*
X40600Y-46504D01*
X40559Y-46494D01*
X40539Y-46485D01*
X40496Y-46413D01*
X40478Y-46357D01*
X40478Y-47366D01*
X40483Y-47354D01*
X40483Y-46904D01*
X40485Y-46839D01*
X40520Y-46774D01*
X40523Y-46770D01*
X40579Y-46727D01*
X40645Y-46713D01*
X40711Y-46726D01*
X40759Y-46761D01*
X40789Y-46813D01*
X40800Y-46875D01*
X40791Y-46934D01*
X40770Y-46969D01*
X40707Y-47012D01*
X40639Y-47026D01*
X40577Y-47011D01*
X40514Y-46963D01*
X40483Y-46904D01*
X40483Y-47354D01*
X40502Y-47306D01*
X40529Y-47275D01*
X40582Y-47235D01*
X40640Y-47224D01*
X40707Y-47238D01*
X40759Y-47274D01*
X40791Y-47326D01*
X40803Y-47384D01*
X40792Y-47442D01*
X40755Y-47492D01*
X40728Y-47511D01*
X40656Y-47536D01*
X40590Y-47527D01*
X40532Y-47488D01*
X40487Y-47429D01*
X40478Y-47367D01*
X40478Y-49434D01*
X40480Y-49423D01*
X40480Y-48902D01*
X40480Y-48399D01*
X40482Y-48393D01*
X40482Y-47868D01*
X40514Y-47805D01*
X40529Y-47788D01*
X40589Y-47744D01*
X40653Y-47731D01*
X40715Y-47750D01*
X40766Y-47798D01*
X40782Y-47827D01*
X40801Y-47899D01*
X40788Y-47963D01*
X40749Y-48013D01*
X40686Y-48042D01*
X40642Y-48047D01*
X40587Y-48041D01*
X40549Y-48020D01*
X40523Y-47993D01*
X40485Y-47929D01*
X40482Y-47868D01*
X40482Y-48393D01*
X40503Y-48334D01*
X40512Y-48318D01*
X40559Y-48269D01*
X40615Y-48247D01*
X40674Y-48250D01*
X40729Y-48275D01*
X40772Y-48318D01*
X40798Y-48377D01*
X40799Y-48447D01*
X40798Y-48451D01*
X40770Y-48508D01*
X40733Y-48539D01*
X40664Y-48568D01*
X40602Y-48564D01*
X40543Y-48527D01*
X40532Y-48516D01*
X40490Y-48458D01*
X40480Y-48399D01*
X40480Y-48902D01*
X40506Y-48840D01*
X40523Y-48819D01*
X40576Y-48778D01*
X40637Y-48762D01*
X40698Y-48771D01*
X40750Y-48801D01*
X40786Y-48850D01*
X40794Y-48887D01*
X40796Y-48955D01*
X40784Y-49000D01*
X40755Y-49032D01*
X40736Y-49045D01*
X40666Y-49076D01*
X40604Y-49073D01*
X40546Y-49038D01*
X40532Y-49024D01*
X40489Y-48963D01*
X40480Y-48902D01*
X40480Y-49423D01*
X40492Y-49370D01*
X40533Y-49318D01*
X40590Y-49287D01*
X40657Y-49279D01*
X40724Y-49300D01*
X40734Y-49305D01*
X40781Y-49353D01*
X40802Y-49413D01*
X40797Y-49477D01*
X40766Y-49534D01*
X40722Y-49568D01*
X40675Y-49592D01*
X40644Y-49601D01*
X40618Y-49597D01*
X40594Y-49586D01*
X40523Y-49536D01*
X40485Y-49477D01*
X40477Y-49437D01*
X40477Y-51412D01*
X40480Y-51409D01*
X40480Y-50445D01*
X40480Y-49929D01*
X40498Y-49870D01*
X40540Y-49821D01*
X40602Y-49790D01*
X40620Y-49787D01*
X40669Y-49785D01*
X40711Y-49804D01*
X40735Y-49822D01*
X40783Y-49881D01*
X40802Y-49945D01*
X40791Y-50007D01*
X40752Y-50060D01*
X40722Y-50081D01*
X40655Y-50104D01*
X40593Y-50094D01*
X40530Y-50051D01*
X40525Y-50047D01*
X40488Y-49991D01*
X40480Y-49929D01*
X40480Y-50445D01*
X40507Y-50375D01*
X40552Y-50326D01*
X40610Y-50303D01*
X40672Y-50302D01*
X40728Y-50323D01*
X40772Y-50365D01*
X40793Y-50424D01*
X40794Y-50428D01*
X40796Y-50496D01*
X40784Y-50541D01*
X40755Y-50573D01*
X40736Y-50586D01*
X40663Y-50617D01*
X40597Y-50614D01*
X40537Y-50577D01*
X40529Y-50569D01*
X40487Y-50510D01*
X40480Y-50445D01*
X40480Y-51409D01*
X40482Y-51407D01*
X40482Y-51000D01*
X40486Y-50933D01*
X40523Y-50867D01*
X40579Y-50824D01*
X40645Y-50812D01*
X40714Y-50832D01*
X40747Y-50854D01*
X40781Y-50889D01*
X40795Y-50930D01*
X40798Y-50969D01*
X40791Y-51029D01*
X40767Y-51071D01*
X40719Y-51106D01*
X40699Y-51117D01*
X40635Y-51131D01*
X40572Y-51114D01*
X40515Y-51066D01*
X40512Y-51063D01*
X40482Y-51000D01*
X40482Y-51407D01*
X40489Y-51398D01*
X40549Y-51363D01*
X40613Y-51362D01*
X40678Y-51395D01*
X40687Y-51402D01*
X40721Y-51436D01*
X40736Y-51469D01*
X40737Y-51518D01*
X40737Y-51529D01*
X40729Y-51583D01*
X40710Y-51617D01*
X40672Y-51649D01*
X40620Y-51679D01*
X40579Y-51687D01*
X40533Y-51673D01*
X40514Y-51663D01*
X40461Y-51618D01*
X40434Y-51559D01*
X40434Y-51896D01*
X40484Y-51907D01*
X40533Y-51953D01*
X40564Y-52025D01*
X40564Y-52027D01*
X40564Y-52094D01*
X40537Y-52152D01*
X40489Y-52194D01*
X40429Y-52214D01*
X40363Y-52207D01*
X40336Y-52196D01*
X40294Y-52157D01*
X40265Y-52099D01*
X40256Y-52039D01*
X40256Y-52435D01*
X40270Y-52448D01*
X40298Y-52506D01*
X40293Y-52570D01*
X40257Y-52633D01*
X40201Y-52676D01*
X40135Y-52690D01*
X40069Y-52676D01*
X40021Y-52642D01*
X39985Y-52582D01*
X39978Y-52514D01*
X39978Y-54981D01*
X40758Y-54981D01*
X41916Y-54981D01*
X41916Y-48956D01*
X41919Y-48820D01*
X41943Y-48663D01*
X41987Y-48487D01*
X42051Y-48298D01*
X42132Y-48099D01*
X42194Y-47967D01*
X42233Y-47894D01*
X42278Y-47812D01*
X42328Y-47730D01*
X42377Y-47651D01*
X42423Y-47582D01*
X42461Y-47527D01*
X42489Y-47494D01*
X42500Y-47486D01*
X42513Y-47499D01*
X42547Y-47534D01*
X42599Y-47588D01*
X42665Y-47660D01*
X42743Y-47744D01*
X42830Y-47838D01*
X42866Y-47877D01*
X43002Y-48025D01*
X43117Y-48147D01*
X43215Y-48247D01*
X43297Y-48326D01*
X43367Y-48385D01*
X43427Y-48427D01*
X43480Y-48454D01*
X43527Y-48466D01*
X43573Y-48466D01*
X43618Y-48456D01*
X43667Y-48437D01*
X43674Y-48434D01*
X43788Y-48365D01*
X43897Y-48268D01*
X43999Y-48146D01*
X44090Y-48008D01*
X44167Y-47857D01*
X44227Y-47700D01*
X44266Y-47542D01*
X44281Y-47390D01*
X44281Y-47389D01*
X44282Y-47259D01*
X44342Y-47259D01*
X44403Y-47259D01*
X44368Y-47202D01*
X44343Y-47152D01*
X44317Y-47087D01*
X44302Y-47044D01*
X44282Y-46991D01*
X44262Y-46954D01*
X44250Y-46944D01*
X44224Y-46950D01*
X44175Y-46965D01*
X44115Y-46986D01*
X44114Y-46987D01*
X43979Y-47032D01*
X43817Y-47075D01*
X43640Y-47115D01*
X43457Y-47149D01*
X43420Y-47155D01*
X43309Y-47168D01*
X43185Y-47179D01*
X43056Y-47187D01*
X42931Y-47190D01*
X42818Y-47190D01*
X42725Y-47185D01*
X42672Y-47178D01*
X42605Y-47160D01*
X42527Y-47129D01*
X42449Y-47093D01*
X42385Y-47055D01*
X42354Y-47031D01*
X42293Y-46950D01*
X42257Y-46851D01*
X42245Y-46740D01*
X42258Y-46624D01*
X42298Y-46513D01*
X42299Y-46509D01*
X42373Y-46396D01*
X42479Y-46287D01*
X42610Y-46185D01*
X42765Y-46094D01*
X42938Y-46016D01*
X43095Y-45962D01*
X43198Y-45938D01*
X43314Y-45922D01*
X43435Y-45914D01*
X43551Y-45914D01*
X43651Y-45922D01*
X43718Y-45937D01*
X43784Y-45964D01*
X43851Y-45999D01*
X43914Y-46039D01*
X43966Y-46079D01*
X44001Y-46114D01*
X44013Y-46141D01*
X44010Y-46149D01*
X43989Y-46149D01*
X43946Y-46140D01*
X43906Y-46128D01*
X43811Y-46106D01*
X43688Y-46096D01*
X43647Y-46096D01*
X43550Y-46098D01*
X43465Y-46109D01*
X43383Y-46129D01*
X43293Y-46162D01*
X43186Y-46211D01*
X43148Y-46229D01*
X43009Y-46306D01*
X42899Y-46381D01*
X42818Y-46455D01*
X42768Y-46527D01*
X42750Y-46594D01*
X42764Y-46656D01*
X42789Y-46690D01*
X42849Y-46730D01*
X42937Y-46755D01*
X43050Y-46766D01*
X43184Y-46762D01*
X43335Y-46744D01*
X43501Y-46712D01*
X43678Y-46665D01*
X43861Y-46607D01*
X43865Y-46605D01*
X43948Y-46577D01*
X44038Y-46549D01*
X44102Y-46531D01*
X44162Y-46514D01*
X44207Y-46499D01*
X44228Y-46490D01*
X44236Y-46468D01*
X44248Y-46417D01*
X44262Y-46340D01*
X44279Y-46244D01*
X44297Y-46132D01*
X44315Y-46009D01*
X44334Y-45881D01*
X44352Y-45751D01*
X44370Y-45626D01*
X44384Y-45509D01*
X44397Y-45405D01*
X44406Y-45319D01*
X44411Y-45256D01*
X44412Y-45220D01*
X44410Y-45215D01*
X44391Y-45215D01*
X44345Y-45222D01*
X44279Y-45236D01*
X44213Y-45251D01*
X43961Y-45309D01*
X43738Y-45355D01*
X43538Y-45393D01*
X43354Y-45422D01*
X43183Y-45442D01*
X43019Y-45455D01*
X42856Y-45461D01*
X42762Y-45463D01*
X42607Y-45461D01*
X42482Y-45456D01*
X42384Y-45446D01*
X42308Y-45431D01*
X42249Y-45409D01*
X42205Y-45381D01*
X42190Y-45367D01*
X42150Y-45305D01*
X42139Y-45236D01*
X42157Y-45167D01*
X42202Y-45109D01*
X42236Y-45085D01*
X42236Y-36213D01*
X42240Y-36120D01*
X42247Y-36033D01*
X42257Y-35958D01*
X42271Y-35906D01*
X42282Y-35887D01*
X42297Y-35855D01*
X42298Y-35846D01*
X42306Y-35819D01*
X42325Y-35771D01*
X42353Y-35713D01*
X42355Y-35708D01*
X42418Y-35609D01*
X42504Y-35510D01*
X42606Y-35417D01*
X42717Y-35335D01*
X42830Y-35271D01*
X42938Y-35229D01*
X42982Y-35219D01*
X43029Y-35208D01*
X43058Y-35195D01*
X43062Y-35192D01*
X43083Y-35185D01*
X43088Y-35187D01*
X43114Y-35186D01*
X43134Y-35174D01*
X43161Y-35166D01*
X43217Y-35159D01*
X43295Y-35155D01*
X43390Y-35151D01*
X43495Y-35149D01*
X43604Y-35149D01*
X43711Y-35150D01*
X43811Y-35153D01*
X43895Y-35157D01*
X43959Y-35163D01*
X43996Y-35171D01*
X44001Y-35173D01*
X44030Y-35190D01*
X44043Y-35192D01*
X44066Y-35195D01*
X44113Y-35206D01*
X44163Y-35220D01*
X44330Y-35285D01*
X44478Y-35375D01*
X44603Y-35486D01*
X44703Y-35615D01*
X44774Y-35759D01*
X44775Y-35764D01*
X44797Y-35823D01*
X44818Y-35875D01*
X44826Y-35893D01*
X44834Y-35929D01*
X44841Y-35988D01*
X44844Y-36066D01*
X44846Y-36152D01*
X44845Y-36239D01*
X44843Y-36320D01*
X44838Y-36386D01*
X44831Y-36429D01*
X44826Y-36440D01*
X44809Y-36473D01*
X44795Y-36521D01*
X44793Y-36525D01*
X44757Y-36632D01*
X44693Y-36744D01*
X44610Y-36854D01*
X44511Y-36955D01*
X44404Y-37039D01*
X44334Y-37082D01*
X44278Y-37110D01*
X44232Y-37130D01*
X44208Y-37138D01*
X44182Y-37145D01*
X44137Y-37163D01*
X44115Y-37173D01*
X44052Y-37197D01*
X43978Y-37217D01*
X43944Y-37223D01*
X43879Y-37230D01*
X43788Y-37235D01*
X43679Y-37239D01*
X43560Y-37241D01*
X43439Y-37240D01*
X43326Y-37238D01*
X43228Y-37233D01*
X43154Y-37228D01*
X43139Y-37225D01*
X43074Y-37214D01*
X43020Y-37201D01*
X42990Y-37192D01*
X42952Y-37178D01*
X42898Y-37161D01*
X42876Y-37155D01*
X42813Y-37132D01*
X42743Y-37099D01*
X42714Y-37083D01*
X42666Y-37055D01*
X42629Y-37037D01*
X42617Y-37033D01*
X42597Y-37021D01*
X42560Y-36990D01*
X42516Y-36948D01*
X42470Y-36900D01*
X42430Y-36856D01*
X42403Y-36822D01*
X42400Y-36816D01*
X42379Y-36777D01*
X42351Y-36722D01*
X42336Y-36690D01*
X42309Y-36636D01*
X42287Y-36591D01*
X42279Y-36575D01*
X42271Y-36545D01*
X42259Y-36490D01*
X42248Y-36419D01*
X42244Y-36387D01*
X42237Y-36305D01*
X42236Y-36213D01*
X42236Y-45085D01*
X42245Y-45079D01*
X42263Y-45071D01*
X42263Y-41481D01*
X42263Y-40631D01*
X42263Y-39782D01*
X42263Y-39380D01*
X42263Y-39117D01*
X42263Y-38854D01*
X43090Y-38853D01*
X43918Y-38852D01*
X43760Y-38775D01*
X43688Y-38740D01*
X43595Y-38695D01*
X43490Y-38644D01*
X43382Y-38592D01*
X43332Y-38568D01*
X43224Y-38516D01*
X43097Y-38455D01*
X42961Y-38389D01*
X42828Y-38325D01*
X42732Y-38278D01*
X42628Y-38228D01*
X42531Y-38181D01*
X42446Y-38142D01*
X42380Y-38111D01*
X42338Y-38092D01*
X42333Y-38090D01*
X42263Y-38062D01*
X42263Y-37749D01*
X42263Y-37436D01*
X43542Y-37436D01*
X44820Y-37436D01*
X44820Y-37690D01*
X44820Y-37944D01*
X44006Y-37944D01*
X43841Y-37944D01*
X43687Y-37945D01*
X43547Y-37946D01*
X43426Y-37948D01*
X43327Y-37950D01*
X43252Y-37952D01*
X43206Y-37955D01*
X43191Y-37957D01*
X43206Y-37973D01*
X43240Y-37991D01*
X43288Y-38011D01*
X43362Y-38044D01*
X43456Y-38086D01*
X43563Y-38135D01*
X43678Y-38187D01*
X43795Y-38241D01*
X43908Y-38294D01*
X44010Y-38342D01*
X44097Y-38383D01*
X44102Y-38385D01*
X44189Y-38427D01*
X44267Y-38463D01*
X44331Y-38491D01*
X44373Y-38509D01*
X44382Y-38512D01*
X44414Y-38525D01*
X44470Y-38550D01*
X44542Y-38583D01*
X44621Y-38622D01*
X44623Y-38623D01*
X44820Y-38720D01*
X44820Y-39050D01*
X44820Y-39380D01*
X43542Y-39380D01*
X42263Y-39380D01*
X42263Y-39782D01*
X42482Y-39782D01*
X42701Y-39782D01*
X42701Y-40063D01*
X42701Y-40343D01*
X43524Y-40343D01*
X44347Y-40343D01*
X44347Y-40054D01*
X44347Y-39765D01*
X44583Y-39765D01*
X44820Y-39765D01*
X44820Y-40623D01*
X44820Y-41481D01*
X44583Y-41481D01*
X44347Y-41481D01*
X44347Y-41200D01*
X44347Y-40920D01*
X43524Y-40920D01*
X42701Y-40920D01*
X42701Y-41200D01*
X42701Y-41481D01*
X42482Y-41481D01*
X42263Y-41481D01*
X42263Y-45071D01*
X42267Y-45069D01*
X42267Y-43097D01*
X42269Y-42952D01*
X42288Y-42820D01*
X42328Y-42693D01*
X42391Y-42563D01*
X42479Y-42422D01*
X42501Y-42391D01*
X42657Y-42199D01*
X42835Y-42034D01*
X43035Y-41898D01*
X43254Y-41789D01*
X43411Y-41734D01*
X43486Y-41712D01*
X43552Y-41698D01*
X43619Y-41689D01*
X43700Y-41686D01*
X43786Y-41685D01*
X43903Y-41686D01*
X43993Y-41693D01*
X44066Y-41704D01*
X44111Y-41716D01*
X44290Y-41786D01*
X44449Y-41881D01*
X44585Y-41997D01*
X44696Y-42132D01*
X44778Y-42285D01*
X44811Y-42381D01*
X44833Y-42494D01*
X44837Y-42616D01*
X44823Y-42736D01*
X44795Y-42841D01*
X44780Y-42875D01*
X44699Y-43003D01*
X44590Y-43132D01*
X44455Y-43261D01*
X44299Y-43384D01*
X44128Y-43500D01*
X43946Y-43601D01*
X43822Y-43660D01*
X43602Y-43746D01*
X43397Y-43803D01*
X43206Y-43832D01*
X43024Y-43832D01*
X42849Y-43804D01*
X42828Y-43798D01*
X42681Y-43745D01*
X42551Y-43666D01*
X42458Y-43583D01*
X42384Y-43500D01*
X42331Y-43415D01*
X42296Y-43321D01*
X42276Y-43208D01*
X42267Y-43097D01*
X42267Y-45069D01*
X42280Y-45064D01*
X42296Y-45068D01*
X42304Y-45088D01*
X42330Y-45126D01*
X42386Y-45149D01*
X42465Y-45158D01*
X42566Y-45155D01*
X42684Y-45139D01*
X42817Y-45113D01*
X42961Y-45075D01*
X43112Y-45028D01*
X43267Y-44972D01*
X43422Y-44909D01*
X43575Y-44838D01*
X43721Y-44761D01*
X43769Y-44733D01*
X43944Y-44622D01*
X44096Y-44506D01*
X44229Y-44381D01*
X44349Y-44240D01*
X44459Y-44079D01*
X44565Y-43893D01*
X44638Y-43747D01*
X44754Y-43505D01*
X44788Y-43548D01*
X44860Y-43664D01*
X44899Y-43793D01*
X44907Y-43936D01*
X44883Y-44089D01*
X44827Y-44254D01*
X44801Y-44312D01*
X44755Y-44396D01*
X44698Y-44486D01*
X44642Y-44562D01*
X44635Y-44570D01*
X44544Y-44664D01*
X44434Y-44761D01*
X44315Y-44851D01*
X44201Y-44925D01*
X44172Y-44940D01*
X44075Y-44990D01*
X44297Y-45002D01*
X44438Y-45014D01*
X44547Y-45033D01*
X44627Y-45061D01*
X44682Y-45096D01*
X44693Y-45109D01*
X44701Y-45124D01*
X44690Y-45136D01*
X44655Y-45147D01*
X44605Y-45158D01*
X44548Y-45170D01*
X44507Y-45180D01*
X44490Y-45185D01*
X44498Y-45200D01*
X44521Y-45237D01*
X44558Y-45289D01*
X44584Y-45326D01*
X44661Y-45439D01*
X44719Y-45539D01*
X44764Y-45635D01*
X44793Y-45716D01*
X44806Y-45760D01*
X44814Y-45805D01*
X44818Y-45858D01*
X44818Y-45928D01*
X44814Y-46022D01*
X44812Y-46063D01*
X44800Y-46315D01*
X44867Y-46286D01*
X45095Y-46195D01*
X45315Y-46123D01*
X45524Y-46069D01*
X45717Y-46035D01*
X45892Y-46021D01*
X46045Y-46028D01*
X46072Y-46032D01*
X46140Y-46047D01*
X46210Y-46066D01*
X46274Y-46087D01*
X46327Y-46108D01*
X46360Y-46127D01*
X46366Y-46139D01*
X46344Y-46149D01*
X46296Y-46165D01*
X46230Y-46184D01*
X46177Y-46199D01*
X46045Y-46236D01*
X45907Y-46282D01*
X45758Y-46336D01*
X45594Y-46401D01*
X45411Y-46479D01*
X45204Y-46571D01*
X45052Y-46641D01*
X44802Y-46756D01*
X44802Y-46857D01*
X44806Y-46919D01*
X44815Y-47004D01*
X44829Y-47104D01*
X44845Y-47207D01*
X44863Y-47303D01*
X44880Y-47382D01*
X44889Y-47414D01*
X44906Y-47473D01*
X44820Y-47462D01*
X44734Y-47450D01*
X44759Y-47523D01*
X44781Y-47624D01*
X44783Y-47740D01*
X44766Y-47856D01*
X44747Y-47919D01*
X44672Y-48076D01*
X44567Y-48228D01*
X44436Y-48370D01*
X44287Y-48497D01*
X44122Y-48605D01*
X43979Y-48675D01*
X43817Y-48725D01*
X43645Y-48745D01*
X43470Y-48736D01*
X43299Y-48699D01*
X43139Y-48634D01*
X43051Y-48583D01*
X42900Y-48461D01*
X42772Y-48317D01*
X42734Y-48262D01*
X42658Y-48146D01*
X42602Y-48267D01*
X42528Y-48461D01*
X42480Y-48672D01*
X42461Y-48839D01*
X42458Y-48931D01*
X42461Y-48995D01*
X42474Y-49034D01*
X42498Y-49054D01*
X42537Y-49062D01*
X42555Y-49062D01*
X42596Y-49064D01*
X42610Y-49076D01*
X42599Y-49102D01*
X42577Y-49135D01*
X42520Y-49187D01*
X42440Y-49223D01*
X42346Y-49242D01*
X42245Y-49243D01*
X42148Y-49225D01*
X42088Y-49202D01*
X42035Y-49167D01*
X41982Y-49123D01*
X41976Y-49116D01*
X41944Y-49077D01*
X41927Y-49034D01*
X41918Y-48972D01*
X41916Y-48956D01*
X41916Y-54981D01*
X42228Y-54981D01*
X42228Y-52488D01*
X42239Y-52439D01*
X42267Y-52376D01*
X42267Y-50713D01*
X42269Y-50569D01*
X42288Y-50437D01*
X42328Y-50310D01*
X42391Y-50180D01*
X42479Y-50039D01*
X42501Y-50008D01*
X42657Y-49816D01*
X42835Y-49651D01*
X43035Y-49515D01*
X43254Y-49406D01*
X43411Y-49350D01*
X43486Y-49329D01*
X43552Y-49315D01*
X43619Y-49306D01*
X43700Y-49302D01*
X43786Y-49301D01*
X43903Y-49303D01*
X43993Y-49309D01*
X44066Y-49321D01*
X44111Y-49333D01*
X44290Y-49403D01*
X44449Y-49497D01*
X44585Y-49613D01*
X44696Y-49749D01*
X44778Y-49901D01*
X44811Y-49997D01*
X44833Y-50110D01*
X44837Y-50233D01*
X44823Y-50352D01*
X44795Y-50458D01*
X44780Y-50492D01*
X44699Y-50619D01*
X44590Y-50749D01*
X44455Y-50878D01*
X44299Y-51001D01*
X44128Y-51116D01*
X43946Y-51218D01*
X43822Y-51277D01*
X43602Y-51363D01*
X43397Y-51420D01*
X43206Y-51448D01*
X43024Y-51448D01*
X42849Y-51420D01*
X42828Y-51415D01*
X42681Y-51362D01*
X42551Y-51282D01*
X42458Y-51200D01*
X42384Y-51117D01*
X42331Y-51032D01*
X42296Y-50938D01*
X42276Y-50825D01*
X42267Y-50713D01*
X42267Y-52376D01*
X42306Y-52313D01*
X42348Y-52261D01*
X42354Y-52256D01*
X42396Y-52218D01*
X42439Y-52186D01*
X42485Y-52157D01*
X42541Y-52132D01*
X42608Y-52107D01*
X42691Y-52082D01*
X42796Y-52055D01*
X42924Y-52025D01*
X43083Y-51990D01*
X43139Y-51978D01*
X43574Y-51877D01*
X43979Y-51770D01*
X44355Y-51655D01*
X44706Y-51530D01*
X45036Y-51395D01*
X45348Y-51248D01*
X45645Y-51088D01*
X45931Y-50914D01*
X46116Y-50789D01*
X46194Y-50734D01*
X46263Y-50688D01*
X46316Y-50652D01*
X46348Y-50632D01*
X46356Y-50628D01*
X46352Y-50645D01*
X46336Y-50686D01*
X46312Y-50742D01*
X46306Y-50753D01*
X46196Y-50955D01*
X46052Y-51147D01*
X45875Y-51329D01*
X45665Y-51500D01*
X45424Y-51660D01*
X45151Y-51810D01*
X44845Y-51948D01*
X44510Y-52074D01*
X44402Y-52110D01*
X44244Y-52159D01*
X44085Y-52206D01*
X43921Y-52249D01*
X43745Y-52292D01*
X43551Y-52336D01*
X43333Y-52382D01*
X43168Y-52415D01*
X43045Y-52440D01*
X42932Y-52463D01*
X42836Y-52484D01*
X42760Y-52500D01*
X42709Y-52512D01*
X42688Y-52519D01*
X42691Y-52539D01*
X42717Y-52571D01*
X42761Y-52612D01*
X42815Y-52654D01*
X42874Y-52694D01*
X42902Y-52711D01*
X43078Y-52791D01*
X43283Y-52856D01*
X43518Y-52906D01*
X43782Y-52941D01*
X44077Y-52962D01*
X44367Y-52967D01*
X44632Y-52961D01*
X44873Y-52943D01*
X45100Y-52912D01*
X45323Y-52864D01*
X45551Y-52800D01*
X45741Y-52736D01*
X45947Y-52663D01*
X46007Y-52732D01*
X46071Y-52819D01*
X46103Y-52898D01*
X46104Y-52970D01*
X46082Y-53046D01*
X46050Y-53106D01*
X46014Y-53140D01*
X45976Y-53156D01*
X45910Y-53181D01*
X45823Y-53211D01*
X45719Y-53245D01*
X45606Y-53281D01*
X45489Y-53317D01*
X45376Y-53351D01*
X45269Y-53382D01*
X45177Y-53407D01*
X45150Y-53414D01*
X45001Y-53451D01*
X44859Y-53483D01*
X44717Y-53513D01*
X44574Y-53540D01*
X44425Y-53565D01*
X44266Y-53589D01*
X44094Y-53611D01*
X43904Y-53633D01*
X43693Y-53656D01*
X43457Y-53679D01*
X43193Y-53703D01*
X43016Y-53719D01*
X42856Y-53733D01*
X42708Y-53746D01*
X42573Y-53758D01*
X42456Y-53768D01*
X42360Y-53777D01*
X42290Y-53783D01*
X42249Y-53787D01*
X42240Y-53788D01*
X42242Y-53777D01*
X42261Y-53747D01*
X42281Y-53720D01*
X42341Y-53663D01*
X42431Y-53606D01*
X42543Y-53551D01*
X42670Y-53503D01*
X42797Y-53466D01*
X42865Y-53452D01*
X42960Y-53434D01*
X43075Y-53414D01*
X43202Y-53393D01*
X43336Y-53372D01*
X43419Y-53360D01*
X43583Y-53337D01*
X43715Y-53318D01*
X43815Y-53303D01*
X43887Y-53291D01*
X43933Y-53283D01*
X43954Y-53276D01*
X43952Y-53272D01*
X43929Y-53269D01*
X43888Y-53267D01*
X43831Y-53266D01*
X43831Y-53266D01*
X43720Y-53262D01*
X43594Y-53253D01*
X43461Y-53239D01*
X43335Y-53224D01*
X43224Y-53207D01*
X43165Y-53195D01*
X42959Y-53138D01*
X42780Y-53060D01*
X42621Y-52962D01*
X42522Y-52880D01*
X42467Y-52825D01*
X42409Y-52759D01*
X42351Y-52687D01*
X42300Y-52618D01*
X42259Y-52556D01*
X42234Y-52509D01*
X42228Y-52488D01*
X42228Y-54981D01*
X47499Y-54981D01*
X47499Y-44483D01*
X47499Y-33986D01*
X40758Y-33986D01*
X34016Y-33986D01*
X34016Y-44483D01*
X34016Y-54981D01*
X34016Y-54981D01*
X34016Y-54981D01*
G37*
G36*
X42807Y-50859D02*
X42813Y-50948D01*
X42828Y-51013D01*
X42831Y-51020D01*
X42875Y-51087D01*
X42936Y-51125D01*
X43015Y-51136D01*
X43113Y-51121D01*
X43270Y-51070D01*
X43433Y-50997D01*
X43596Y-50907D01*
X43753Y-50802D01*
X43898Y-50689D01*
X44027Y-50569D01*
X44134Y-50448D01*
X44212Y-50329D01*
X44220Y-50314D01*
X44265Y-50192D01*
X44280Y-50065D01*
X44266Y-49942D01*
X44241Y-49871D01*
X44197Y-49788D01*
X44145Y-49730D01*
X44079Y-49692D01*
X43991Y-49670D01*
X43918Y-49662D01*
X43770Y-49668D01*
X43619Y-49705D01*
X43469Y-49771D01*
X43325Y-49862D01*
X43190Y-49975D01*
X43068Y-50108D01*
X42963Y-50257D01*
X42880Y-50420D01*
X42859Y-50472D01*
X42836Y-50555D01*
X42818Y-50653D01*
X42809Y-50759D01*
X42807Y-50859D01*
X42807Y-50859D01*
X42807Y-50859D01*
G37*
G36*
X36635Y-43950D02*
X36637Y-44087D01*
X36644Y-44197D01*
X36658Y-44287D01*
X36680Y-44365D01*
X36713Y-44438D01*
X36759Y-44513D01*
X36767Y-44525D01*
X36867Y-44653D01*
X36984Y-44758D01*
X37123Y-44842D01*
X37286Y-44909D01*
X37391Y-44941D01*
X37452Y-44956D01*
X37508Y-44968D01*
X37565Y-44977D01*
X37630Y-44983D01*
X37709Y-44987D01*
X37811Y-44990D01*
X37938Y-44993D01*
X38050Y-44995D01*
X38151Y-44995D01*
X38234Y-44995D01*
X38295Y-44995D01*
X38328Y-44993D01*
X38332Y-44992D01*
X38356Y-44986D01*
X38406Y-44974D01*
X38472Y-44957D01*
X38514Y-44948D01*
X38715Y-44886D01*
X38890Y-44803D01*
X39037Y-44697D01*
X39158Y-44570D01*
X39251Y-44421D01*
X39317Y-44251D01*
X39338Y-44163D01*
X39354Y-44042D01*
X39356Y-43907D01*
X39345Y-43769D01*
X39324Y-43638D01*
X39292Y-43525D01*
X39267Y-43468D01*
X39173Y-43316D01*
X39058Y-43189D01*
X38921Y-43085D01*
X38760Y-43003D01*
X38572Y-42942D01*
X38358Y-42902D01*
X38321Y-42898D01*
X38217Y-42889D01*
X38094Y-42885D01*
X37962Y-42885D01*
X37828Y-42890D01*
X37702Y-42897D01*
X37592Y-42908D01*
X37509Y-42922D01*
X37313Y-42978D01*
X37139Y-43054D01*
X36991Y-43146D01*
X36871Y-43254D01*
X36805Y-43337D01*
X36745Y-43427D01*
X36702Y-43503D01*
X36671Y-43574D01*
X36652Y-43647D01*
X36641Y-43731D01*
X36636Y-43835D01*
X36635Y-43950D01*
X36635Y-43950D01*
X36635Y-43950D01*
G37*
G36*
X42807Y-43243D02*
X42813Y-43331D01*
X42828Y-43397D01*
X42831Y-43403D01*
X42875Y-43470D01*
X42936Y-43508D01*
X43015Y-43519D01*
X43113Y-43504D01*
X43270Y-43453D01*
X43433Y-43380D01*
X43596Y-43290D01*
X43753Y-43185D01*
X43898Y-43072D01*
X44027Y-42952D01*
X44134Y-42831D01*
X44212Y-42713D01*
X44220Y-42697D01*
X44265Y-42575D01*
X44280Y-42448D01*
X44266Y-42326D01*
X44241Y-42255D01*
X44197Y-42171D01*
X44145Y-42113D01*
X44079Y-42075D01*
X43991Y-42053D01*
X43918Y-42046D01*
X43770Y-42051D01*
X43619Y-42089D01*
X43469Y-42154D01*
X43325Y-42245D01*
X43190Y-42359D01*
X43068Y-42491D01*
X42963Y-42641D01*
X42880Y-42804D01*
X42859Y-42855D01*
X42836Y-42938D01*
X42818Y-43037D01*
X42809Y-43142D01*
X42807Y-43243D01*
X42807Y-43243D01*
X42807Y-43243D01*
G37*
G36*
X42707Y-36244D02*
X42730Y-36347D01*
X42773Y-36441D01*
X42831Y-36512D01*
X42832Y-36513D01*
X42874Y-36543D01*
X42927Y-36575D01*
X42978Y-36600D01*
X43015Y-36612D01*
X43020Y-36613D01*
X43050Y-36621D01*
X43092Y-36640D01*
X43095Y-36642D01*
X43119Y-36652D01*
X43154Y-36660D01*
X43203Y-36666D01*
X43272Y-36670D01*
X43365Y-36673D01*
X43488Y-36675D01*
X43498Y-36675D01*
X43608Y-36676D01*
X43710Y-36676D01*
X43797Y-36675D01*
X43862Y-36674D01*
X43898Y-36671D01*
X43900Y-36671D01*
X43946Y-36659D01*
X43974Y-36645D01*
X44002Y-36635D01*
X44012Y-36638D01*
X44035Y-36637D01*
X44039Y-36632D01*
X44062Y-36617D01*
X44097Y-36605D01*
X44164Y-36574D01*
X44233Y-36519D01*
X44295Y-36450D01*
X44340Y-36374D01*
X44341Y-36373D01*
X44366Y-36295D01*
X44380Y-36212D01*
X44381Y-36136D01*
X44368Y-36078D01*
X44366Y-36074D01*
X44349Y-36037D01*
X44329Y-35988D01*
X44329Y-35986D01*
X44289Y-35921D01*
X44224Y-35860D01*
X44142Y-35808D01*
X44068Y-35779D01*
X44007Y-35760D01*
X43955Y-35742D01*
X43933Y-35733D01*
X43891Y-35723D01*
X43865Y-35727D01*
X43827Y-35727D01*
X43812Y-35719D01*
X43784Y-35712D01*
X43721Y-35707D01*
X43625Y-35706D01*
X43512Y-35708D01*
X43395Y-35712D01*
X43308Y-35715D01*
X43246Y-35717D01*
X43205Y-35720D01*
X43179Y-35723D01*
X43164Y-35727D01*
X43154Y-35732D01*
X43148Y-35736D01*
X43120Y-35748D01*
X43074Y-35760D01*
X43057Y-35763D01*
X42951Y-35797D01*
X42859Y-35859D01*
X42785Y-35944D01*
X42733Y-36045D01*
X42707Y-36156D01*
X42707Y-36244D01*
X42707Y-36244D01*
X42707Y-36244D01*
G37*
M02*
